{"glyphs":{"0":{"ha":828,"x_min":85,"x_max":743,"o":"m 658 108 q 615 47 658 108 q 414 -14 572 -14 q 170 108 256 -14 q 85 458 85 231 q 170 808 85 686 q 414 931 256 931 q 658 808 572 931 q 743 458 743 686 q 658 108 743 231 m 199 133 q 236 77 199 133 q 414 21 274 21 q 629 133 554 21 q 704 458 704 246 q 629 783 704 671 q 414 896 554 896 q 199 783 274 896 q 125 458 125 671 q 199 133 125 246 z "},"1":{"ha":458,"x_min":36,"x_max":328,"o":"m 289 0 l 289 767 l 289 857 q 47 686 207 735 l 36 719 q 185 799 113 746 q 292 917 257 851 l 328 917 l 328 0 l 289 0 z "},"2":{"ha":754,"x_min":67,"x_max":690,"o":"m 81 0 l 81 33 q 238 163 186 119 q 365 273 290 207 q 476 379 440 339 q 549 471 511 419 q 601 567 588 522 q 615 657 615 611 q 549 831 615 767 q 367 896 482 896 q 179 824 250 896 q 101 629 108 751 l 67 647 q 155 853 75 776 q 367 931 235 931 q 577 857 500 931 q 654 657 654 783 q 631 541 654 599 q 570 432 607 483 q 461 311 533 381 q 322 185 389 242 q 140 36 256 129 l 140 35 l 197 35 l 690 35 l 690 0 l 81 0 z "},"3":{"ha":729,"x_min":54,"x_max":669,"o":"m 372 -14 q 163 44 249 -14 q 54 197 78 101 l 90 218 q 185 74 111 128 q 372 21 258 21 q 559 82 488 21 q 631 250 631 143 q 569 395 631 346 q 404 444 507 444 q 324 443 342 444 l 324 481 q 396 479 343 479 q 551 534 494 479 q 607 686 607 589 q 545 840 607 783 q 378 896 483 896 q 213 850 281 896 q 118 724 144 804 l 82 742 q 192 880 114 829 q 379 931 271 931 q 574 865 503 931 q 646 689 646 800 q 599 538 646 600 q 469 463 551 476 l 469 461 q 615 397 560 456 q 669 246 669 339 q 586 58 669 131 q 372 -14 503 -14 z "},"4":{"ha":779,"x_min":54,"x_max":742,"o":"m 515 0 l 515 276 l 54 276 l 54 307 l 503 917 l 554 917 l 554 310 l 742 310 l 742 276 l 554 276 l 554 0 l 515 0 m 97 310 l 515 310 l 515 785 q 517 881 515 849 l 514 881 q 449 785 488 840 l 97 310 z "},"5":{"ha":756,"x_min":72,"x_max":683,"o":"m 385 -14 q 72 206 122 -14 l 108 222 q 386 21 146 21 q 572 92 500 21 q 644 275 644 163 q 575 457 644 388 q 393 526 506 526 q 136 414 219 526 l 101 417 l 146 917 l 647 917 l 647 882 l 178 882 l 142 479 l 139 454 l 142 454 q 397 561 221 561 q 603 482 524 561 q 683 276 683 403 q 600 67 683 147 q 385 -14 517 -14 z "},"6":{"ha":774,"x_min":85,"x_max":703,"o":"m 432 931 q 682 758 619 931 l 646 742 q 571 854 625 813 q 431 896 517 896 q 287 858 349 896 q 190 753 225 819 q 138 609 156 688 q 121 440 121 531 q 132 296 121 371 l 136 296 q 224 486 143 418 q 414 554 304 554 q 626 476 549 554 q 703 269 703 399 q 623 63 703 140 q 408 -14 543 -14 q 167 108 249 -14 q 85 458 85 229 q 181 809 85 688 q 432 931 276 931 m 413 519 q 230 444 301 519 q 158 269 158 368 q 228 93 158 164 q 407 22 297 22 q 594 90 525 22 q 663 272 663 158 q 594 451 663 382 q 413 519 526 519 z "},"7":{"ha":704,"x_min":35,"x_max":685,"o":"m 35 917 l 685 917 l 685 882 q 321 0 356 529 l 279 0 q 642 882 317 533 l 35 882 l 35 917 z "},"8":{"ha":794,"x_min":79,"x_max":715,"o":"m 195 868 q 233 899 195 868 q 397 931 271 931 q 599 868 524 931 q 675 703 675 806 q 626 562 675 619 q 490 483 578 504 l 490 482 q 654 395 593 461 q 715 238 715 329 q 626 56 715 126 q 397 -14 538 -14 q 168 56 257 -14 q 79 238 79 126 q 141 397 79 331 q 306 482 203 463 l 306 483 q 169 560 218 503 q 119 703 119 618 q 195 868 119 806 m 571 842 q 538 868 571 842 q 397 894 506 894 q 224 842 289 894 q 158 700 158 789 q 224 555 158 610 q 397 500 289 500 q 571 555 506 500 q 636 700 636 610 q 571 842 636 789 m 197 81 q 235 51 197 81 q 397 21 274 21 q 598 81 521 21 q 675 239 675 142 q 598 400 675 338 q 397 463 521 463 q 197 400 274 463 q 119 239 119 338 q 197 81 119 142 z "},"9":{"ha":800,"x_min":82,"x_max":715,"o":"m 383 931 q 631 808 547 931 q 715 458 715 685 q 626 107 715 228 q 385 -14 536 -14 q 192 40 272 -14 q 89 183 113 93 l 125 201 q 213 69 147 118 q 385 21 278 21 q 524 58 465 21 q 616 161 583 96 q 664 303 649 226 q 679 469 679 379 q 665 626 679 546 l 663 626 q 573 432 657 501 q 378 363 489 363 q 163 440 243 363 q 82 644 82 517 q 164 853 82 775 q 383 931 246 931 m 385 894 q 193 826 264 894 q 122 642 122 757 q 193 465 122 532 q 381 399 264 399 q 567 472 493 399 q 640 654 640 546 q 566 824 640 754 q 385 894 492 894 z "},"\u0000":{"ha":0,"x_min":0,"x_max":0,"o":""},"\r":{"ha":406,"x_min":0,"x_max":0,"o":""}," ":{"ha":406,"x_min":0,"x_max":0,"o":""},"!":{"ha":276,"x_min":96,"x_max":181,"o":"m 158 917 l 158 439 l 156 246 l 121 246 l 118 439 l 118 917 l 158 917 m 138 75 q 169 63 157 75 q 181 33 181 51 q 169 3 181 15 q 138 -8 157 -8 q 108 3 119 -8 q 96 33 96 15 q 108 63 96 51 q 138 75 119 75 z "},"\"":{"ha":376,"x_min":96,"x_max":286,"o":"m 286 947 l 279 703 l 243 703 l 243 947 l 286 947 m 138 947 l 131 703 l 96 703 l 96 947 l 138 947 z "},"#":{"ha":879,"x_min":54,"x_max":826,"o":"m 781 321 l 781 289 l 579 289 l 535 0 l 499 0 l 543 289 l 278 289 l 233 0 l 197 0 l 242 289 l 54 289 l 54 321 l 247 321 l 292 608 l 99 608 l 99 640 l 296 640 l 339 917 l 375 917 l 332 640 l 597 640 l 640 917 l 676 917 l 633 640 l 826 640 l 826 608 l 629 608 l 585 321 l 781 321 m 283 321 l 549 321 l 593 608 l 328 608 l 283 321 z "},"$":{"ha":817,"x_min":74,"x_max":739,"o":"m 401 -139 l 401 1 q 187 65 275 6 q 74 231 99 124 l 107 254 q 206 97 126 153 q 401 36 286 42 l 401 438 l 333 451 q 158 531 213 476 q 103 672 103 585 q 185 843 103 772 q 401 917 267 914 l 401 1056 l 435 1056 l 435 917 q 724 714 658 906 l 694 689 q 435 882 639 868 l 435 468 l 510 453 q 685 376 631 426 q 739 243 739 325 q 654 69 739 136 q 435 0 569 3 l 435 -139 l 401 -139 m 347 486 l 401 475 l 401 882 q 214 822 285 881 q 143 675 143 764 q 190 555 143 600 q 347 486 236 510 m 499 417 l 435 431 l 435 36 q 628 92 556 39 q 700 242 700 144 q 652 351 700 308 q 499 417 604 394 z "},"%":{"ha":1075,"x_min":54,"x_max":1021,"o":"m 105 851 q 130 885 105 851 q 253 919 156 919 q 400 851 350 919 q 450 682 450 783 q 400 515 450 582 q 253 449 350 449 q 105 515 156 449 q 54 682 54 582 q 105 851 54 783 m 210 0 l 824 917 l 864 917 l 250 0 l 210 0 m 373 829 q 352 858 373 829 q 253 888 332 888 q 133 829 174 888 q 92 682 92 771 q 132 537 92 593 q 253 481 172 481 q 374 537 333 481 q 414 682 414 593 q 373 829 414 771 m 675 401 q 701 434 675 401 q 824 468 726 468 q 971 401 921 468 q 1021 232 1021 333 q 971 64 1021 131 q 824 -3 921 -3 q 675 65 726 -3 q 624 232 624 132 q 675 401 624 333 m 824 436 q 702 378 743 436 q 661 232 661 321 q 702 87 661 144 q 824 29 743 29 q 943 86 903 29 q 983 232 983 143 q 943 378 983 321 q 824 436 903 436 z "},"&":{"ha":808,"x_min":64,"x_max":817,"o":"m 332 -14 q 139 44 214 -14 q 64 200 64 103 q 122 364 64 299 q 304 497 181 429 q 210 637 235 589 q 186 738 186 685 q 240 874 186 821 q 386 926 294 926 q 524 881 472 926 q 575 758 575 835 q 522 610 575 668 q 354 488 469 553 q 394 435 358 482 q 454 357 431 388 q 606 165 553 226 q 686 506 690 299 l 721 503 q 628 139 724 274 q 731 42 690 68 q 817 17 772 17 l 810 -14 q 715 13 760 -14 q 607 113 671 40 q 332 -14 506 -14 m 224 738 q 244 649 224 690 q 335 514 264 607 q 419 565 390 546 q 480 615 447 585 q 526 678 513 644 q 539 756 539 713 q 497 856 539 818 q 385 893 456 893 q 267 851 310 893 q 224 738 224 808 m 101 203 q 166 69 101 118 q 331 19 231 19 q 585 138 492 19 q 429 333 511 225 q 324 471 332 460 q 154 348 207 404 q 101 203 101 292 z "},"'":{"ha":229,"x_min":96,"x_max":138,"o":"m 138 947 l 131 703 l 96 703 l 96 947 l 138 947 z "},"(":{"ha":376,"x_min":76,"x_max":358,"o":"m 338 1031 l 358 1007 q 114 394 114 800 q 358 -218 114 -10 l 338 -242 q 76 394 76 -19 q 338 1031 76 808 z "},")":{"ha":376,"x_min":18,"x_max":301,"o":"m 39 -242 l 18 -218 q 263 394 263 -11 q 18 1007 263 801 l 39 1031 q 301 394 301 807 q 39 -242 301 -18 z "},"*":{"ha":725,"x_min":65,"x_max":658,"o":"m 76 819 l 250 764 l 350 725 l 344 831 l 344 1014 l 381 1014 l 381 831 l 375 725 l 474 764 l 649 819 l 658 786 l 485 729 l 382 701 l 449 619 l 556 471 l 528 450 l 419 597 l 363 686 l 304 597 l 197 450 l 168 471 l 276 619 l 342 701 l 239 729 l 65 786 l 76 819 z "},"+":{"ha":839,"x_min":94,"x_max":744,"o":"m 744 457 l 744 421 l 439 421 l 439 107 l 401 107 l 401 421 l 94 421 l 94 457 l 401 457 l 401 763 l 439 763 l 439 457 l 744 457 z "},",":{"ha":258,"x_min":68,"x_max":188,"o":"m 131 75 q 173 54 158 75 q 188 -1 188 33 q 163 -92 188 -49 q 93 -158 139 -135 l 68 -139 q 140 -75 113 -121 q 156 7 167 -29 l 153 7 q 126 -8 144 -8 q 99 3 110 -8 q 88 33 88 15 q 100 63 88 50 q 131 75 113 75 z "},"-":{"ha":603,"x_min":100,"x_max":503,"o":"m 503 393 l 503 353 l 100 353 l 100 393 l 503 393 z "},".":{"ha":258,"x_min":88,"x_max":171,"o":"m 99 64 q 105 69 99 64 q 129 75 111 75 q 159 64 147 75 q 171 33 171 53 q 159 3 171 14 q 129 -8 147 -8 q 99 3 111 -8 q 88 33 88 14 q 99 64 88 53 z "},"/":{"ha":508,"x_min":47,"x_max":460,"o":"m 460 1014 l 86 -97 l 47 -97 l 421 1014 l 460 1014 z "},":":{"ha":294,"x_min":106,"x_max":189,"o":"m 117 686 q 122 692 117 686 q 147 697 128 697 q 178 686 167 697 q 189 656 189 675 q 178 625 189 636 q 147 614 167 614 q 117 625 128 614 q 106 656 106 636 q 117 686 106 675 m 117 64 q 122 69 117 64 q 147 75 128 75 q 178 64 167 75 q 189 33 189 53 q 178 3 189 14 q 147 -8 167 -8 q 117 3 128 -8 q 106 33 106 14 q 117 64 106 53 z "},";":{"ha":294,"x_min":83,"x_max":203,"o":"m 117 686 q 122 692 117 686 q 147 697 128 697 q 178 686 167 697 q 189 656 189 675 q 178 625 189 636 q 147 614 167 614 q 117 625 128 614 q 106 656 106 636 q 117 686 106 675 m 146 75 q 188 54 172 75 q 203 -1 203 33 q 178 -92 203 -49 q 107 -158 153 -135 l 83 -139 q 154 -76 128 -121 q 171 7 181 -31 l 167 7 q 140 -8 160 -8 q 114 3 125 -8 q 103 33 103 15 q 115 63 103 50 q 146 75 128 75 z "},"<":{"ha":839,"x_min":121,"x_max":744,"o":"m 744 72 l 121 393 l 121 439 l 744 760 l 744 718 l 154 417 l 744 115 l 744 72 z "},"=":{"ha":839,"x_min":115,"x_max":724,"o":"m 724 592 l 724 556 l 115 556 l 115 592 l 724 592 m 724 308 l 724 274 l 115 274 l 115 308 l 724 308 z "},">":{"ha":839,"x_min":94,"x_max":718,"o":"m 94 760 l 718 439 l 718 393 l 94 72 l 94 114 l 685 415 l 94 717 l 94 760 z "},"?":{"ha":675,"x_min":44,"x_max":615,"o":"m 138 869 q 174 900 138 869 q 338 931 211 931 q 540 860 464 931 q 615 676 615 789 q 551 499 615 563 q 343 399 486 436 l 343 224 l 304 224 l 304 421 q 519 517 461 464 q 576 674 576 569 q 512 833 576 771 q 336 896 447 896 q 158 839 222 896 q 78 678 93 782 l 44 696 q 138 869 64 808 m 294 64 q 300 69 294 64 q 324 75 306 75 q 353 63 342 75 q 365 33 365 51 q 353 3 365 15 q 324 -8 342 -8 q 294 3 306 -8 q 282 33 282 14 q 294 64 282 53 z "},"@":{"ha":1263,"x_min":90,"x_max":1189,"o":"m 661 -243 q 245 -94 400 -243 q 90 311 90 54 q 258 745 90 585 q 668 906 425 906 q 897 862 794 906 q 1061 744 999 818 q 1156 579 1124 671 q 1189 388 1189 488 q 1117 113 1189 225 q 939 0 1044 0 q 842 44 874 0 q 817 153 810 88 q 585 14 744 14 q 406 92 472 14 q 340 293 340 171 q 428 553 340 447 q 649 658 517 658 q 813 594 751 658 q 875 418 874 529 l 928 644 l 965 644 l 857 186 q 850 131 850 160 q 877 54 850 78 q 943 31 904 31 q 1092 134 1029 31 q 1156 385 1156 238 q 1125 567 1156 481 q 1036 722 1094 653 q 883 833 978 792 q 669 874 788 874 q 399 810 521 874 q 202 616 278 746 q 126 311 126 486 q 273 -72 126 68 q 661 -212 419 -212 q 849 -182 760 -212 q 993 -101 939 -151 l 1014 -129 q 661 -243 876 -243 m 588 44 q 780 140 706 44 q 854 385 854 236 q 797 565 854 506 q 649 624 739 624 q 456 530 535 624 q 376 293 376 436 q 436 113 376 181 q 588 44 496 44 z "},"A":{"ha":833,"x_min":21,"x_max":813,"o":"m 813 0 l 772 0 l 644 311 l 189 311 l 61 0 l 21 0 l 394 917 l 439 917 l 813 0 m 203 347 l 629 347 l 417 876 l 203 347 z "},"B":{"ha":857,"x_min":140,"x_max":775,"o":"m 140 0 l 140 917 l 463 917 q 750 681 750 917 q 572 464 750 501 l 572 463 q 722 390 668 449 q 775 239 775 332 q 695 61 775 122 q 463 0 615 0 l 140 0 m 179 481 l 463 481 q 710 679 710 481 q 463 882 710 882 l 179 882 l 179 481 m 179 35 l 468 35 q 735 240 735 35 q 468 444 735 444 l 179 444 l 179 35 z "},"C":{"ha":911,"x_min":81,"x_max":856,"o":"m 856 231 q 724 50 819 114 q 492 -14 628 -14 q 193 114 306 -14 q 81 458 81 242 q 192 803 81 675 q 490 931 304 931 q 846 694 775 931 l 808 676 q 492 896 742 896 q 222 778 324 896 q 121 458 121 660 q 222 139 121 257 q 492 21 324 21 q 701 79 615 21 q 817 244 786 138 l 856 231 z "},"D":{"ha":958,"x_min":140,"x_max":878,"o":"m 425 917 q 762 803 646 917 q 878 469 878 689 q 762 119 878 239 q 425 0 646 0 l 140 0 l 140 917 l 425 917 m 426 35 q 733 146 628 35 q 838 469 838 257 q 733 776 838 671 q 426 882 628 882 l 179 882 l 179 35 l 426 35 z "},"E":{"ha":824,"x_min":140,"x_max":776,"o":"m 140 0 l 140 917 l 754 917 l 754 882 l 179 882 l 179 485 l 638 485 l 638 450 l 179 450 l 179 35 l 776 35 l 776 0 l 140 0 z "},"F":{"ha":785,"x_min":140,"x_max":753,"o":"m 753 882 l 179 882 l 179 485 l 638 485 l 638 450 l 179 450 l 179 0 l 140 0 l 140 917 l 753 917 l 753 882 z "},"G":{"ha":951,"x_min":81,"x_max":857,"o":"m 499 -14 q 193 113 306 -14 q 81 458 81 240 q 194 803 81 675 q 493 931 307 931 q 850 694 774 931 l 815 676 q 493 896 746 896 q 223 777 325 896 q 121 458 121 658 q 222 138 121 256 q 499 21 322 21 q 625 42 568 21 q 717 95 682 63 q 776 170 753 128 q 810 254 800 213 q 819 336 819 296 l 819 403 l 493 403 l 493 438 l 857 438 l 857 0 l 822 0 l 821 199 q 703 43 788 100 q 499 -14 619 -14 z "},"H":{"ha":976,"x_min":140,"x_max":836,"o":"m 179 917 l 179 485 l 797 485 l 797 917 l 836 917 l 836 0 l 797 0 l 797 450 l 179 450 l 179 0 l 140 0 l 140 917 l 179 917 z "},"I":{"ha":318,"x_min":140,"x_max":179,"o":"m 179 917 l 179 0 l 140 0 l 140 917 l 179 917 z "},"J":{"ha":710,"x_min":28,"x_max":579,"o":"m 579 917 l 579 294 q 508 68 579 150 q 301 -14 436 -14 q 95 67 163 -14 q 49 282 28 147 l 86 296 q 124 92 68 163 q 301 21 179 21 q 481 94 421 21 q 540 300 540 168 l 540 917 l 579 917 z "},"K":{"ha":800,"x_min":140,"x_max":778,"o":"m 179 917 l 179 374 l 713 917 l 765 917 l 406 549 l 778 0 l 729 0 l 376 519 l 179 319 l 179 0 l 140 0 l 140 917 l 179 917 z "},"L":{"ha":768,"x_min":140,"x_max":747,"o":"m 179 35 l 747 35 l 747 0 l 140 0 l 140 917 l 179 917 l 179 35 z "},"M":{"ha":1110,"x_min":140,"x_max":969,"o":"m 969 917 l 969 0 l 932 0 l 932 763 l 935 872 l 575 0 l 535 0 l 175 872 l 174 872 l 178 763 l 178 0 l 140 0 l 140 917 l 196 917 l 528 122 l 554 46 l 556 46 l 582 121 l 914 917 l 969 917 z "},"N":{"ha":975,"x_min":140,"x_max":835,"o":"m 835 917 l 835 0 l 783 0 l 224 797 l 176 874 l 175 874 l 178 783 l 178 0 l 140 0 l 140 917 l 190 917 l 751 119 l 799 42 l 797 133 l 797 917 l 835 917 z "},"O":{"ha":1000,"x_min":81,"x_max":919,"o":"m 194 803 q 250 867 194 803 q 500 931 307 931 q 806 803 693 931 q 919 458 919 676 q 806 113 919 240 q 500 -14 693 -14 q 194 113 307 -14 q 81 458 81 240 q 194 803 81 676 m 777 778 q 726 837 777 778 q 500 896 675 896 q 223 778 325 896 q 121 458 121 660 q 223 139 121 257 q 500 21 325 21 q 777 139 675 21 q 879 458 879 257 q 777 778 879 660 z "},"P":{"ha":792,"x_min":140,"x_max":743,"o":"m 431 917 q 660 847 576 917 q 743 656 743 778 q 660 465 743 533 q 431 396 576 396 l 179 396 l 179 0 l 140 0 l 140 917 l 431 917 m 428 431 q 631 490 558 431 q 703 656 703 549 q 631 822 703 763 q 428 882 558 882 l 179 882 l 179 431 l 428 431 z "},"Q":{"ha":1000,"x_min":81,"x_max":919,"o":"m 744 -271 q 566 -203 638 -271 q 489 -14 494 -135 q 190 117 300 -10 q 81 458 81 244 q 194 803 81 676 q 500 931 307 931 q 806 803 693 931 q 919 458 919 676 q 813 121 919 247 q 524 -14 707 -6 q 589 -176 528 -119 q 744 -233 650 -233 q 893 -182 843 -233 l 908 -217 q 744 -271 850 -271 m 777 778 q 726 837 777 778 q 500 896 675 896 q 223 778 325 896 q 121 458 121 660 q 223 139 121 257 q 500 21 325 21 q 777 139 675 21 q 879 458 879 257 q 777 778 879 660 z "},"R":{"ha":863,"x_min":140,"x_max":811,"o":"m 475 917 q 690 849 611 917 q 768 664 768 782 q 707 496 768 561 q 538 415 646 431 l 811 0 l 767 0 l 493 411 l 475 411 l 469 410 l 179 410 l 179 0 l 140 0 l 140 917 l 475 917 m 475 446 q 663 503 596 446 q 729 664 729 560 q 663 824 729 767 q 475 882 596 882 l 179 882 l 179 446 l 475 446 z "},"S":{"ha":838,"x_min":58,"x_max":769,"o":"m 417 931 q 754 721 683 931 l 722 697 q 414 896 660 896 q 207 835 285 896 q 129 682 129 774 q 181 560 129 606 q 354 488 232 514 l 521 453 q 712 373 654 424 q 769 236 769 322 q 676 55 769 124 q 433 -14 583 -14 q 185 47 285 -14 q 58 222 86 107 l 94 247 q 207 78 115 136 q 435 21 299 21 q 647 77 564 21 q 731 233 731 133 q 679 346 731 303 q 510 414 628 389 l 340 451 q 147 533 206 479 q 89 679 89 588 q 178 857 89 783 q 417 931 268 931 z "},"T":{"ha":771,"x_min":21,"x_max":750,"o":"m 750 917 l 750 882 l 406 882 l 406 0 l 367 0 l 367 882 l 21 882 l 21 917 l 750 917 z "},"U":{"ha":933,"x_min":118,"x_max":815,"o":"m 815 917 l 815 329 q 724 75 815 164 q 467 -14 632 -14 q 210 75 301 -14 q 118 329 118 164 l 118 917 l 157 917 l 157 335 q 238 102 157 183 q 467 21 318 21 q 696 102 615 21 q 776 335 776 183 l 776 917 l 815 917 z "},"V":{"ha":819,"x_min":26,"x_max":792,"o":"m 792 917 l 433 0 l 385 0 l 26 917 l 68 917 l 368 151 l 410 39 l 451 151 l 751 917 l 792 917 z "},"W":{"ha":1276,"x_min":35,"x_max":1240,"o":"m 332 0 l 35 917 l 76 917 l 358 38 l 615 917 l 663 917 l 919 36 l 1201 917 l 1240 917 l 944 0 l 894 0 l 694 678 l 639 871 l 638 871 l 583 678 l 382 0 l 332 0 z "},"X":{"ha":750,"x_min":19,"x_max":722,"o":"m 722 0 l 676 0 l 375 439 l 68 0 l 19 0 l 353 474 l 49 917 l 96 917 l 376 507 l 663 917 l 711 917 l 400 472 l 722 0 z "},"Y":{"ha":726,"x_min":21,"x_max":706,"o":"m 706 917 l 383 356 l 383 0 l 344 0 l 344 356 l 21 917 l 67 917 l 246 603 l 364 397 l 481 603 l 660 917 l 706 917 z "},"Z":{"ha":788,"x_min":47,"x_max":746,"o":"m 746 35 l 746 0 l 47 0 l 47 35 l 675 882 l 58 882 l 58 917 l 719 917 l 719 882 l 93 35 l 746 35 z "},"[":{"ha":393,"x_min":108,"x_max":372,"o":"m 372 981 l 144 981 l 144 -199 l 372 -199 l 372 -233 l 108 -233 l 108 1014 l 372 1014 l 372 981 z "},"\\":{"ha":508,"x_min":49,"x_max":461,"o":"m 49 1014 l 86 1014 l 461 -97 l 422 -97 l 49 1014 z "},"]":{"ha":393,"x_min":21,"x_max":285,"o":"m 21 -199 l 249 -199 l 249 981 l 21 981 l 21 1014 l 285 1014 l 285 -233 l 21 -233 l 21 -199 z "},"^":{"ha":747,"x_min":49,"x_max":699,"o":"m 49 493 l 353 1014 l 394 1014 l 699 493 l 656 493 l 374 978 l 92 493 l 49 493 z "},"_":{"ha":704,"x_min":0,"x_max":704,"o":"m 704 -135 l 704 -169 l 0 -169 l 0 -135 l 704 -135 z "},"`":{"ha":751,"x_min":297,"x_max":456,"o":"m 340 1019 l 456 810 l 422 810 l 297 1019 l 340 1019 z "},"a":{"ha":731,"x_min":71,"x_max":724,"o":"m 560 464 q 505 619 560 563 q 350 675 450 675 q 111 517 168 675 l 81 538 q 351 708 143 708 q 533 646 468 708 q 599 468 599 583 l 599 114 q 675 22 599 22 q 724 33 706 22 l 721 1 q 667 -11 700 -11 q 560 119 560 -11 l 560 135 q 455 24 529 63 q 294 -14 381 -14 q 131 31 190 -14 q 71 160 71 76 q 271 346 71 307 l 560 403 l 560 464 m 111 163 q 160 58 111 94 q 300 21 208 21 q 417 42 360 21 q 517 113 474 63 q 560 235 560 164 l 560 369 l 293 317 q 111 163 111 282 z "},"b":{"ha":824,"x_min":121,"x_max":750,"o":"m 436 -14 q 260 41 335 -14 q 158 190 185 96 l 157 0 l 121 0 l 121 1014 l 160 1014 l 160 507 q 262 655 188 601 q 436 708 336 708 q 664 612 578 708 q 750 347 750 515 q 664 83 750 179 q 436 -14 578 -14 m 431 21 q 635 108 560 21 q 711 347 711 194 q 635 588 711 500 q 431 675 560 675 q 235 585 311 675 q 160 347 160 496 q 235 110 160 199 q 431 21 311 21 z "},"c":{"ha":738,"x_min":72,"x_max":678,"o":"m 396 708 q 572 659 500 708 q 671 519 644 610 l 636 501 q 550 630 613 585 q 394 675 488 675 q 190 586 269 675 q 111 347 111 497 q 189 108 111 196 q 392 21 267 21 q 558 70 488 21 q 642 203 628 119 l 678 190 q 577 42 656 97 q 392 -14 499 -14 q 161 83 250 -14 q 72 347 72 181 q 163 610 72 513 q 396 708 253 708 z "},"d":{"ha":824,"x_min":74,"x_max":703,"o":"m 392 -14 q 161 83 249 -14 q 74 347 74 179 q 162 612 74 515 q 393 708 250 708 q 565 655 493 708 q 664 506 638 601 l 664 1014 l 703 1014 l 703 0 l 667 0 l 665 194 q 566 41 640 96 q 392 -14 492 -14 m 396 21 q 590 110 515 21 q 664 349 664 199 q 590 586 664 497 q 397 675 515 675 q 190 588 267 675 q 113 347 113 500 q 190 108 113 196 q 396 21 267 21 z "},"e":{"ha":753,"x_min":72,"x_max":683,"o":"m 399 -14 q 164 83 256 -14 q 72 347 72 181 q 161 610 72 513 q 388 708 250 708 q 605 617 526 708 q 683 369 683 526 q 682 347 683 353 l 111 347 q 191 108 111 196 q 397 21 271 21 q 546 59 481 21 q 646 167 611 97 l 676 150 q 565 30 639 74 q 399 -14 492 -14 m 388 675 q 198 596 274 675 q 113 382 122 517 l 647 382 q 575 596 643 517 q 388 675 507 675 z "},"f":{"ha":464,"x_min":22,"x_max":463,"o":"m 453 694 l 453 661 l 200 661 l 200 0 l 161 0 l 161 661 l 22 661 l 22 694 l 161 694 l 161 810 q 212 965 161 908 q 354 1021 263 1021 q 463 981 425 1021 l 449 950 q 356 986 417 986 q 241 940 282 986 q 200 808 200 893 l 200 694 l 453 694 z "},"g":{"ha":699,"x_min":47,"x_max":699,"o":"m 463 58 q 628 16 567 58 q 689 -97 689 -26 q 599 -242 689 -186 q 368 -299 510 -299 q 133 -247 219 -299 q 47 -112 47 -196 q 89 -14 47 -56 q 201 42 131 28 q 103 160 103 74 q 138 245 103 211 q 231 286 174 279 q 83 488 83 342 q 160 648 83 588 q 360 708 236 708 q 526 669 456 708 q 574 781 532 739 q 683 822 617 822 l 688 822 l 699 788 l 693 788 q 593 751 629 788 q 553 651 557 715 q 635 488 635 589 q 559 327 635 388 q 360 267 483 267 q 283 272 315 267 q 181 242 221 269 q 140 165 140 214 q 181 86 140 114 q 285 58 221 58 l 463 58 m 360 675 q 188 624 253 675 q 122 488 122 572 q 188 351 122 403 q 360 299 253 299 q 530 351 465 299 q 594 488 594 403 q 530 624 594 572 q 360 675 465 675 m 371 -265 q 572 -219 493 -265 q 651 -101 651 -174 q 599 -9 651 -43 q 456 25 547 25 l 271 25 q 137 -12 189 25 q 85 -107 85 -49 q 162 -222 85 -178 q 371 -265 239 -265 z "},"h":{"ha":808,"x_min":121,"x_max":697,"o":"m 121 0 l 121 1014 l 160 1014 l 160 526 q 260 659 186 608 q 436 710 335 710 q 627 643 557 710 q 697 456 697 576 l 697 1 l 658 1 l 658 446 q 597 615 658 556 q 431 675 536 675 q 238 599 317 675 q 160 410 160 522 l 160 0 l 121 0 z "},"i":{"ha":279,"x_min":99,"x_max":181,"o":"m 140 831 q 99 871 99 831 q 110 900 99 889 q 140 911 122 911 q 169 900 158 911 q 181 871 181 889 q 169 842 181 853 q 140 831 158 831 m 160 694 l 160 0 l 121 0 l 121 694 l 160 694 z "},"j":{"ha":279,"x_min":-136,"x_max":181,"o":"m 140 831 q 99 871 99 831 q 110 900 99 889 q 140 911 122 911 q 169 900 158 911 q 181 871 181 889 q 169 842 181 853 q 140 831 158 831 m 160 694 l 160 -86 q 107 -242 160 -186 q -29 -299 54 -299 q -136 -265 -96 -299 l -125 -229 q -29 -262 -92 -262 q 80 -215 39 -262 q 121 -83 121 -167 l 121 694 l 160 694 z "},"k":{"ha":692,"x_min":121,"x_max":672,"o":"m 664 694 l 364 413 l 672 0 l 624 0 l 335 386 l 160 219 l 160 0 l 121 0 l 121 1014 l 160 1014 l 160 271 l 610 694 l 664 694 z "},"l":{"ha":347,"x_min":115,"x_max":335,"o":"m 154 1014 l 154 154 q 178 52 154 83 q 251 21 201 21 q 335 38 300 21 l 331 3 q 246 -14 297 -14 q 115 153 115 -14 l 115 1014 l 154 1014 z "},"m":{"ha":1340,"x_min":121,"x_max":1229,"o":"m 121 0 l 121 694 l 157 694 l 158 524 q 260 657 185 606 q 435 708 335 708 q 603 658 536 708 q 686 515 669 607 q 788 656 710 601 q 969 711 867 711 q 1158 644 1088 711 q 1229 457 1229 578 l 1229 3 l 1190 3 l 1190 453 q 1129 618 1190 560 q 964 676 1068 676 q 772 600 850 676 q 694 414 694 524 l 694 0 l 656 0 l 656 450 q 594 616 656 557 q 429 675 533 675 q 238 598 317 675 q 160 410 160 521 l 160 0 l 121 0 z "},"n":{"ha":808,"x_min":121,"x_max":697,"o":"m 121 0 l 121 694 l 157 694 l 158 528 q 261 659 186 610 q 436 708 336 708 q 627 642 557 708 q 697 454 697 575 l 697 0 l 658 0 l 658 444 q 597 615 658 556 q 431 675 536 675 q 238 598 317 675 q 160 408 160 521 l 160 0 l 121 0 z "},"o":{"ha":799,"x_min":72,"x_max":726,"o":"m 400 708 q 636 611 546 708 q 726 347 726 514 q 636 83 726 181 q 400 -14 546 -14 q 163 83 253 -14 q 72 347 72 181 q 163 611 72 514 q 400 708 253 708 m 608 587 q 569 631 608 587 q 400 675 529 675 q 191 587 271 675 q 111 347 111 499 q 191 108 111 196 q 400 19 271 19 q 608 108 529 19 q 688 347 688 196 q 608 587 688 499 z "},"p":{"ha":824,"x_min":121,"x_max":750,"o":"m 121 -292 l 121 694 l 157 694 l 158 504 q 260 653 185 599 q 436 708 335 708 q 664 612 578 708 q 750 347 750 515 q 664 83 750 179 q 436 -14 578 -14 q 261 40 335 -14 q 160 188 188 93 l 160 -292 l 121 -292 m 431 21 q 635 108 560 21 q 711 347 711 194 q 635 588 711 500 q 431 675 560 675 q 236 585 313 675 q 160 347 160 496 q 235 110 160 199 q 431 21 311 21 z "},"q":{"ha":824,"x_min":74,"x_max":703,"o":"m 664 -292 l 664 189 q 564 40 638 93 q 392 -14 490 -14 q 161 83 249 -14 q 74 347 74 179 q 162 612 74 515 q 393 708 250 708 q 566 654 493 708 q 665 504 639 600 l 667 694 l 703 694 l 703 -292 l 664 -292 m 396 21 q 590 110 515 21 q 664 349 664 199 q 590 586 664 497 q 397 675 515 675 q 190 588 267 675 q 113 347 113 500 q 190 108 113 196 q 396 21 267 21 z "},"r":{"ha":493,"x_min":121,"x_max":479,"o":"m 121 0 l 121 694 l 156 694 l 158 526 q 244 658 183 607 q 385 708 304 708 q 479 679 447 708 l 465 646 q 378 674 435 674 q 224 592 288 674 q 160 399 160 510 l 160 0 l 121 0 z "},"s":{"ha":678,"x_min":53,"x_max":611,"o":"m 342 -14 q 155 29 232 -14 q 53 154 78 72 l 88 175 q 176 60 108 100 q 347 21 244 21 q 511 63 450 21 q 572 175 572 104 q 539 259 572 226 q 425 308 506 292 l 265 343 q 85 515 85 382 q 158 653 85 597 q 344 708 232 708 q 606 539 561 708 l 572 518 q 344 675 536 675 q 186 631 249 675 q 124 521 124 588 q 269 381 124 414 l 433 344 q 570 283 529 324 q 611 178 611 242 q 538 38 611 89 q 342 -14 465 -14 z "},"t":{"ha":481,"x_min":21,"x_max":474,"o":"m 464 694 l 464 661 l 199 661 l 199 178 q 335 21 199 21 q 457 72 410 21 l 474 40 q 332 -14 419 -14 q 160 175 160 -14 l 160 661 l 21 661 l 21 694 l 160 694 l 160 872 l 199 883 l 199 694 l 464 694 z "},"u":{"ha":797,"x_min":113,"x_max":676,"o":"m 358 -14 q 178 50 243 -14 q 113 233 113 114 l 113 694 l 151 694 l 151 242 q 207 77 151 133 q 367 21 263 21 q 565 102 493 21 q 638 281 638 183 l 638 694 l 676 694 l 676 0 l 640 0 l 639 169 q 538 36 613 86 q 358 -14 463 -14 z "},"v":{"ha":678,"x_min":28,"x_max":650,"o":"m 608 694 l 650 694 l 360 0 l 319 0 l 28 694 l 72 694 l 340 43 l 608 694 z "},"w":{"ha":1097,"x_min":40,"x_max":1057,"o":"m 1015 694 l 1057 694 l 825 0 l 786 0 l 549 642 l 311 0 l 272 0 l 40 694 l 82 694 l 292 50 l 528 694 l 568 694 l 804 50 l 1015 694 z "},"x":{"ha":671,"x_min":29,"x_max":651,"o":"m 93 694 l 336 392 l 569 694 l 618 694 l 360 363 l 651 0 l 599 0 l 333 329 l 78 0 l 29 0 l 310 360 l 40 694 l 93 694 z "},"y":{"ha":678,"x_min":-4,"x_max":649,"o":"m 649 694 l 307 -136 q 226 -262 271 -226 q 114 -299 182 -299 q -4 -253 31 -299 l 11 -221 q 114 -264 43 -264 q 204 -234 167 -264 q 272 -128 242 -204 l 325 -1 l 249 176 l 29 694 l 74 694 l 315 113 l 343 43 l 372 117 l 607 694 l 649 694 z "},"z":{"ha":672,"x_min":50,"x_max":626,"o":"m 58 0 l 58 32 l 500 589 l 563 661 l 50 661 l 50 694 l 607 694 l 607 663 l 186 128 l 106 33 l 626 33 l 626 0 l 58 0 z "},"{":{"ha":383,"x_min":17,"x_max":349,"o":"m 349 -242 q 219 -199 265 -242 q 174 -82 174 -157 l 174 246 q 133 345 174 311 q 17 379 93 379 l 17 413 q 174 544 174 413 l 174 872 q 219 989 174 947 q 349 1031 265 1031 l 349 999 q 247 965 283 999 q 211 874 211 932 l 211 543 q 94 396 211 426 q 181 342 150 381 q 211 247 211 304 l 211 -83 q 247 -176 211 -143 q 349 -208 283 -208 l 349 -242 z "},"|":{"ha":251,"x_min":108,"x_max":143,"o":"m 143 1014 l 143 -233 l 108 -233 l 108 1014 l 143 1014 z "},"}":{"ha":383,"x_min":35,"x_max":368,"o":"m 35 1031 q 165 989 119 1031 q 210 872 210 947 l 210 544 q 251 446 210 481 q 368 411 292 411 l 368 378 q 251 343 292 378 q 210 244 210 308 l 210 -82 q 165 -200 210 -158 q 35 -242 119 -242 l 35 -208 q 136 -176 100 -208 q 172 -83 172 -143 l 172 246 q 203 341 172 303 q 290 393 233 379 q 172 542 172 426 l 172 874 q 136 965 172 932 q 35 999 100 999 l 35 1031 z "},"~":{"ha":681,"x_min":60,"x_max":621,"o":"m 621 546 q 481 401 604 401 q 335 453 417 401 q 203 504 254 504 q 97 394 117 504 l 60 394 q 201 539 79 539 q 347 488 265 539 q 478 436 428 436 q 583 546 564 436 l 621 546 z "}," ":{"ha":406,"x_min":0,"x_max":0,"o":""},"¡":{"ha":265,"x_min":90,"x_max":175,"o":"m 132 619 q 102 631 114 619 q 90 661 90 643 q 102 691 90 679 q 132 703 114 703 q 163 691 151 703 q 175 661 175 679 q 163 631 175 643 q 132 619 151 619 m 113 -222 l 113 257 l 115 449 l 150 449 l 153 257 l 153 -222 l 113 -222 z "},"¢":{"ha":754,"x_min":81,"x_max":685,"o":"m 375 -139 l 375 -12 q 158 90 236 -6 q 81 347 81 186 q 159 602 81 507 q 375 707 238 697 l 375 833 l 408 833 l 408 708 q 582 658 511 707 q 679 519 653 608 l 643 501 q 559 630 621 585 q 408 675 497 675 l 408 19 q 568 72 500 22 q 650 203 636 121 l 685 190 q 587 42 664 97 q 408 -14 510 -14 l 408 -139 l 375 -139 m 118 347 q 185 114 118 200 q 375 19 253 28 l 375 675 q 186 579 254 665 q 118 347 118 493 z "},"£":{"ha":808,"x_min":58,"x_max":758,"o":"m 192 -7 q 94 19 129 -7 q 58 90 58 46 q 96 163 58 135 q 193 190 133 190 q 350 138 278 190 q 358 206 358 169 q 293 414 358 293 l 126 414 l 126 447 l 274 447 q 215 570 231 522 q 199 675 199 618 q 274 860 199 790 q 469 931 349 931 q 639 876 574 931 q 717 726 704 822 l 682 710 q 615 845 671 794 q 469 896 558 896 q 299 836 363 896 q 236 675 236 776 q 252 579 236 624 q 311 454 268 535 q 314 447 311 453 l 626 447 l 626 414 l 332 414 q 392 210 392 292 q 376 118 392 161 q 395 103 379 117 q 415 88 411 90 q 433 74 418 85 q 455 60 449 64 q 476 49 461 57 q 500 39 490 42 q 524 32 510 36 q 553 26 539 28 q 585 25 568 25 q 725 176 722 25 l 758 176 q 712 39 758 85 q 588 -7 665 -7 q 493 10 539 -7 q 427 41 447 28 q 364 88 407 54 q 192 -7 311 -7 m 122 140 q 108 131 122 140 q 94 90 94 121 q 122 41 94 60 q 194 22 149 22 q 339 106 300 22 q 192 160 265 160 q 122 140 149 160 z "},"¤":{"ha":853,"x_min":89,"x_max":764,"o":"m 115 796 l 251 660 q 426 722 318 722 q 601 660 532 722 l 739 796 l 764 771 l 626 631 q 679 461 679 565 q 624 286 679 354 l 764 146 l 739 119 l 599 260 q 426 197 532 197 q 254 260 321 197 l 115 119 l 89 147 l 228 286 q 172 461 172 357 q 225 632 172 564 l 89 769 l 115 796 m 426 688 q 269 626 328 688 q 211 461 211 564 q 270 294 211 357 q 426 232 329 232 q 582 294 524 232 q 640 461 640 357 q 582 626 640 564 q 426 688 524 688 z "},"¥":{"ha":803,"x_min":58,"x_max":744,"o":"m 383 0 l 383 178 l 100 178 l 100 208 l 383 208 l 383 350 l 100 350 l 100 382 l 318 382 l 371 381 l 58 917 l 104 917 l 372 444 l 400 390 l 403 390 l 431 444 l 699 917 l 744 917 l 431 381 l 485 382 l 703 382 l 703 350 l 419 350 l 419 208 l 703 208 l 703 178 l 419 178 l 419 0 l 383 0 z "},"¦":{"ha":251,"x_min":108,"x_max":143,"o":"m 143 1014 l 143 507 l 108 507 l 108 1014 l 143 1014 m 143 274 l 143 -233 l 108 -233 l 108 274 l 143 274 z "},"§":{"ha":761,"x_min":64,"x_max":715,"o":"m 381 -153 q 125 -31 178 -153 l 156 -7 q 382 -119 197 -119 q 546 -74 486 -119 q 606 44 606 -28 q 563 146 606 110 q 428 199 519 182 l 292 225 q 114 292 164 251 q 64 408 64 333 q 112 517 64 474 q 239 578 160 561 q 160 640 185 603 q 136 732 136 676 q 206 874 136 817 q 396 931 275 931 q 649 808 594 931 l 618 786 q 396 897 575 897 q 233 852 292 897 q 175 735 175 807 q 215 633 175 668 q 363 576 256 599 l 506 547 q 666 484 617 525 q 715 371 715 443 q 669 263 715 307 q 544 200 622 218 q 643 47 643 153 q 573 -96 643 -39 q 381 -153 503 -153 m 438 233 q 507 215 468 228 q 629 269 581 231 q 678 367 678 307 q 638 459 678 426 q 501 511 599 492 l 357 542 q 275 564 307 553 q 151 511 200 549 q 101 413 101 474 q 145 317 101 351 q 303 261 189 283 l 438 233 z "},"¨":{"ha":751,"x_min":207,"x_max":544,"o":"m 246 906 q 275 895 264 906 q 286 867 286 885 q 275 838 286 849 q 246 826 264 826 q 217 838 228 826 q 207 867 207 849 q 246 906 207 906 m 504 906 q 533 895 522 906 q 544 867 544 885 q 533 838 544 849 q 504 826 522 826 q 476 838 486 826 q 465 867 465 849 q 504 906 465 906 z "},"©":{"ha":1099,"x_min":86,"x_max":1013,"o":"m 883 120 q 819 53 883 120 q 549 -14 754 -14 q 215 120 343 -14 q 86 458 86 254 q 215 797 86 663 q 549 931 343 931 q 883 797 754 931 q 1013 458 1013 663 q 883 120 1013 254 m 241 144 q 300 82 241 144 q 549 19 360 19 q 857 144 738 19 q 976 458 976 269 q 857 772 976 647 q 549 897 738 897 q 241 772 360 897 q 122 458 122 647 q 241 144 122 269 m 564 199 q 378 267 446 199 q 311 456 311 335 q 378 644 311 576 q 564 713 446 713 q 774 575 725 713 l 743 560 q 563 681 703 681 q 404 621 461 681 q 347 456 347 561 q 404 290 347 350 q 563 231 461 231 q 683 266 632 231 q 749 363 733 301 l 781 350 q 702 240 760 281 q 564 199 644 199 z "},"ª":{"ha":524,"x_min":65,"x_max":503,"o":"m 207 453 q 104 485 143 453 q 65 571 65 517 q 100 656 65 625 q 211 700 135 686 l 388 731 l 388 769 q 353 861 388 828 q 254 894 318 894 q 96 796 132 894 l 68 810 q 135 894 86 864 q 254 924 183 924 q 378 885 333 924 q 422 772 422 846 l 422 539 q 468 482 422 482 q 503 489 489 482 l 501 463 q 461 453 482 453 q 389 539 389 453 l 389 553 q 315 478 367 503 q 207 453 264 453 m 100 571 q 129 507 100 531 q 210 483 158 483 q 332 519 276 483 q 388 631 388 556 l 388 703 l 225 674 q 129 638 158 663 q 100 571 100 613 m 65 304 l 65 333 l 483 333 l 483 304 l 65 304 z "},"«":{"ha":556,"x_min":65,"x_max":486,"o":"m 307 640 l 110 368 l 307 96 l 261 96 l 65 368 l 261 640 l 307 640 m 486 640 l 289 368 l 486 96 l 440 96 l 244 368 l 440 640 l 486 640 z "},"¬":{"ha":839,"x_min":103,"x_max":736,"o":"m 736 457 l 736 233 l 697 233 l 697 421 l 103 421 l 103 457 l 736 457 z "},"­":{"ha":603,"x_min":100,"x_max":503,"o":"m 503 393 l 503 353 l 100 353 l 100 393 l 503 393 z "},"®":{"ha":1099,"x_min":86,"x_max":1013,"o":"m 883 120 q 819 53 883 120 q 549 -14 754 -14 q 215 120 343 -14 q 86 458 86 254 q 215 797 86 663 q 549 931 343 931 q 883 797 754 931 q 1013 458 1013 663 q 883 120 1013 254 m 241 144 q 300 82 241 144 q 549 19 360 19 q 857 144 738 19 q 976 458 976 269 q 857 772 976 647 q 549 897 738 897 q 241 772 360 897 q 122 458 122 647 q 241 144 122 269 m 381 199 l 381 713 l 594 713 q 765 568 765 713 q 626 425 765 438 l 775 199 l 735 199 l 589 424 l 415 424 l 415 199 l 381 199 m 415 451 l 594 451 q 732 568 732 451 q 594 683 732 683 l 415 683 l 415 451 z "},"¯":{"ha":751,"x_min":171,"x_max":581,"o":"m 581 871 l 581 838 l 171 838 l 171 871 l 581 871 z "},"°":{"ha":538,"x_min":74,"x_max":464,"o":"m 410 594 q 383 567 410 594 q 268 540 356 540 q 127 594 181 540 q 74 735 74 649 q 127 876 74 822 q 268 931 181 931 q 410 876 356 931 q 464 735 464 822 q 410 594 464 647 m 268 572 q 384 617 340 572 q 428 735 428 663 q 384 852 428 807 q 268 897 340 897 q 153 852 197 897 q 110 735 110 807 q 153 617 110 663 q 268 572 197 572 z "},"±":{"ha":839,"x_min":103,"x_max":736,"o":"m 736 535 l 736 500 l 439 500 l 439 160 l 401 160 l 401 500 l 103 500 l 103 535 l 401 535 l 401 868 l 439 868 l 439 535 l 736 535 m 736 35 l 736 0 l 103 0 l 103 35 l 736 35 z "},"²":{"ha":489,"x_min":53,"x_max":435,"o":"m 64 463 l 64 492 q 215 619 157 569 q 378 854 378 753 q 340 953 378 917 q 238 990 303 990 q 129 949 169 990 q 86 839 89 908 l 53 849 q 108 974 60 926 q 238 1021 157 1021 q 367 975 319 1021 q 415 854 415 929 q 239 599 415 740 q 176 546 218 581 q 111 494 133 511 l 111 493 l 158 493 l 435 493 l 435 463 l 64 463 z "},"³":{"ha":463,"x_min":33,"x_max":399,"o":"m 218 1021 q 340 980 296 1021 q 385 874 385 939 q 282 742 385 769 l 282 739 q 366 697 333 733 q 399 608 399 661 q 348 497 399 539 q 218 454 297 454 q 33 582 71 454 l 65 599 q 219 485 90 485 q 322 518 283 485 q 361 610 361 551 q 215 726 361 726 q 192 725 201 726 l 192 754 q 217 753 203 753 q 311 785 275 753 q 347 871 347 817 q 313 958 347 926 q 219 990 279 990 q 128 964 164 990 q 83 892 93 938 l 50 906 q 110 990 65 958 q 218 1021 156 1021 z "},"´":{"ha":833,"x_min":338,"x_max":497,"o":"m 454 1019 l 497 1019 l 372 810 l 338 810 l 454 1019 z "},"µ":{"ha":806,"x_min":121,"x_max":685,"o":"m 121 -292 l 121 694 l 160 694 l 160 242 q 218 78 160 136 q 375 21 276 21 q 568 97 490 21 q 646 286 646 172 l 646 694 l 685 694 l 685 0 l 650 0 l 649 171 q 547 38 622 89 q 371 -14 471 -14 q 242 20 297 -14 q 160 117 186 54 l 160 -292 l 121 -292 z "},"¶":{"ha":753,"x_min":44,"x_max":639,"o":"m 375 -139 l 375 336 q 135 416 226 336 q 44 626 44 496 q 135 838 44 758 q 375 917 225 917 l 639 917 l 639 -139 l 601 -139 l 601 883 l 411 883 l 411 -139 l 375 -139 m 375 369 l 375 883 q 162 813 242 883 q 82 626 82 743 q 162 440 82 510 q 375 369 242 369 z "},"·":{"ha":275,"x_min":96,"x_max":179,"o":"m 108 528 q 114 534 108 528 q 138 540 119 540 q 167 528 156 540 q 179 499 179 517 q 167 469 179 481 q 138 457 156 457 q 108 469 119 457 q 96 499 96 481 q 108 528 96 517 z "},"¸":{"ha":807,"x_min":272,"x_max":535,"o":"m 368 4 l 403 11 q 535 -154 535 -49 q 499 -248 535 -212 q 404 -283 463 -283 q 272 -229 322 -283 l 288 -200 q 401 -253 335 -253 q 473 -226 446 -253 q 500 -151 500 -199 q 471 -72 500 -107 q 368 4 442 -36 z "},"¹":{"ha":304,"x_min":26,"x_max":214,"o":"m 183 1014 l 214 1014 l 214 463 l 178 463 l 178 878 q 181 969 178 908 q 26 869 131 908 l 26 900 q 115 945 68 913 q 183 1014 163 978 z "},"º":{"ha":504,"x_min":54,"x_max":450,"o":"m 253 454 q 54 689 54 454 q 253 924 54 924 q 450 689 450 924 q 253 454 450 454 m 130 535 q 150 510 130 535 q 253 485 169 485 q 375 535 336 485 q 414 689 414 585 q 375 844 414 793 q 253 894 336 894 q 90 689 90 894 q 130 535 90 585 m 65 304 l 65 333 l 440 333 l 440 304 l 65 304 z "},"»":{"ha":556,"x_min":69,"x_max":490,"o":"m 249 96 l 446 368 l 249 640 l 296 640 l 490 368 l 296 96 l 249 96 m 69 96 l 267 368 l 69 640 l 117 640 l 311 368 l 117 96 l 69 96 z "},"¼":{"ha":967,"x_min":26,"x_max":929,"o":"m 183 924 l 214 924 l 214 372 l 178 372 l 178 788 q 181 879 178 818 q 26 779 131 818 l 26 810 q 115 855 68 822 q 183 924 163 888 m 106 0 l 754 917 l 796 917 l 147 0 l 106 0 m 929 185 l 929 156 l 819 156 l 819 -6 l 786 -6 l 786 156 l 511 156 l 511 181 l 775 546 l 819 546 l 819 185 l 929 185 m 547 185 l 786 185 l 786 446 l 786 513 l 785 513 q 760 476 776 500 q 740 447 744 453 l 547 185 z "},"½":{"ha":1086,"x_min":26,"x_max":1032,"o":"m 183 924 l 214 924 l 214 372 l 178 372 l 178 788 q 181 879 178 818 q 26 779 131 818 l 26 810 q 115 855 68 822 q 183 924 163 888 m 106 0 l 754 917 l 796 917 l 147 0 l 106 0 m 660 -6 l 660 24 q 813 151 735 85 q 975 386 975 285 q 937 485 975 449 q 833 522 899 522 q 726 482 767 522 q 683 371 686 442 l 650 381 q 705 506 656 458 q 835 553 754 553 q 964 507 917 553 q 1011 386 1011 461 q 836 131 1011 272 q 773 79 815 114 q 708 26 731 44 l 708 25 l 754 25 l 1032 25 l 1032 -6 l 660 -6 z "},"¾":{"ha":1125,"x_min":33,"x_max":1086,"o":"m 218 931 q 340 890 296 931 q 385 783 385 849 q 282 651 385 679 l 282 649 q 366 607 333 643 q 399 518 399 571 q 348 406 399 449 q 218 364 297 364 q 33 492 71 364 l 65 508 q 219 394 90 394 q 322 428 283 394 q 361 519 361 461 q 215 636 361 636 q 192 635 201 636 l 192 664 q 217 663 203 663 q 311 694 275 663 q 347 781 347 726 q 313 868 347 836 q 219 900 279 900 q 128 874 164 900 q 83 801 93 847 l 50 815 q 110 899 65 868 q 218 931 156 931 m 263 0 l 913 917 l 954 917 l 306 0 l 263 0 m 1086 185 l 1086 156 l 976 156 l 976 -6 l 943 -6 l 943 156 l 668 156 l 668 181 l 932 546 l 976 546 l 976 185 l 1086 185 m 706 185 l 943 185 l 943 446 q 944 513 943 490 l 942 513 q 897 447 928 492 l 706 185 z "},"¿":{"ha":669,"x_min":57,"x_max":628,"o":"m 378 625 q 373 619 378 625 q 349 614 367 614 q 319 625 331 614 q 307 656 307 636 q 319 686 307 675 q 349 697 331 697 q 378 686 367 697 q 390 656 390 675 q 378 625 390 636 m 335 -242 q 133 -171 208 -242 q 57 13 57 -100 q 122 190 57 128 q 329 290 186 253 l 329 465 l 368 465 l 368 268 q 153 172 211 225 q 96 15 96 119 q 160 -144 96 -82 q 336 -207 225 -207 q 593 11 564 -207 l 628 -7 q 534 -180 608 -118 q 335 -242 460 -242 z "},"À":{"ha":833,"x_min":21,"x_max":813,"o":"m 332 1240 l 435 1032 l 401 1032 l 290 1240 l 332 1240 m 813 0 l 772 0 l 644 311 l 189 311 l 61 0 l 21 0 l 394 917 l 439 917 l 813 0 m 203 347 l 629 347 l 417 876 l 203 347 z "},"Á":{"ha":833,"x_min":21,"x_max":813,"o":"m 500 1240 l 543 1240 l 432 1032 l 399 1032 l 500 1240 m 813 0 l 772 0 l 644 311 l 189 311 l 61 0 l 21 0 l 394 917 l 439 917 l 813 0 m 203 347 l 629 347 l 417 876 l 203 347 z "},"Â":{"ha":833,"x_min":21,"x_max":813,"o":"m 592 1032 l 553 1032 l 417 1206 l 281 1032 l 242 1032 l 394 1233 l 439 1233 l 592 1032 m 813 0 l 772 0 l 644 311 l 189 311 l 61 0 l 21 0 l 394 917 l 439 917 l 813 0 m 203 347 l 629 347 l 417 876 l 203 347 z "},"Ã":{"ha":833,"x_min":21,"x_max":813,"o":"m 643 1179 q 519 1050 622 1050 q 410 1098 468 1050 q 318 1146 353 1146 q 225 1049 247 1146 l 192 1049 q 319 1178 214 1178 q 426 1131 368 1178 q 519 1083 485 1083 q 578 1107 557 1083 q 610 1179 599 1131 l 643 1179 m 813 0 l 772 0 l 644 311 l 189 311 l 61 0 l 21 0 l 394 917 l 439 917 l 813 0 m 203 347 l 629 347 l 417 876 l 203 347 z "},"Ä":{"ha":833,"x_min":21,"x_max":813,"o":"m 286 1128 q 315 1117 304 1128 q 326 1089 326 1107 q 315 1060 326 1071 q 286 1049 304 1049 q 258 1060 268 1049 q 247 1089 247 1071 q 286 1128 247 1128 m 544 1128 q 574 1117 563 1128 q 585 1089 585 1107 q 574 1060 585 1071 q 544 1049 563 1049 q 516 1060 526 1049 q 506 1089 506 1071 q 544 1128 506 1128 m 813 0 l 772 0 l 644 311 l 189 311 l 61 0 l 21 0 l 394 917 l 439 917 l 813 0 m 203 347 l 629 347 l 417 876 l 203 347 z "},"Å":{"ha":833,"x_min":21,"x_max":813,"o":"m 813 0 l 772 0 l 644 311 l 189 311 l 61 0 l 21 0 l 383 892 q 315 933 342 900 q 289 1010 289 965 q 324 1096 289 1061 q 414 1131 360 1131 q 503 1096 468 1131 q 539 1010 539 1061 q 514 935 539 967 q 449 892 489 903 l 813 0 m 480 1075 q 466 1088 480 1075 q 414 1101 453 1101 q 348 1075 375 1101 q 321 1010 321 1049 q 348 943 321 969 q 414 917 375 917 q 480 943 453 917 q 507 1010 507 969 q 480 1075 507 1049 m 203 347 l 629 347 l 417 876 l 203 347 z "},"Æ":{"ha":1247,"x_min":-7,"x_max":1200,"o":"m 650 35 l 1200 35 l 1200 0 l 611 0 l 611 342 l 253 342 l 40 0 l -7 0 l 567 917 l 1178 917 l 1178 882 l 650 882 l 650 483 l 1069 483 l 1069 447 l 650 447 l 650 35 m 274 378 l 611 378 l 611 882 l 586 882 l 274 378 z "},"Ç":{"ha":911,"x_min":81,"x_max":856,"o":"m 856 231 q 729 53 821 117 q 506 -14 638 -11 q 592 -154 592 -68 q 556 -248 592 -212 q 461 -283 519 -283 q 329 -229 379 -283 l 343 -200 q 458 -253 392 -253 q 530 -226 503 -253 q 557 -151 557 -199 q 534 -79 557 -111 q 454 -12 511 -47 q 182 128 283 1 q 81 458 81 254 q 192 803 81 675 q 490 931 304 931 q 846 694 775 931 l 808 676 q 492 896 742 896 q 222 778 324 896 q 121 458 121 660 q 222 139 121 257 q 492 21 324 21 q 701 79 615 21 q 817 244 786 138 l 856 231 z "},"È":{"ha":824,"x_min":140,"x_max":776,"o":"m 365 1240 l 467 1032 l 433 1032 l 322 1240 l 365 1240 m 140 0 l 140 917 l 754 917 l 754 882 l 179 882 l 179 485 l 638 485 l 638 450 l 179 450 l 179 35 l 776 35 l 776 0 l 140 0 z "},"É":{"ha":824,"x_min":140,"x_max":776,"o":"m 531 1240 l 572 1240 l 463 1032 l 428 1032 l 531 1240 m 140 0 l 140 917 l 754 917 l 754 882 l 179 882 l 179 485 l 638 485 l 638 450 l 179 450 l 179 35 l 776 35 l 776 0 l 140 0 z "},"Ê":{"ha":824,"x_min":140,"x_max":776,"o":"m 622 1032 l 583 1032 l 447 1206 l 311 1032 l 274 1032 l 425 1233 l 471 1233 l 622 1032 m 140 0 l 140 917 l 754 917 l 754 882 l 179 882 l 179 485 l 638 485 l 638 450 l 179 450 l 179 35 l 776 35 l 776 0 l 140 0 z "},"Ë":{"ha":824,"x_min":140,"x_max":776,"o":"m 317 1128 q 346 1117 335 1128 q 357 1089 357 1107 q 346 1060 357 1071 q 317 1049 335 1049 q 288 1060 299 1049 q 278 1089 278 1071 q 317 1128 278 1128 m 575 1128 q 604 1117 593 1128 q 615 1089 615 1107 q 604 1060 615 1071 q 575 1049 593 1049 q 547 1060 557 1049 q 536 1089 536 1071 q 575 1128 536 1128 m 140 0 l 140 917 l 754 917 l 754 882 l 179 882 l 179 485 l 638 485 l 638 450 l 179 450 l 179 35 l 776 35 l 776 0 l 140 0 z "},"Ì":{"ha":318,"x_min":32,"x_max":179,"o":"m 74 1240 l 176 1032 l 142 1032 l 32 1240 l 74 1240 m 179 917 l 179 0 l 140 0 l 140 917 l 179 917 z "},"Í":{"ha":318,"x_min":140,"x_max":288,"o":"m 246 1240 l 288 1240 l 178 1032 l 144 1032 l 246 1240 m 179 917 l 179 0 l 140 0 l 140 917 l 179 917 z "},"Î":{"ha":318,"x_min":-15,"x_max":333,"o":"m 333 1032 l 296 1032 l 160 1206 l 24 1032 l -15 1032 l 136 1233 l 182 1233 l 333 1032 m 179 917 l 179 0 l 140 0 l 140 917 l 179 917 z "},"Ï":{"ha":318,"x_min":31,"x_max":288,"o":"m 71 1128 q 110 1089 110 1128 q 99 1060 110 1071 q 71 1049 89 1049 q 42 1060 53 1049 q 31 1089 31 1071 q 42 1117 31 1107 q 71 1128 53 1128 m 249 1128 q 288 1089 288 1128 q 277 1060 288 1071 q 249 1049 267 1049 q 219 1060 231 1049 q 208 1089 208 1071 q 219 1117 208 1107 q 249 1128 231 1128 m 179 917 l 179 0 l 140 0 l 140 917 l 179 917 z "},"Ð":{"ha":972,"x_min":13,"x_max":890,"o":"m 13 446 l 13 482 l 153 482 l 153 917 l 438 917 q 775 803 660 917 q 890 469 890 689 q 775 119 890 239 q 438 0 660 0 l 153 0 l 153 446 l 13 446 m 440 35 q 747 146 642 35 q 851 469 851 257 q 747 776 851 671 q 440 882 642 882 l 192 882 l 192 482 l 476 482 l 476 446 l 192 446 l 192 35 l 440 35 z "},"Ñ":{"ha":975,"x_min":140,"x_max":835,"o":"m 721 1179 q 599 1050 700 1050 q 522 1074 557 1050 q 458 1122 488 1097 q 397 1146 428 1146 q 304 1049 324 1146 l 271 1049 q 399 1178 292 1178 q 504 1131 446 1178 q 599 1083 563 1083 q 688 1179 668 1083 l 721 1179 m 835 917 l 835 0 l 783 0 l 224 797 l 176 874 l 175 874 l 178 783 l 178 0 l 140 0 l 140 917 l 190 917 l 751 119 l 799 42 l 797 133 l 797 917 l 835 917 z "},"Ò":{"ha":1000,"x_min":81,"x_max":919,"o":"m 415 1240 l 517 1032 l 483 1032 l 372 1240 l 415 1240 m 194 803 q 250 867 194 803 q 500 931 307 931 q 806 803 693 931 q 919 458 919 676 q 806 113 919 240 q 500 -14 693 -14 q 194 113 307 -14 q 81 458 81 240 q 194 803 81 676 m 777 778 q 726 837 777 778 q 500 896 675 896 q 223 778 325 896 q 121 458 121 660 q 223 139 121 257 q 500 21 325 21 q 777 139 675 21 q 879 458 879 257 q 777 778 879 660 z "},"Ó":{"ha":1000,"x_min":81,"x_max":919,"o":"m 585 1240 l 626 1240 l 515 1032 l 482 1032 l 585 1240 m 194 803 q 250 867 194 803 q 500 931 307 931 q 806 803 693 931 q 919 458 919 676 q 806 113 919 240 q 500 -14 693 -14 q 194 113 307 -14 q 81 458 81 240 q 194 803 81 676 m 777 778 q 726 837 777 778 q 500 896 675 896 q 223 778 325 896 q 121 458 121 660 q 223 139 121 257 q 500 21 325 21 q 777 139 675 21 q 879 458 879 257 q 777 778 879 660 z "},"Ô":{"ha":1000,"x_min":81,"x_max":919,"o":"m 675 1032 l 636 1032 l 500 1206 l 364 1032 l 326 1032 l 478 1233 l 524 1233 l 675 1032 m 194 803 q 250 867 194 803 q 500 931 307 931 q 806 803 693 931 q 919 458 919 676 q 806 113 919 240 q 500 -14 693 -14 q 194 113 307 -14 q 81 458 81 240 q 194 803 81 676 m 777 778 q 726 837 777 778 q 500 896 675 896 q 223 778 325 896 q 121 458 121 660 q 223 139 121 257 q 500 21 325 21 q 777 139 675 21 q 879 458 879 257 q 777 778 879 660 z "},"Õ":{"ha":1000,"x_min":81,"x_max":919,"o":"m 726 1179 q 604 1050 706 1050 q 494 1098 553 1050 q 401 1146 436 1146 q 310 1049 329 1146 l 276 1049 q 403 1178 297 1178 q 510 1131 451 1178 q 604 1083 568 1083 q 693 1179 674 1083 l 726 1179 m 194 803 q 250 867 194 803 q 500 931 307 931 q 806 803 693 931 q 919 458 919 676 q 806 113 919 240 q 500 -14 693 -14 q 194 113 307 -14 q 81 458 81 240 q 194 803 81 676 m 777 778 q 726 837 777 778 q 500 896 675 896 q 223 778 325 896 q 121 458 121 660 q 223 139 121 257 q 500 21 325 21 q 777 139 675 21 q 879 458 879 257 q 777 778 879 660 z "},"Ö":{"ha":1000,"x_min":81,"x_max":919,"o":"m 369 1128 q 399 1117 388 1128 q 410 1089 410 1107 q 399 1060 410 1071 q 369 1049 388 1049 q 342 1060 353 1049 q 331 1089 331 1071 q 342 1117 331 1107 q 369 1128 353 1128 m 628 1128 q 657 1117 646 1128 q 668 1089 668 1107 q 657 1060 668 1071 q 628 1049 646 1049 q 599 1060 610 1049 q 589 1089 589 1071 q 628 1128 589 1128 m 194 803 q 250 867 194 803 q 500 931 307 931 q 806 803 693 931 q 919 458 919 676 q 806 113 919 240 q 500 -14 693 -14 q 194 113 307 -14 q 81 458 81 240 q 194 803 81 676 m 777 778 q 726 837 777 778 q 500 896 675 896 q 223 778 325 896 q 121 458 121 660 q 223 139 121 257 q 500 21 325 21 q 777 139 675 21 q 879 458 879 257 q 777 778 879 660 z "},"×":{"ha":839,"x_min":161,"x_max":678,"o":"m 189 176 l 161 206 l 390 435 l 161 665 l 189 693 l 419 464 l 649 693 l 678 665 l 447 435 l 678 206 l 649 176 l 419 407 l 189 176 z "},"Ø":{"ha":1000,"x_min":81,"x_max":919,"o":"m 119 -43 l 217 90 q 81 458 81 218 q 194 803 81 676 q 500 931 307 931 q 761 847 657 931 l 840 957 l 881 957 l 786 825 q 919 458 919 696 q 806 113 919 240 q 500 -14 693 -14 q 242 69 346 -14 l 161 -43 l 119 -43 m 500 896 q 223 778 325 896 q 121 458 121 660 q 239 122 121 240 l 739 815 q 500 896 640 896 m 879 458 q 763 793 879 676 l 264 100 q 500 21 358 21 q 777 139 675 21 q 879 458 879 257 z "},"Ù":{"ha":933,"x_min":118,"x_max":815,"o":"m 440 1233 l 543 1025 l 508 1025 l 399 1233 l 440 1233 m 815 917 l 815 329 q 724 75 815 164 q 467 -14 632 -14 q 210 75 301 -14 q 118 329 118 164 l 118 917 l 157 917 l 157 335 q 238 102 157 183 q 467 21 318 21 q 696 102 615 21 q 776 335 776 183 l 776 917 l 815 917 z "},"Ú":{"ha":933,"x_min":118,"x_max":815,"o":"m 551 1189 l 593 1189 l 482 981 l 449 981 l 551 1189 m 815 917 l 815 329 q 724 75 815 164 q 467 -14 632 -14 q 210 75 301 -14 q 118 329 118 164 l 118 917 l 157 917 l 157 335 q 238 102 157 183 q 467 21 318 21 q 696 102 615 21 q 776 335 776 183 l 776 917 l 815 917 z "},"Û":{"ha":933,"x_min":118,"x_max":815,"o":"m 642 981 l 603 981 l 467 1154 l 331 981 l 293 981 l 444 1182 l 490 1182 l 642 981 m 815 917 l 815 329 q 724 75 815 164 q 467 -14 632 -14 q 210 75 301 -14 q 118 329 118 164 l 118 917 l 157 917 l 157 335 q 238 102 157 183 q 467 21 318 21 q 696 102 615 21 q 776 335 776 183 l 776 917 l 815 917 z "},"Ü":{"ha":933,"x_min":118,"x_max":815,"o":"m 308 1065 q 313 1071 308 1065 q 336 1076 318 1076 q 365 1065 354 1076 q 376 1036 376 1054 q 365 1008 376 1018 q 336 997 354 997 q 297 1036 297 997 q 308 1065 297 1054 m 566 1065 q 571 1071 566 1065 q 594 1076 576 1076 q 624 1065 613 1076 q 635 1036 635 1054 q 624 1008 635 1018 q 594 997 613 997 q 556 1036 556 997 q 566 1065 556 1054 m 815 917 l 815 329 q 724 75 815 164 q 467 -14 632 -14 q 210 75 301 -14 q 118 329 118 164 l 118 917 l 157 917 l 157 335 q 238 102 157 183 q 467 21 318 21 q 696 102 615 21 q 776 335 776 183 l 776 917 l 815 917 z "},"Ý":{"ha":726,"x_min":21,"x_max":706,"o":"m 447 1190 l 489 1190 l 379 982 l 346 982 l 447 1190 m 706 917 l 383 356 l 383 0 l 344 0 l 344 356 l 21 917 l 67 917 l 246 603 l 364 397 l 481 603 l 660 917 l 706 917 z "},"Þ":{"ha":803,"x_min":140,"x_max":744,"o":"m 417 733 q 744 471 744 733 q 662 276 744 343 q 417 210 579 210 l 179 210 l 179 0 l 140 0 l 140 917 l 179 917 l 179 733 l 417 733 m 429 699 l 179 699 l 179 244 l 429 244 q 704 471 704 244 q 429 699 704 699 z "},"ß":{"ha":788,"x_min":121,"x_max":717,"o":"m 468 528 q 652 451 588 522 q 717 263 717 381 q 650 63 717 139 q 467 -14 583 -14 q 297 38 358 -14 l 314 69 q 467 19 376 19 q 622 86 565 19 q 679 263 679 153 q 608 447 679 385 q 415 508 538 508 l 350 508 l 350 543 l 413 543 q 576 606 514 543 q 638 778 638 669 q 578 931 638 876 q 414 986 518 986 q 158 693 158 986 l 158 0 l 121 0 l 121 711 q 417 1021 121 1021 q 608 956 539 1021 q 678 779 678 890 q 618 603 678 674 q 468 529 558 533 l 468 528 z "},"à":{"ha":731,"x_min":71,"x_max":724,"o":"m 253 1019 l 368 810 l 335 810 l 210 1019 l 253 1019 m 560 464 q 505 619 560 563 q 350 675 450 675 q 111 517 168 675 l 81 538 q 351 708 143 708 q 533 646 468 708 q 599 468 599 583 l 599 114 q 675 22 599 22 q 724 33 706 22 l 721 1 q 667 -11 700 -11 q 560 119 560 -11 l 560 135 q 455 24 529 63 q 294 -14 381 -14 q 131 31 190 -14 q 71 160 71 76 q 271 346 71 307 l 560 403 l 560 464 m 111 163 q 160 58 111 94 q 300 21 208 21 q 417 42 360 21 q 517 113 474 63 q 560 235 560 164 l 560 369 l 293 317 q 111 163 111 282 z "},"á":{"ha":731,"x_min":71,"x_max":724,"o":"m 440 1019 l 483 1019 l 358 810 l 325 810 l 440 1019 m 560 464 q 505 619 560 563 q 350 675 450 675 q 111 517 168 675 l 81 538 q 351 708 143 708 q 533 646 468 708 q 599 468 599 583 l 599 114 q 675 22 599 22 q 724 33 706 22 l 721 1 q 667 -11 700 -11 q 560 119 560 -11 l 560 135 q 455 24 529 63 q 294 -14 381 -14 q 131 31 190 -14 q 71 160 71 76 q 271 346 71 307 l 560 403 l 560 464 m 111 163 q 160 58 111 94 q 300 21 208 21 q 417 42 360 21 q 517 113 474 63 q 560 235 560 164 l 560 369 l 293 317 q 111 163 111 282 z "},"â":{"ha":731,"x_min":71,"x_max":724,"o":"m 518 808 l 481 808 l 344 983 l 210 808 l 172 808 l 324 1011 l 367 1011 l 518 808 m 560 464 q 505 619 560 563 q 350 675 450 675 q 111 517 168 675 l 81 538 q 351 708 143 708 q 533 646 468 708 q 599 468 599 583 l 599 114 q 675 22 599 22 q 724 33 706 22 l 721 1 q 667 -11 700 -11 q 560 119 560 -11 l 560 135 q 455 24 529 63 q 294 -14 381 -14 q 131 31 190 -14 q 71 160 71 76 q 271 346 71 307 l 560 403 l 560 464 m 111 163 q 160 58 111 94 q 300 21 208 21 q 417 42 360 21 q 517 113 474 63 q 560 235 560 164 l 560 369 l 293 317 q 111 163 111 282 z "},"ã":{"ha":731,"x_min":71,"x_max":724,"o":"m 571 957 q 449 828 550 828 q 372 851 407 828 q 308 899 338 875 q 247 924 278 924 q 154 826 174 924 l 121 826 q 249 956 142 956 q 354 908 296 956 q 449 861 413 861 q 538 957 518 861 l 571 957 m 560 464 q 505 619 560 563 q 350 675 450 675 q 111 517 168 675 l 81 538 q 351 708 143 708 q 533 646 468 708 q 599 468 599 583 l 599 114 q 675 22 599 22 q 724 33 706 22 l 721 1 q 667 -11 700 -11 q 560 119 560 -11 l 560 135 q 455 24 529 63 q 294 -14 381 -14 q 131 31 190 -14 q 71 160 71 76 q 271 346 71 307 l 560 403 l 560 464 m 111 163 q 160 58 111 94 q 300 21 208 21 q 417 42 360 21 q 517 113 474 63 q 560 235 560 164 l 560 369 l 293 317 q 111 163 111 282 z "},"ä":{"ha":731,"x_min":71,"x_max":724,"o":"m 215 906 q 254 867 254 906 q 244 838 254 849 q 215 826 233 826 q 186 838 197 826 q 175 867 175 849 q 186 895 175 885 q 215 906 197 906 m 474 906 q 501 895 490 906 q 513 867 513 885 q 501 838 513 849 q 474 826 490 826 q 444 838 456 826 q 433 867 433 849 q 444 895 433 885 q 474 906 456 906 m 560 464 q 505 619 560 563 q 350 675 450 675 q 111 517 168 675 l 81 538 q 351 708 143 708 q 533 646 468 708 q 599 468 599 583 l 599 114 q 675 22 599 22 q 724 33 706 22 l 721 1 q 667 -11 700 -11 q 560 119 560 -11 l 560 135 q 455 24 529 63 q 294 -14 381 -14 q 131 31 190 -14 q 71 160 71 76 q 271 346 71 307 l 560 403 l 560 464 m 111 163 q 160 58 111 94 q 300 21 208 21 q 417 42 360 21 q 517 113 474 63 q 560 235 560 164 l 560 369 l 293 317 q 111 163 111 282 z "},"å":{"ha":731,"x_min":71,"x_max":724,"o":"m 252 1006 q 270 1023 252 1006 q 342 1040 288 1040 q 431 1006 396 1040 q 467 919 467 972 q 431 833 467 867 q 342 799 396 799 q 252 833 288 799 q 217 919 217 867 q 252 1006 217 972 m 408 985 q 394 999 408 985 q 342 1013 381 1013 q 276 985 303 1013 q 249 919 249 958 q 276 854 249 881 q 342 828 303 828 q 408 854 381 828 q 435 919 435 881 q 408 985 435 958 m 560 464 q 505 619 560 563 q 350 675 450 675 q 111 517 168 675 l 81 538 q 351 708 143 708 q 533 646 468 708 q 599 468 599 583 l 599 114 q 675 22 599 22 q 724 33 706 22 l 721 1 q 667 -11 700 -11 q 560 119 560 -11 l 560 135 q 455 24 529 63 q 294 -14 381 -14 q 131 31 190 -14 q 71 160 71 76 q 271 346 71 307 l 560 403 l 560 464 m 111 163 q 160 58 111 94 q 300 21 208 21 q 417 42 360 21 q 517 113 474 63 q 560 235 560 164 l 560 369 l 293 317 q 111 163 111 282 z "},"æ":{"ha":1218,"x_min":71,"x_max":1147,"o":"m 296 -14 q 131 31 190 -14 q 71 160 71 76 q 269 346 71 308 l 560 400 l 560 464 q 504 618 560 561 q 350 675 449 675 q 111 517 171 675 l 81 538 q 350 708 144 708 q 515 657 451 708 q 590 507 578 606 q 697 654 621 600 q 867 708 772 708 q 1072 620 997 708 q 1147 388 1147 532 l 1147 365 l 597 365 l 597 342 q 672 106 600 190 q 876 21 744 21 q 1017 60 953 21 q 1115 167 1082 99 l 1146 150 q 1037 30 1110 74 q 876 -14 964 -14 q 690 42 768 -14 q 585 197 613 99 q 484 38 568 90 q 296 -14 400 -14 m 600 400 l 1111 400 q 1043 599 1108 522 q 865 675 978 675 q 685 601 757 675 q 600 400 614 528 m 300 21 q 481 77 403 21 q 560 246 560 133 l 560 367 l 293 317 q 111 163 111 283 q 160 58 111 94 q 300 21 208 21 z "},"ç":{"ha":738,"x_min":72,"x_max":678,"o":"m 396 708 q 572 659 500 708 q 671 519 644 610 l 636 501 q 550 630 613 585 q 394 675 488 675 q 190 586 269 675 q 111 347 111 497 q 189 108 111 196 q 392 21 267 21 q 558 70 488 21 q 642 203 628 119 l 678 190 q 586 48 658 103 q 415 -12 514 -7 q 503 -154 503 -69 q 467 -248 503 -212 q 372 -283 431 -283 q 240 -229 290 -283 l 254 -200 q 369 -253 303 -253 q 441 -226 414 -253 q 468 -151 468 -199 q 445 -79 468 -111 q 365 -12 422 -47 q 153 92 233 -4 q 72 347 72 189 q 163 610 72 513 q 396 708 253 708 z "},"è":{"ha":753,"x_min":72,"x_max":683,"o":"m 289 1019 l 406 810 l 371 810 l 246 1019 l 289 1019 m 399 -14 q 164 83 256 -14 q 72 347 72 181 q 161 610 72 513 q 388 708 250 708 q 605 617 526 708 q 683 369 683 526 q 682 347 683 353 l 111 347 q 191 108 111 196 q 397 21 271 21 q 546 59 481 21 q 646 167 611 97 l 676 150 q 565 30 639 74 q 399 -14 492 -14 m 388 675 q 198 596 274 675 q 113 382 122 517 l 647 382 q 575 596 643 517 q 388 675 507 675 z "},"é":{"ha":753,"x_min":72,"x_max":683,"o":"m 476 1019 l 519 1019 l 394 810 l 361 810 l 476 1019 m 399 -14 q 164 83 256 -14 q 72 347 72 181 q 161 610 72 513 q 388 708 250 708 q 605 617 526 708 q 683 369 683 526 q 682 347 683 353 l 111 347 q 191 108 111 196 q 397 21 271 21 q 546 59 481 21 q 646 167 611 97 l 676 150 q 565 30 639 74 q 399 -14 492 -14 m 388 675 q 198 596 274 675 q 113 382 122 517 l 647 382 q 575 596 643 517 q 388 675 507 675 z "},"ê":{"ha":753,"x_min":72,"x_max":683,"o":"m 556 808 l 517 808 l 382 983 l 246 808 l 208 808 l 360 1011 l 404 1011 l 556 808 m 399 -14 q 164 83 256 -14 q 72 347 72 181 q 161 610 72 513 q 388 708 250 708 q 605 617 526 708 q 683 369 683 526 q 682 347 683 353 l 111 347 q 191 108 111 196 q 397 21 271 21 q 546 59 481 21 q 646 167 611 97 l 676 150 q 565 30 639 74 q 399 -14 492 -14 m 388 675 q 198 596 274 675 q 113 382 122 517 l 647 382 q 575 596 643 517 q 388 675 507 675 z "},"ë":{"ha":753,"x_min":72,"x_max":683,"o":"m 222 895 q 228 900 222 895 q 251 906 233 906 q 281 895 269 906 q 292 867 292 885 q 281 838 292 849 q 251 826 269 826 q 222 838 233 826 q 211 867 211 849 q 222 895 211 885 m 510 906 q 549 867 549 906 q 538 838 549 849 q 510 826 528 826 q 481 838 492 826 q 469 867 469 849 q 481 895 469 885 q 510 906 492 906 m 399 -14 q 164 83 256 -14 q 72 347 72 181 q 161 610 72 513 q 388 708 250 708 q 605 617 526 708 q 683 369 683 526 q 682 347 683 353 l 111 347 q 191 108 111 196 q 397 21 271 21 q 546 59 481 21 q 646 167 611 97 l 676 150 q 565 30 639 74 q 399 -14 492 -14 m 388 675 q 198 596 274 675 q 113 382 122 517 l 647 382 q 575 596 643 517 q 388 675 507 675 z "},"ì":{"ha":279,"x_min":4,"x_max":163,"o":"m 47 1019 l 163 810 l 129 810 l 4 1019 l 47 1019 m 160 694 l 160 0 l 121 0 l 121 694 l 160 694 z "},"í":{"ha":279,"x_min":119,"x_max":278,"o":"m 235 1019 l 278 1019 l 153 810 l 119 810 l 235 1019 m 160 694 l 160 0 l 121 0 l 121 694 l 160 694 z "},"î":{"ha":279,"x_min":-33,"x_max":313,"o":"m 313 808 l 275 808 l 140 983 l 4 808 l -33 808 l 118 1011 l 161 1011 l 313 808 m 160 694 l 160 0 l 121 0 l 121 694 l 160 694 z "},"ï":{"ha":279,"x_min":22,"x_max":257,"o":"m 246 838 q 240 832 246 838 q 217 826 235 826 q 188 838 199 826 q 176 867 176 849 q 188 895 176 885 q 217 906 199 906 q 246 895 235 906 q 257 867 257 885 q 246 838 257 849 m 92 838 q 86 832 92 838 q 63 826 81 826 q 33 838 44 826 q 22 867 22 849 q 33 895 22 885 q 63 906 44 906 q 92 895 81 906 q 103 867 103 885 q 92 838 103 849 m 160 694 l 160 0 l 121 0 l 121 694 l 160 694 z "},"ð":{"ha":813,"x_min":74,"x_max":742,"o":"m 636 90 q 594 38 636 90 q 401 -14 553 -14 q 162 79 250 -14 q 74 329 74 172 q 161 580 74 486 q 392 674 249 674 q 575 625 500 674 q 679 490 650 576 q 553 840 660 699 l 311 786 l 303 817 l 532 865 q 324 1014 447 961 l 388 1014 q 572 874 500 958 l 733 911 l 742 881 l 592 849 q 719 394 719 678 q 636 90 719 194 m 192 104 q 231 63 192 104 q 403 21 269 21 q 608 115 536 21 q 681 354 681 208 q 600 563 681 485 q 394 640 519 640 q 190 556 267 640 q 114 329 114 471 q 192 104 114 188 z "},"ñ":{"ha":808,"x_min":121,"x_max":697,"o":"m 640 957 q 517 828 617 828 q 440 851 475 828 q 376 899 406 875 q 315 924 346 924 q 222 826 242 924 l 189 826 q 317 956 210 956 q 422 908 364 956 q 517 861 481 861 q 575 885 554 861 q 607 957 596 908 l 640 957 m 121 0 l 121 694 l 157 694 l 158 528 q 261 659 186 610 q 436 708 336 708 q 627 642 557 708 q 697 454 697 575 l 697 0 l 658 0 l 658 444 q 597 615 658 556 q 431 675 536 675 q 238 598 317 675 q 160 408 160 521 l 160 0 l 121 0 z "},"ò":{"ha":799,"x_min":72,"x_max":726,"o":"m 307 1015 l 424 806 l 389 806 l 264 1015 l 307 1015 m 400 708 q 636 611 546 708 q 726 347 726 514 q 636 83 726 181 q 400 -14 546 -14 q 163 83 253 -14 q 72 347 72 181 q 163 611 72 514 q 400 708 253 708 m 608 587 q 569 631 608 587 q 400 675 529 675 q 191 587 271 675 q 111 347 111 499 q 191 108 111 196 q 400 19 271 19 q 608 108 529 19 q 688 347 688 196 q 608 587 688 499 z "},"ó":{"ha":799,"x_min":72,"x_max":726,"o":"m 494 1015 l 538 1015 l 413 806 l 379 806 l 494 1015 m 400 708 q 636 611 546 708 q 726 347 726 514 q 636 83 726 181 q 400 -14 546 -14 q 163 83 253 -14 q 72 347 72 181 q 163 611 72 514 q 400 708 253 708 m 608 587 q 569 631 608 587 q 400 675 529 675 q 191 587 271 675 q 111 347 111 499 q 191 108 111 196 q 400 19 271 19 q 608 108 529 19 q 688 347 688 196 q 608 587 688 499 z "},"ô":{"ha":799,"x_min":72,"x_max":726,"o":"m 574 803 l 535 803 l 400 979 l 264 803 l 226 803 l 378 1007 l 422 1007 l 574 803 m 400 708 q 636 611 546 708 q 726 347 726 514 q 636 83 726 181 q 400 -14 546 -14 q 163 83 253 -14 q 72 347 72 181 q 163 611 72 514 q 400 708 253 708 m 608 587 q 569 631 608 587 q 400 675 529 675 q 191 587 271 675 q 111 347 111 499 q 191 108 111 196 q 400 19 271 19 q 608 108 529 19 q 688 347 688 196 q 608 587 688 499 z "},"õ":{"ha":799,"x_min":72,"x_max":726,"o":"m 626 953 q 503 824 606 824 q 394 872 451 824 q 301 919 336 919 q 208 822 231 919 l 175 822 q 303 951 196 951 q 376 927 342 951 q 442 879 411 903 q 503 856 472 856 q 561 880 540 856 q 593 953 582 904 l 626 953 m 400 708 q 636 611 546 708 q 726 347 726 514 q 636 83 726 181 q 400 -14 546 -14 q 163 83 253 -14 q 72 347 72 181 q 163 611 72 514 q 400 708 253 708 m 608 587 q 569 631 608 587 q 400 675 529 675 q 191 587 271 675 q 111 347 111 499 q 191 108 111 196 q 400 19 271 19 q 608 108 529 19 q 688 347 688 196 q 608 587 688 499 z "},"ö":{"ha":799,"x_min":72,"x_max":726,"o":"m 241 890 q 246 896 241 890 q 269 901 251 901 q 299 890 288 901 q 310 861 310 879 q 299 833 310 843 q 269 822 288 822 q 231 861 231 822 q 241 890 231 879 m 499 890 q 504 896 499 890 q 528 901 510 901 q 557 890 546 901 q 568 861 568 879 q 557 833 568 843 q 528 822 546 822 q 499 833 510 822 q 488 861 488 843 q 499 890 488 879 m 400 708 q 636 611 546 708 q 726 347 726 514 q 636 83 726 181 q 400 -14 546 -14 q 163 83 253 -14 q 72 347 72 181 q 163 611 72 514 q 400 708 253 708 m 608 587 q 569 631 608 587 q 400 675 529 675 q 191 587 271 675 q 111 347 111 499 q 191 108 111 196 q 400 19 271 19 q 608 108 529 19 q 688 347 688 196 q 608 587 688 499 z "},"÷":{"ha":839,"x_min":103,"x_max":736,"o":"m 389 731 q 394 736 389 731 q 419 742 400 742 q 450 731 439 742 q 461 700 461 719 q 450 669 461 681 q 419 658 439 658 q 389 669 400 658 q 378 700 378 681 q 389 731 378 719 m 736 457 l 736 421 l 103 421 l 103 457 l 736 457 m 389 211 q 394 217 389 211 q 419 222 400 222 q 450 211 439 222 q 461 181 461 200 q 450 150 461 161 q 419 139 439 139 q 389 150 400 139 q 378 181 378 161 q 389 211 378 200 z "},"ø":{"ha":799,"x_min":72,"x_max":726,"o":"m 74 -42 l 168 78 q 72 347 72 178 q 163 611 72 514 q 400 708 253 708 q 608 638 525 708 l 686 736 l 725 736 l 631 617 q 726 347 726 517 q 636 83 726 181 q 400 -14 546 -14 q 190 57 276 -14 l 113 -42 l 74 -42 m 400 675 q 191 587 271 675 q 111 347 111 499 q 192 108 111 196 l 586 608 q 400 675 511 675 m 608 108 q 648 152 608 108 q 688 347 688 196 q 607 588 688 499 l 213 86 q 400 19 288 19 q 608 108 529 19 z "},"ù":{"ha":797,"x_min":113,"x_max":676,"o":"m 303 994 l 419 785 l 385 785 l 260 994 l 303 994 m 358 -14 q 178 50 243 -14 q 113 233 113 114 l 113 694 l 151 694 l 151 242 q 207 77 151 133 q 367 21 263 21 q 565 102 493 21 q 638 281 638 183 l 638 694 l 676 694 l 676 0 l 640 0 l 639 169 q 538 36 613 86 q 358 -14 463 -14 z "},"ú":{"ha":797,"x_min":113,"x_max":676,"o":"m 490 994 l 533 994 l 408 785 l 375 785 l 490 994 m 358 -14 q 178 50 243 -14 q 113 233 113 114 l 113 694 l 151 694 l 151 242 q 207 77 151 133 q 367 21 263 21 q 565 102 493 21 q 638 281 638 183 l 638 694 l 676 694 l 676 0 l 640 0 l 639 169 q 538 36 613 86 q 358 -14 463 -14 z "},"û":{"ha":797,"x_min":113,"x_max":676,"o":"m 569 783 l 531 783 l 396 958 l 261 783 l 222 783 l 374 986 l 418 986 l 569 783 m 358 -14 q 178 50 243 -14 q 113 233 113 114 l 113 694 l 151 694 l 151 242 q 207 77 151 133 q 367 21 263 21 q 565 102 493 21 q 638 281 638 183 l 638 694 l 676 694 l 676 0 l 640 0 l 639 169 q 538 36 613 86 q 358 -14 463 -14 z "},"ü":{"ha":797,"x_min":113,"x_max":676,"o":"m 237 869 q 242 875 237 869 q 265 881 247 881 q 294 869 283 881 q 306 840 306 858 q 294 813 306 824 q 265 801 283 801 q 237 813 247 801 q 226 840 226 824 q 237 869 226 858 m 494 869 q 500 875 494 869 q 524 881 506 881 q 553 869 542 881 q 564 840 564 858 q 553 813 564 824 q 524 801 542 801 q 494 813 506 801 q 483 840 483 824 q 494 869 483 858 m 358 -14 q 178 50 243 -14 q 113 233 113 114 l 113 694 l 151 694 l 151 242 q 207 77 151 133 q 367 21 263 21 q 565 102 493 21 q 638 281 638 183 l 638 694 l 676 694 l 676 0 l 640 0 l 639 169 q 538 36 613 86 q 358 -14 463 -14 z "},"ý":{"ha":678,"x_min":-4,"x_max":649,"o":"m 438 994 l 481 994 l 356 785 l 322 785 l 438 994 m 649 694 l 307 -136 q 226 -262 271 -226 q 114 -299 182 -299 q -4 -253 31 -299 l 11 -221 q 114 -264 43 -264 q 204 -234 167 -264 q 272 -128 242 -204 l 325 -1 l 249 176 l 29 694 l 74 694 l 315 113 l 343 43 l 372 117 l 607 694 l 649 694 z "},"þ":{"ha":824,"x_min":121,"x_max":750,"o":"m 121 -292 l 121 1014 l 160 1014 l 160 506 q 260 654 186 600 q 436 708 335 708 q 664 612 578 708 q 750 347 750 515 q 664 83 750 179 q 436 -14 578 -14 q 261 40 335 -14 q 160 188 188 93 l 160 -292 l 121 -292 m 431 21 q 635 108 560 21 q 711 347 711 194 q 635 588 711 500 q 431 675 560 675 q 236 585 313 675 q 160 347 160 496 q 235 110 160 199 q 431 21 311 21 z "},"ÿ":{"ha":678,"x_min":-4,"x_max":649,"o":"m 184 869 q 189 875 184 869 q 213 881 194 881 q 242 869 231 881 q 253 840 253 858 q 242 813 253 824 q 213 801 231 801 q 184 813 194 801 q 174 840 174 824 q 184 869 174 858 m 442 869 q 447 875 442 869 q 471 881 453 881 q 500 869 489 881 q 511 840 511 858 q 500 813 511 824 q 471 801 489 801 q 442 813 453 801 q 431 840 431 824 q 442 869 431 858 m 649 694 l 307 -136 q 226 -262 271 -226 q 114 -299 182 -299 q -4 -253 31 -299 l 11 -221 q 114 -264 43 -264 q 204 -234 167 -264 q 272 -128 242 -204 l 325 -1 l 249 176 l 29 694 l 74 694 l 315 113 l 343 43 l 372 117 l 607 694 l 649 694 z "},"Ā":{"ha":833,"x_min":21,"x_max":813,"o":"m 622 1093 l 622 1060 l 211 1060 l 211 1093 l 622 1093 m 813 0 l 772 0 l 644 311 l 189 311 l 61 0 l 21 0 l 394 917 l 439 917 l 813 0 m 203 347 l 629 347 l 417 876 l 203 347 z "},"ā":{"ha":731,"x_min":71,"x_max":724,"o":"m 550 871 l 550 838 l 140 838 l 140 871 l 550 871 m 560 464 q 505 619 560 563 q 350 675 450 675 q 111 517 168 675 l 81 538 q 351 708 143 708 q 533 646 468 708 q 599 468 599 583 l 599 114 q 675 22 599 22 q 724 33 706 22 l 721 1 q 667 -11 700 -11 q 560 119 560 -11 l 560 135 q 455 24 529 63 q 294 -14 381 -14 q 131 31 190 -14 q 71 160 71 76 q 271 346 71 307 l 560 403 l 560 464 m 111 163 q 160 58 111 94 q 300 21 208 21 q 417 42 360 21 q 517 113 474 63 q 560 235 560 164 l 560 369 l 293 317 q 111 163 111 282 z "},"Ă":{"ha":833,"x_min":21,"x_max":813,"o":"m 592 1203 q 544 1075 592 1122 q 417 1028 497 1028 q 289 1075 336 1028 q 242 1203 242 1122 l 274 1203 q 313 1099 275 1138 q 417 1060 350 1060 q 521 1099 483 1060 q 558 1203 558 1138 l 592 1203 m 813 0 l 772 0 l 644 311 l 189 311 l 61 0 l 21 0 l 394 917 l 439 917 l 813 0 m 203 347 l 629 347 l 417 876 l 203 347 z "},"ă":{"ha":731,"x_min":71,"x_max":724,"o":"m 519 981 q 473 852 519 899 q 344 806 426 806 q 217 853 264 806 q 169 981 169 900 l 203 981 q 240 876 203 915 q 344 838 278 838 q 450 876 413 838 q 488 981 488 915 l 519 981 m 560 464 q 505 619 560 563 q 350 675 450 675 q 111 517 168 675 l 81 538 q 351 708 143 708 q 533 646 468 708 q 599 468 599 583 l 599 114 q 675 22 599 22 q 724 33 706 22 l 721 1 q 667 -11 700 -11 q 560 119 560 -11 l 560 135 q 455 24 529 63 q 294 -14 381 -14 q 131 31 190 -14 q 71 160 71 76 q 271 346 71 307 l 560 403 l 560 464 m 111 163 q 160 58 111 94 q 300 21 208 21 q 417 42 360 21 q 517 113 474 63 q 560 235 560 164 l 560 369 l 293 317 q 111 163 111 282 z "},"Ą":{"ha":833,"x_min":21,"x_max":831,"o":"m 728 -283 q 634 -253 671 -283 q 597 -169 597 -224 q 637 -69 597 -112 q 768 10 676 -26 l 644 311 l 189 311 l 61 0 l 21 0 l 394 917 l 439 917 l 813 0 q 672 -77 713 -37 q 632 -168 632 -117 q 660 -231 632 -210 q 731 -253 688 -253 q 819 -228 788 -253 l 831 -256 q 728 -283 788 -283 m 203 347 l 629 347 l 417 876 l 203 347 z "},"ą":{"ha":731,"x_min":71,"x_max":731,"o":"m 624 -296 q 530 -266 567 -296 q 493 -182 493 -236 q 528 -88 493 -129 q 644 -10 564 -47 q 560 119 560 4 l 560 135 q 455 24 529 63 q 294 -14 381 -14 q 131 31 190 -14 q 71 160 71 76 q 271 346 71 307 l 560 403 l 560 464 q 505 619 560 563 q 350 675 450 675 q 111 517 168 675 l 81 538 q 351 708 143 708 q 533 646 468 708 q 599 468 599 583 l 599 114 q 675 22 599 22 q 724 33 706 22 l 721 1 q 708 -4 717 -1 q 567 -90 608 -49 q 526 -179 526 -131 q 555 -243 526 -221 q 626 -265 583 -265 q 721 -240 686 -265 l 731 -268 q 624 -296 690 -296 m 111 163 q 160 58 111 94 q 300 21 208 21 q 417 42 360 21 q 517 113 474 63 q 560 235 560 164 l 560 369 l 293 317 q 111 163 111 282 z "},"Ć":{"ha":911,"x_min":81,"x_max":856,"o":"m 564 1240 l 606 1240 l 494 1032 l 461 1032 l 564 1240 m 856 231 q 724 50 819 114 q 492 -14 628 -14 q 193 114 306 -14 q 81 458 81 242 q 192 803 81 675 q 490 931 304 931 q 846 694 775 931 l 808 676 q 492 896 742 896 q 222 778 324 896 q 121 458 121 660 q 222 139 121 257 q 492 21 324 21 q 701 79 615 21 q 817 244 786 138 l 856 231 z "},"ć":{"ha":738,"x_min":72,"x_max":678,"o":"m 482 1019 l 525 1019 l 400 810 l 365 810 l 482 1019 m 396 708 q 572 659 500 708 q 671 519 644 610 l 636 501 q 550 630 613 585 q 394 675 488 675 q 190 586 269 675 q 111 347 111 497 q 189 108 111 196 q 392 21 267 21 q 558 70 488 21 q 642 203 628 119 l 678 190 q 577 42 656 97 q 392 -14 499 -14 q 161 83 250 -14 q 72 347 72 181 q 163 610 72 513 q 396 708 253 708 z "},"Ĉ":{"ha":911,"x_min":81,"x_max":856,"o":"m 654 1032 l 615 1032 l 479 1206 l 343 1032 l 306 1032 l 457 1233 l 503 1233 l 654 1032 m 856 231 q 724 50 819 114 q 492 -14 628 -14 q 193 114 306 -14 q 81 458 81 242 q 192 803 81 675 q 490 931 304 931 q 846 694 775 931 l 808 676 q 492 896 742 896 q 222 778 324 896 q 121 458 121 660 q 222 139 121 257 q 492 21 324 21 q 701 79 615 21 q 817 244 786 138 l 856 231 z "},"ĉ":{"ha":738,"x_min":72,"x_max":678,"o":"m 560 808 l 522 808 l 386 983 l 251 808 l 213 808 l 364 1011 l 408 1011 l 560 808 m 396 708 q 572 659 500 708 q 671 519 644 610 l 636 501 q 550 630 613 585 q 394 675 488 675 q 190 586 269 675 q 111 347 111 497 q 189 108 111 196 q 392 21 267 21 q 558 70 488 21 q 642 203 628 119 l 678 190 q 577 42 656 97 q 392 -14 499 -14 q 161 83 250 -14 q 72 347 72 181 q 163 610 72 513 q 396 708 253 708 z "},"Ċ":{"ha":911,"x_min":81,"x_max":856,"o":"m 450 1122 q 456 1128 450 1122 q 479 1133 461 1133 q 508 1122 497 1133 q 519 1093 519 1111 q 479 1053 519 1053 q 450 1064 461 1053 q 439 1093 439 1075 q 450 1122 439 1111 m 856 231 q 724 50 819 114 q 492 -14 628 -14 q 193 114 306 -14 q 81 458 81 242 q 192 803 81 675 q 490 931 304 931 q 846 694 775 931 l 808 676 q 492 896 742 896 q 222 778 324 896 q 121 458 121 660 q 222 139 121 257 q 492 21 324 21 q 701 79 615 21 q 817 244 786 138 l 856 231 z "},"ċ":{"ha":738,"x_min":72,"x_max":678,"o":"m 357 900 q 363 906 357 900 q 386 911 368 911 q 415 900 404 911 q 426 871 426 889 q 386 831 426 831 q 357 842 368 831 q 346 871 346 853 q 357 900 346 889 m 396 708 q 572 659 500 708 q 671 519 644 610 l 636 501 q 550 630 613 585 q 394 675 488 675 q 190 586 269 675 q 111 347 111 497 q 189 108 111 196 q 392 21 267 21 q 558 70 488 21 q 642 203 628 119 l 678 190 q 577 42 656 97 q 392 -14 499 -14 q 161 83 250 -14 q 72 347 72 181 q 163 610 72 513 q 396 708 253 708 z "},"Č":{"ha":911,"x_min":81,"x_max":856,"o":"m 654 1233 l 503 1032 l 457 1032 l 306 1233 l 343 1233 l 479 1060 l 615 1233 l 654 1233 m 856 231 q 724 50 819 114 q 492 -14 628 -14 q 193 114 306 -14 q 81 458 81 242 q 192 803 81 675 q 490 931 304 931 q 846 694 775 931 l 808 676 q 492 896 742 896 q 222 778 324 896 q 121 458 121 660 q 222 139 121 257 q 492 21 324 21 q 701 79 615 21 q 817 244 786 138 l 856 231 z "},"č":{"ha":738,"x_min":72,"x_max":678,"o":"m 560 1014 l 408 810 l 364 810 l 213 1014 l 251 1014 l 386 838 l 522 1014 l 560 1014 m 396 708 q 572 659 500 708 q 671 519 644 610 l 636 501 q 550 630 613 585 q 394 675 488 675 q 190 586 269 675 q 111 347 111 497 q 189 108 111 196 q 392 21 267 21 q 558 70 488 21 q 642 203 628 119 l 678 190 q 577 42 656 97 q 392 -14 499 -14 q 161 83 250 -14 q 72 347 72 181 q 163 610 72 513 q 396 708 253 708 z "},"Ď":{"ha":958,"x_min":140,"x_max":878,"o":"m 618 1233 l 467 1032 l 421 1032 l 269 1233 l 308 1233 l 444 1060 l 579 1233 l 618 1233 m 425 917 q 762 803 646 917 q 878 469 878 689 q 762 119 878 239 q 425 0 646 0 l 140 0 l 140 917 l 425 917 m 426 35 q 733 146 628 35 q 838 469 838 257 q 733 776 838 671 q 426 882 628 882 l 179 882 l 179 35 l 426 35 z "},"ď":{"ha":840,"x_min":74,"x_max":888,"o":"m 888 1014 l 844 740 l 814 740 l 849 1014 l 888 1014 m 392 -14 q 161 83 249 -14 q 74 347 74 179 q 162 612 74 515 q 393 708 250 708 q 565 655 493 708 q 664 506 638 601 l 664 1014 l 703 1014 l 703 0 l 667 0 l 665 194 q 566 41 640 96 q 392 -14 492 -14 m 396 21 q 590 110 515 21 q 664 349 664 199 q 590 586 664 497 q 397 675 515 675 q 190 588 267 675 q 113 347 113 500 q 190 108 113 196 q 396 21 267 21 z "},"Đ":{"ha":972,"x_min":13,"x_max":890,"o":"m 13 446 l 13 482 l 153 482 l 153 917 l 438 917 q 775 803 660 917 q 890 469 890 689 q 775 119 890 239 q 438 0 660 0 l 153 0 l 153 446 l 13 446 m 440 35 q 747 146 642 35 q 851 469 851 257 q 747 776 851 671 q 440 882 642 882 l 192 882 l 192 482 l 476 482 l 476 446 l 192 446 l 192 35 l 440 35 z "},"đ":{"ha":824,"x_min":74,"x_max":833,"o":"m 392 -14 q 161 83 249 -14 q 74 347 74 179 q 162 612 74 515 q 393 708 250 708 q 565 655 493 708 q 664 506 638 601 l 664 818 l 419 818 l 419 847 l 664 847 l 664 1014 l 703 1014 l 703 847 l 833 847 l 833 818 l 703 818 l 703 0 l 667 0 l 665 194 q 566 41 640 96 q 392 -14 492 -14 m 396 21 q 590 110 515 21 q 664 349 664 199 q 590 586 664 497 q 397 675 515 675 q 190 588 267 675 q 113 347 113 500 q 190 108 113 196 q 396 21 267 21 z "},"Ē":{"ha":824,"x_min":140,"x_max":776,"o":"m 653 1093 l 653 1060 l 242 1060 l 242 1093 l 653 1093 m 140 0 l 140 917 l 754 917 l 754 882 l 179 882 l 179 485 l 638 485 l 638 450 l 179 450 l 179 35 l 776 35 l 776 0 l 140 0 z "},"ē":{"ha":753,"x_min":72,"x_max":683,"o":"m 588 871 l 588 838 l 176 838 l 176 871 l 588 871 m 399 -14 q 164 83 256 -14 q 72 347 72 181 q 161 610 72 513 q 388 708 250 708 q 605 617 526 708 q 683 369 683 526 q 682 347 683 353 l 111 347 q 191 108 111 196 q 397 21 271 21 q 546 59 481 21 q 646 167 611 97 l 676 150 q 565 30 639 74 q 399 -14 492 -14 m 388 675 q 198 596 274 675 q 113 382 122 517 l 647 382 q 575 596 643 517 q 388 675 507 675 z "},"Ĕ":{"ha":824,"x_min":140,"x_max":776,"o":"m 622 1203 q 575 1075 622 1122 q 447 1028 528 1028 q 319 1075 367 1028 q 272 1203 272 1122 l 306 1203 q 343 1099 306 1138 q 447 1060 381 1060 q 551 1099 514 1060 q 590 1203 589 1138 l 622 1203 m 140 0 l 140 917 l 754 917 l 754 882 l 179 882 l 179 485 l 638 485 l 638 450 l 179 450 l 179 35 l 776 35 l 776 0 l 140 0 z "},"ĕ":{"ha":753,"x_min":72,"x_max":683,"o":"m 557 981 q 510 853 557 900 q 382 806 464 806 q 253 853 300 806 q 207 981 207 900 l 239 981 q 276 876 239 915 q 382 838 314 838 q 486 876 449 838 q 524 981 524 915 l 557 981 m 399 -14 q 164 83 256 -14 q 72 347 72 181 q 161 610 72 513 q 388 708 250 708 q 605 617 526 708 q 683 369 683 526 q 682 347 683 353 l 111 347 q 191 108 111 196 q 397 21 271 21 q 546 59 481 21 q 646 167 611 97 l 676 150 q 565 30 639 74 q 399 -14 492 -14 m 388 675 q 198 596 274 675 q 113 382 122 517 l 647 382 q 575 596 643 517 q 388 675 507 675 z "},"Ė":{"ha":824,"x_min":140,"x_max":776,"o":"m 418 1122 q 424 1128 418 1122 q 447 1133 429 1133 q 476 1122 465 1133 q 488 1093 488 1111 q 476 1064 488 1075 q 447 1053 465 1053 q 418 1064 429 1053 q 407 1093 407 1075 q 418 1122 407 1111 m 140 0 l 140 917 l 754 917 l 754 882 l 179 882 l 179 485 l 638 485 l 638 450 l 179 450 l 179 35 l 776 35 l 776 0 l 140 0 z "},"ė":{"ha":753,"x_min":72,"x_max":683,"o":"m 353 900 q 358 906 353 900 q 382 911 364 911 q 411 900 400 911 q 422 871 422 889 q 411 842 422 853 q 382 831 400 831 q 342 871 342 831 q 353 900 342 889 m 399 -14 q 164 83 256 -14 q 72 347 72 181 q 161 610 72 513 q 388 708 250 708 q 605 617 526 708 q 683 369 683 526 q 682 347 683 353 l 111 347 q 191 108 111 196 q 397 21 271 21 q 546 59 481 21 q 646 167 611 97 l 676 150 q 565 30 639 74 q 399 -14 492 -14 m 388 675 q 198 596 274 675 q 113 382 122 517 l 647 382 q 575 596 643 517 q 388 675 507 675 z "},"Ę":{"ha":824,"x_min":140,"x_max":778,"o":"m 140 0 l 140 917 l 754 917 l 754 882 l 179 882 l 179 485 l 638 485 l 638 450 l 179 450 l 179 35 l 776 35 l 776 0 q 627 -85 671 -42 q 583 -181 583 -129 q 610 -244 583 -222 q 678 -267 636 -267 q 767 -240 733 -267 l 778 -268 q 675 -297 739 -297 q 584 -267 619 -297 q 549 -183 549 -237 q 589 -81 549 -125 q 721 0 629 -36 l 140 0 z "},"ę":{"ha":753,"x_min":72,"x_max":683,"o":"m 399 -14 q 164 83 256 -14 q 72 347 72 181 q 161 610 72 513 q 388 708 250 708 q 605 617 526 708 q 683 369 683 526 q 682 347 683 353 l 111 347 q 191 108 111 196 q 397 21 271 21 q 546 59 481 21 q 646 167 611 97 l 676 150 q 513 6 626 44 q 367 -80 407 -39 q 326 -172 326 -121 q 353 -236 326 -214 q 425 -258 381 -258 q 519 -233 482 -258 l 529 -261 q 422 -290 485 -290 q 329 -260 365 -290 q 293 -175 293 -229 q 421 -12 293 -78 q 399 -14 413 -14 m 388 675 q 198 596 274 675 q 113 382 122 517 l 647 382 q 575 596 643 517 q 388 675 507 675 z "},"Ě":{"ha":824,"x_min":140,"x_max":776,"o":"m 622 1233 l 471 1032 l 425 1032 l 274 1233 l 311 1233 l 447 1060 l 583 1233 l 622 1233 m 140 0 l 140 917 l 754 917 l 754 882 l 179 882 l 179 485 l 638 485 l 638 450 l 179 450 l 179 35 l 776 35 l 776 0 l 140 0 z "},"ě":{"ha":753,"x_min":72,"x_max":683,"o":"m 556 1014 l 404 810 l 360 810 l 208 1014 l 246 1014 l 382 838 l 517 1014 l 556 1014 m 399 -14 q 164 83 256 -14 q 72 347 72 181 q 161 610 72 513 q 388 708 250 708 q 605 617 526 708 q 683 369 683 526 q 682 347 683 353 l 111 347 q 191 108 111 196 q 397 21 271 21 q 546 59 481 21 q 646 167 611 97 l 676 150 q 565 30 639 74 q 399 -14 492 -14 m 388 675 q 198 596 274 675 q 113 382 122 517 l 647 382 q 575 596 643 517 q 388 675 507 675 z "},"Ĝ":{"ha":951,"x_min":81,"x_max":857,"o":"m 658 1032 l 621 1032 l 485 1206 l 349 1032 l 310 1032 l 461 1233 l 507 1233 l 658 1032 m 499 -14 q 193 113 306 -14 q 81 458 81 240 q 194 803 81 675 q 493 931 307 931 q 850 694 774 931 l 815 676 q 493 896 746 896 q 223 777 325 896 q 121 458 121 658 q 222 138 121 256 q 499 21 322 21 q 625 42 568 21 q 717 95 682 63 q 776 170 753 128 q 810 254 800 213 q 819 336 819 296 l 819 403 l 493 403 l 493 438 l 857 438 l 857 0 l 822 0 l 821 199 q 703 43 788 100 q 499 -14 619 -14 z "},"ĝ":{"ha":699,"x_min":47,"x_max":699,"o":"m 182 808 l 333 1011 l 376 1011 l 529 808 l 490 808 l 356 983 l 219 808 l 182 808 m 463 58 q 628 16 567 58 q 689 -97 689 -26 q 599 -242 689 -186 q 368 -299 510 -299 q 133 -247 219 -299 q 47 -112 47 -196 q 89 -14 47 -56 q 201 42 131 28 q 103 160 103 74 q 138 245 103 211 q 231 286 174 279 q 83 488 83 342 q 160 648 83 588 q 360 708 236 708 q 526 669 457 708 q 574 781 532 740 q 685 822 617 822 l 688 822 l 699 789 l 696 789 q 594 752 632 789 q 553 651 557 715 q 635 488 635 589 q 559 327 635 388 q 360 267 483 267 q 283 272 315 267 q 181 242 221 269 q 140 165 140 214 q 181 86 140 114 q 285 58 221 58 l 463 58 m 360 675 q 188 624 253 675 q 122 488 122 572 q 188 351 122 403 q 360 299 253 299 q 530 351 465 299 q 594 488 594 403 q 530 624 594 572 q 360 675 465 675 m 371 -265 q 572 -219 493 -265 q 651 -101 651 -174 q 599 -9 651 -43 q 456 25 547 25 l 271 25 q 137 -12 189 25 q 85 -107 85 -49 q 162 -222 85 -178 q 371 -265 239 -265 z "},"Ğ":{"ha":951,"x_min":81,"x_max":857,"o":"m 660 1203 q 613 1075 660 1122 q 485 1028 567 1028 q 356 1074 403 1028 q 310 1203 310 1121 l 342 1203 q 379 1099 342 1138 q 485 1060 417 1060 q 589 1099 551 1060 q 626 1203 626 1138 l 660 1203 m 499 -14 q 193 113 306 -14 q 81 458 81 240 q 194 803 81 675 q 493 931 307 931 q 850 694 774 931 l 815 676 q 493 896 746 896 q 223 777 325 896 q 121 458 121 658 q 222 138 121 256 q 499 21 322 21 q 625 42 568 21 q 717 95 682 63 q 776 170 753 128 q 810 254 800 213 q 819 336 819 296 l 819 403 l 493 403 l 493 438 l 857 438 l 857 0 l 822 0 l 821 199 q 703 43 788 100 q 499 -14 619 -14 z "},"ğ":{"ha":699,"x_min":47,"x_max":699,"o":"m 542 981 q 494 853 542 900 q 367 806 447 806 q 239 853 286 806 q 192 981 192 900 l 225 981 q 263 876 225 915 q 367 838 300 838 q 471 876 433 838 q 510 981 508 915 l 542 981 m 463 58 q 628 16 567 58 q 689 -97 689 -26 q 599 -242 689 -186 q 368 -299 510 -299 q 133 -247 219 -299 q 47 -112 47 -196 q 89 -14 47 -56 q 201 42 131 28 q 103 160 103 74 q 138 245 103 211 q 231 286 174 279 q 83 488 83 342 q 160 648 83 588 q 360 708 236 708 q 526 669 457 708 q 574 781 532 740 q 685 822 617 822 l 688 822 l 699 789 l 696 789 q 594 752 632 789 q 553 651 557 715 q 635 488 635 589 q 559 327 635 388 q 360 267 483 267 q 283 272 315 267 q 181 242 221 269 q 140 165 140 214 q 181 86 140 114 q 285 58 221 58 l 463 58 m 360 675 q 188 624 253 675 q 122 488 122 572 q 188 351 122 403 q 360 299 253 299 q 530 351 465 299 q 594 488 594 403 q 530 624 594 572 q 360 675 465 675 m 371 -265 q 572 -219 493 -265 q 651 -101 651 -174 q 599 -9 651 -43 q 456 25 547 25 l 271 25 q 137 -12 189 25 q 85 -107 85 -49 q 162 -222 85 -178 q 371 -265 239 -265 z "},"Ġ":{"ha":951,"x_min":81,"x_max":857,"o":"m 456 1122 q 461 1128 456 1122 q 485 1133 467 1133 q 514 1122 503 1133 q 525 1093 525 1111 q 514 1064 525 1075 q 485 1053 503 1053 q 444 1093 444 1053 q 456 1122 444 1111 m 499 -14 q 193 113 306 -14 q 81 458 81 240 q 194 803 81 675 q 493 931 307 931 q 850 694 774 931 l 815 676 q 493 896 746 896 q 223 777 325 896 q 121 458 121 658 q 222 138 121 256 q 499 21 322 21 q 625 42 568 21 q 717 95 682 63 q 776 170 753 128 q 810 254 800 213 q 819 336 819 296 l 819 403 l 493 403 l 493 438 l 857 438 l 857 0 l 822 0 l 821 199 q 703 43 788 100 q 499 -14 619 -14 z "},"ġ":{"ha":699,"x_min":47,"x_max":699,"o":"m 326 900 q 332 906 326 900 q 356 911 338 911 q 385 900 374 911 q 396 871 396 889 q 385 842 396 853 q 356 831 374 831 q 315 871 315 831 q 326 900 315 889 m 463 58 q 628 16 567 58 q 689 -97 689 -26 q 599 -242 689 -186 q 368 -299 510 -299 q 133 -247 219 -299 q 47 -112 47 -196 q 89 -14 47 -56 q 201 42 131 28 q 103 160 103 74 q 138 245 103 211 q 231 286 174 279 q 83 488 83 342 q 160 648 83 588 q 360 708 236 708 q 526 669 456 708 q 574 781 532 739 q 683 822 617 822 l 688 822 l 699 788 l 693 788 q 593 751 629 788 q 553 651 557 715 q 635 488 635 589 q 559 327 635 388 q 360 267 483 267 q 283 272 315 267 q 181 242 221 269 q 140 165 140 214 q 181 86 140 114 q 285 58 221 58 l 463 58 m 360 675 q 188 624 253 675 q 122 488 122 572 q 188 351 122 403 q 360 299 253 299 q 530 351 465 299 q 594 488 594 403 q 530 624 594 572 q 360 675 465 675 m 371 -265 q 572 -219 493 -265 q 651 -101 651 -174 q 599 -9 651 -43 q 456 25 547 25 l 271 25 q 137 -12 189 25 q 85 -107 85 -49 q 162 -222 85 -178 q 371 -265 239 -265 z "},"Ģ":{"ha":951,"x_min":81,"x_max":857,"o":"m 499 -14 q 193 113 306 -14 q 81 458 81 240 q 194 803 81 675 q 493 931 307 931 q 850 694 774 931 l 815 676 q 493 896 746 896 q 223 777 325 896 q 121 458 121 658 q 222 138 121 256 q 499 21 322 21 q 625 42 568 21 q 717 95 682 63 q 776 170 753 128 q 810 254 800 213 q 819 336 819 296 l 819 403 l 493 403 l 493 438 l 857 438 l 857 0 l 822 0 l 821 199 q 703 43 788 100 q 499 -14 619 -14 m 526 -96 l 449 -319 l 417 -319 l 485 -96 l 526 -96 z "},"ģ":{"ha":699,"x_min":47,"x_max":699,"o":"m 463 1081 l 389 815 l 346 815 l 432 1081 l 463 1081 m 463 58 q 628 16 567 58 q 689 -97 689 -26 q 599 -242 689 -186 q 368 -299 510 -299 q 133 -247 219 -299 q 47 -112 47 -196 q 89 -14 47 -56 q 201 42 131 28 q 103 160 103 74 q 138 245 103 211 q 231 286 174 279 q 83 488 83 342 q 160 648 83 588 q 360 708 236 708 q 526 669 456 708 q 574 781 532 739 q 683 822 617 822 l 688 822 l 699 788 l 693 788 q 593 751 629 788 q 553 651 557 715 q 635 488 635 589 q 559 327 635 388 q 360 267 483 267 q 283 272 315 267 q 181 242 221 269 q 140 165 140 214 q 181 86 140 114 q 285 58 221 58 l 463 58 m 360 675 q 188 624 253 675 q 122 488 122 572 q 188 351 122 403 q 360 299 253 299 q 530 351 465 299 q 594 488 594 403 q 530 624 594 572 q 360 675 465 675 m 371 -265 q 572 -219 493 -265 q 651 -101 651 -174 q 599 -9 651 -43 q 456 25 547 25 l 271 25 q 137 -12 189 25 q 85 -107 85 -49 q 162 -222 85 -178 q 371 -265 239 -265 z "},"Ĥ":{"ha":976,"x_min":140,"x_max":836,"o":"m 663 1032 l 624 1032 l 489 1206 l 353 1032 l 314 1032 l 465 1233 l 511 1233 l 663 1032 m 179 917 l 179 485 l 797 485 l 797 917 l 836 917 l 836 0 l 797 0 l 797 450 l 179 450 l 179 0 l 140 0 l 140 917 l 179 917 z "},"ĥ":{"ha":808,"x_min":-35,"x_max":697,"o":"m 314 1068 l 275 1068 l 140 1242 l 4 1068 l -35 1068 l 117 1269 l 163 1269 l 314 1068 m 121 0 l 121 1014 l 160 1014 l 160 526 q 260 659 186 608 q 436 710 335 710 q 627 643 557 710 q 697 456 697 576 l 697 1 l 658 1 l 658 446 q 597 615 658 556 q 431 675 536 675 q 238 599 317 675 q 160 410 160 522 l 160 0 l 121 0 z "},"Ħ":{"ha":976,"x_min":36,"x_max":940,"o":"m 179 917 l 179 715 l 797 715 l 797 917 l 836 917 l 836 715 l 940 715 l 940 681 l 836 681 l 836 0 l 797 0 l 797 450 l 179 450 l 179 0 l 140 0 l 140 681 l 36 681 l 36 715 l 140 715 l 140 917 l 179 917 m 179 485 l 797 485 l 797 681 l 179 681 l 179 485 z "},"ħ":{"ha":808,"x_min":-10,"x_max":697,"o":"m 121 0 l 121 818 l -10 818 l -10 847 l 121 847 l 121 1014 l 160 1014 l 160 847 l 406 847 l 406 818 l 160 818 l 160 526 q 260 659 186 608 q 436 710 335 710 q 627 643 557 710 q 697 456 697 576 l 697 1 l 658 1 l 658 446 q 597 615 658 556 q 431 675 536 675 q 238 599 317 675 q 160 410 160 522 l 160 0 l 121 0 z "},"Ĩ":{"ha":318,"x_min":-65,"x_max":386,"o":"m 386 1179 q 263 1050 364 1050 q 186 1074 221 1050 q 122 1122 151 1097 q 61 1146 92 1146 q -32 1049 -12 1146 l -65 1049 q 63 1178 -44 1178 q 168 1131 110 1178 q 263 1083 226 1083 q 321 1107 300 1083 q 353 1179 342 1131 l 386 1179 m 179 917 l 179 0 l 140 0 l 140 917 l 179 917 z "},"ĩ":{"ha":279,"x_min":-85,"x_max":365,"o":"m 365 957 q 243 828 344 828 q 167 851 201 828 q 102 899 132 875 q 42 924 72 924 q -51 826 -32 924 l -85 826 q 43 956 -64 956 q 149 908 90 956 q 243 861 207 861 q 332 957 313 861 l 365 957 m 160 694 l 160 0 l 121 0 l 121 694 l 160 694 z "},"Ī":{"ha":318,"x_min":8,"x_max":311,"o":"m 311 1093 l 311 1060 l 8 1060 l 8 1093 l 311 1093 m 179 917 l 179 0 l 140 0 l 140 917 l 179 917 z "},"ī":{"ha":279,"x_min":28,"x_max":251,"o":"m 251 871 l 251 838 l 28 838 l 28 871 l 251 871 m 160 694 l 160 0 l 121 0 l 121 694 l 160 694 z "},"Ĭ":{"ha":318,"x_min":-15,"x_max":335,"o":"m 335 1203 q 288 1075 335 1122 q 160 1028 242 1028 q 31 1074 78 1028 q -15 1203 -15 1121 l 17 1203 q 54 1099 17 1138 q 160 1060 92 1060 q 264 1099 226 1060 q 301 1203 301 1138 l 335 1203 m 179 917 l 179 0 l 140 0 l 140 917 l 179 917 z "},"ĭ":{"ha":279,"x_min":-36,"x_max":315,"o":"m 315 981 q 269 853 315 900 q 140 806 222 806 q 11 852 58 806 q -36 981 -36 899 l -3 981 q 35 876 -3 915 q 140 838 72 838 q 244 876 207 838 q 282 981 282 915 l 315 981 m 160 694 l 160 0 l 121 0 l 121 694 l 160 694 z "},"Į":{"ha":318,"x_min":15,"x_max":213,"o":"m 133 -297 q 49 -266 83 -297 q 15 -182 15 -235 q 140 1 15 -94 l 140 917 l 179 917 l 179 0 q 50 -179 50 -100 q 74 -243 50 -219 q 135 -267 99 -267 q 201 -249 171 -267 l 213 -275 q 133 -297 176 -297 z "},"į":{"ha":279,"x_min":-4,"x_max":192,"o":"m 140 831 q 99 871 99 831 q 110 900 99 889 q 140 911 122 911 q 169 900 158 911 q 181 871 181 889 q 169 842 181 853 q 140 831 158 831 m 113 -297 q 29 -266 63 -297 q -4 -182 -4 -235 q 121 1 -4 -94 l 121 694 l 160 694 l 160 0 q 29 -179 29 -101 q 54 -242 29 -218 q 115 -267 79 -267 q 182 -249 151 -267 l 192 -275 q 113 -297 156 -297 z "},"İ":{"ha":318,"x_min":119,"x_max":200,"o":"m 131 1122 q 136 1128 131 1122 q 160 1133 142 1133 q 189 1122 178 1133 q 200 1093 200 1111 q 189 1064 200 1075 q 160 1053 178 1053 q 119 1093 119 1053 q 131 1122 119 1111 m 179 917 l 179 0 l 140 0 l 140 917 l 179 917 z "},"ı":{"ha":279,"x_min":121,"x_max":160,"o":"m 160 694 l 160 0 l 121 0 l 121 694 l 160 694 z "},"Ĳ":{"ha":1028,"x_min":140,"x_max":897,"o":"m 179 917 l 179 0 l 140 0 l 140 917 l 179 917 m 897 917 l 897 294 q 826 68 897 150 q 621 -14 754 -14 q 415 67 482 -14 q 367 282 347 147 l 404 296 q 442 92 386 163 q 619 21 499 21 q 799 94 739 21 q 858 300 858 168 l 858 917 l 897 917 z "},"ĳ":{"ha":558,"x_min":99,"x_max":460,"o":"m 140 831 q 99 871 99 831 q 110 900 99 889 q 140 911 122 911 q 169 900 158 911 q 181 871 181 889 q 169 842 181 853 q 140 831 158 831 m 419 831 q 378 871 378 831 q 390 900 378 889 q 419 911 401 911 q 449 900 438 911 q 460 871 460 889 q 449 842 460 853 q 419 831 438 831 m 160 694 l 160 0 l 121 0 l 121 694 l 160 694 m 439 694 l 439 -86 q 386 -242 439 -186 q 250 -299 333 -299 q 143 -265 183 -299 l 154 -229 q 250 -262 188 -262 q 359 -215 318 -262 q 400 -83 400 -167 l 400 694 l 439 694 z "},"Ĵ":{"ha":710,"x_min":28,"x_max":735,"o":"m 735 1032 l 696 1032 l 560 1206 l 424 1032 l 386 1032 l 538 1233 l 582 1233 l 735 1032 m 579 917 l 579 294 q 508 68 579 150 q 301 -14 436 -14 q 95 67 163 -14 q 49 282 28 147 l 86 296 q 124 92 68 163 q 301 21 179 21 q 481 94 421 21 q 540 300 540 168 l 540 917 l 579 917 z "},"ĵ":{"ha":279,"x_min":-136,"x_max":313,"o":"m 313 808 l 275 808 l 140 983 l 4 808 l -33 808 l 118 1011 l 161 1011 l 313 808 m 160 694 l 160 -86 q 107 -242 160 -186 q -29 -299 54 -299 q -136 -265 -96 -299 l -125 -229 q -29 -262 -92 -262 q 80 -215 39 -262 q 121 -83 121 -167 l 121 694 l 160 694 z "},"Ķ":{"ha":800,"x_min":140,"x_max":778,"o":"m 179 917 l 179 374 l 713 917 l 765 917 l 406 549 l 778 0 l 729 0 l 376 519 l 179 319 l 179 0 l 140 0 l 140 917 l 179 917 m 482 -96 l 404 -319 l 372 -319 l 440 -96 l 482 -96 z "},"ķ":{"ha":692,"x_min":121,"x_max":672,"o":"m 664 694 l 364 413 l 672 0 l 624 0 l 335 386 l 160 219 l 160 0 l 121 0 l 121 1014 l 160 1014 l 160 271 l 610 694 l 664 694 m 457 -96 l 378 -319 l 347 -319 l 415 -96 l 457 -96 z "},"ĸ":{"ha":692,"x_min":121,"x_max":672,"o":"m 160 694 l 160 271 l 610 694 l 664 694 l 364 413 l 672 0 l 624 0 l 335 386 l 160 219 l 160 0 l 121 0 l 121 694 l 160 694 z "},"Ĺ":{"ha":768,"x_min":140,"x_max":747,"o":"m 243 1240 l 285 1240 l 175 1032 l 142 1032 l 243 1240 m 179 35 l 747 35 l 747 0 l 140 0 l 140 917 l 179 917 l 179 35 z "},"ĺ":{"ha":347,"x_min":114,"x_max":335,"o":"m 114 1103 l 199 1292 l 239 1292 l 146 1103 l 114 1103 m 154 1014 l 154 154 q 178 52 154 83 q 251 21 201 21 q 335 38 300 21 l 331 3 q 246 -14 297 -14 q 115 153 115 -14 l 115 1014 l 154 1014 z "},"Ļ":{"ha":768,"x_min":140,"x_max":747,"o":"m 179 35 l 747 35 l 747 0 l 140 0 l 140 917 l 179 917 l 179 35 m 493 -96 l 414 -319 l 383 -319 l 451 -96 l 493 -96 z "},"ļ":{"ha":347,"x_min":115,"x_max":335,"o":"m 154 1014 l 154 154 q 178 52 154 83 q 251 21 201 21 q 335 38 300 21 l 331 3 q 246 -14 297 -14 q 115 153 115 -14 l 115 1014 l 154 1014 m 257 -96 l 178 -319 l 147 -319 l 214 -96 l 257 -96 z "},"Ľ":{"ha":768,"x_min":140,"x_max":747,"o":"m 488 917 l 444 643 l 414 643 l 449 917 l 488 917 m 179 35 l 747 35 l 747 0 l 140 0 l 140 917 l 179 917 l 179 35 z "},"ľ":{"ha":350,"x_min":115,"x_max":342,"o":"m 342 1014 l 297 740 l 268 740 l 303 1014 l 342 1014 m 154 1014 l 154 154 q 178 52 154 83 q 251 21 201 21 q 335 38 300 21 l 331 3 q 246 -14 297 -14 q 115 153 115 -14 l 115 1014 l 154 1014 z "},"Ŀ":{"ha":774,"x_min":140,"x_max":747,"o":"m 179 35 l 747 35 l 747 0 l 140 0 l 140 917 l 179 917 l 179 35 m 519 511 q 525 517 519 511 q 550 522 531 522 q 581 511 569 522 q 592 481 592 500 q 581 450 592 461 q 550 439 569 439 q 519 450 531 439 q 508 481 508 461 q 519 511 508 500 z "},"ŀ":{"ha":438,"x_min":115,"x_max":397,"o":"m 154 1014 l 154 154 q 178 52 154 83 q 251 21 201 21 q 335 38 300 21 l 331 3 q 246 -14 297 -14 q 115 153 115 -14 l 115 1014 l 154 1014 m 325 531 q 331 537 325 531 q 356 543 336 543 q 386 531 375 543 q 397 501 397 519 q 386 472 397 483 q 356 460 375 460 q 325 472 336 460 q 314 501 314 483 q 325 531 314 519 z "},"Ł":{"ha":789,"x_min":19,"x_max":767,"o":"m 199 35 l 767 35 l 767 0 l 160 0 l 160 378 l 19 290 l 19 335 l 160 422 l 160 917 l 199 917 l 199 446 l 479 621 l 479 576 l 199 403 l 199 35 z "},"ł":{"ha":411,"x_min":26,"x_max":381,"o":"m 372 643 l 372 603 l 200 482 l 200 154 q 224 52 200 83 q 297 21 247 21 q 381 38 346 21 l 376 3 q 292 -14 343 -14 q 161 153 161 -14 l 161 454 l 26 361 l 26 401 l 161 496 l 161 1014 l 200 1014 l 200 522 l 372 643 z "},"Ń":{"ha":975,"x_min":140,"x_max":835,"o":"m 579 1240 l 621 1240 l 511 1032 l 476 1032 l 579 1240 m 835 917 l 835 0 l 783 0 l 224 797 l 176 874 l 175 874 l 178 783 l 178 0 l 140 0 l 140 917 l 190 917 l 751 119 l 799 42 l 797 133 l 797 917 l 835 917 z "},"ń":{"ha":808,"x_min":121,"x_max":697,"o":"m 508 1019 l 551 1019 l 426 810 l 393 810 l 508 1019 m 121 0 l 121 694 l 157 694 l 158 528 q 261 659 186 610 q 436 708 336 708 q 627 642 557 708 q 697 454 697 575 l 697 0 l 658 0 l 658 444 q 597 615 658 556 q 431 675 536 675 q 238 598 317 675 q 160 408 160 521 l 160 0 l 121 0 z "},"Ņ":{"ha":975,"x_min":140,"x_max":835,"o":"m 835 917 l 835 0 l 783 0 l 224 797 l 176 874 l 175 874 l 178 783 l 178 0 l 140 0 l 140 917 l 190 917 l 751 119 l 799 42 l 797 133 l 797 917 l 835 917 m 521 -96 l 442 -319 l 410 -319 l 478 -96 l 521 -96 z "},"ņ":{"ha":808,"x_min":121,"x_max":697,"o":"m 121 0 l 121 694 l 157 694 l 158 528 q 261 659 186 610 q 436 708 336 708 q 627 642 557 708 q 697 454 697 575 l 697 0 l 658 0 l 658 444 q 597 615 658 556 q 431 675 536 675 q 238 598 317 675 q 160 408 160 521 l 160 0 l 121 0 m 479 -96 l 400 -319 l 369 -319 l 438 -96 l 479 -96 z "},"Ň":{"ha":975,"x_min":140,"x_max":835,"o":"m 669 1233 l 518 1032 l 472 1032 l 321 1233 l 360 1233 l 494 1060 l 631 1233 l 669 1233 m 835 917 l 835 0 l 783 0 l 224 797 l 176 874 l 175 874 l 178 783 l 178 0 l 140 0 l 140 917 l 190 917 l 751 119 l 799 42 l 797 133 l 797 917 l 835 917 z "},"ň":{"ha":808,"x_min":121,"x_max":697,"o":"m 588 1014 l 435 810 l 392 810 l 240 1014 l 278 1014 l 414 838 l 549 1014 l 588 1014 m 121 0 l 121 694 l 157 694 l 158 528 q 261 659 186 610 q 436 708 336 708 q 627 642 557 708 q 697 454 697 575 l 697 0 l 658 0 l 658 444 q 597 615 658 556 q 431 675 536 675 q 238 598 317 675 q 160 408 160 521 l 160 0 l 121 0 z "},"Ŋ":{"ha":975,"x_min":140,"x_max":835,"o":"m 646 -299 q 540 -265 578 -299 l 550 -229 q 646 -262 583 -262 q 756 -215 714 -262 q 797 -83 797 -167 l 797 1 l 224 797 l 176 876 l 175 876 l 178 783 l 178 0 l 140 0 l 140 917 l 190 917 l 764 119 l 797 67 l 797 917 l 835 917 l 835 -86 q 782 -242 835 -186 q 646 -299 729 -299 z "},"ŋ":{"ha":808,"x_min":121,"x_max":697,"o":"m 121 0 l 121 694 l 157 694 l 158 528 q 261 659 186 610 q 436 708 336 708 q 627 642 557 708 q 697 454 697 575 l 697 -86 q 644 -242 697 -186 q 508 -299 592 -299 q 403 -265 440 -299 l 413 -229 q 508 -262 446 -262 q 617 -215 576 -262 q 658 -83 658 -167 l 658 444 q 597 615 658 556 q 431 675 536 675 q 238 598 317 675 q 160 408 160 521 l 160 0 l 121 0 z "},"Ō":{"ha":1000,"x_min":81,"x_max":919,"o":"m 706 1093 l 706 1060 l 294 1060 l 294 1093 l 706 1093 m 194 803 q 250 867 194 803 q 500 931 307 931 q 806 803 693 931 q 919 458 919 676 q 806 113 919 240 q 500 -14 693 -14 q 194 113 307 -14 q 81 458 81 240 q 194 803 81 676 m 777 778 q 726 837 777 778 q 500 896 675 896 q 223 778 325 896 q 121 458 121 660 q 223 139 121 257 q 500 21 325 21 q 777 139 675 21 q 879 458 879 257 q 777 778 879 660 z "},"ō":{"ha":799,"x_min":72,"x_max":726,"o":"m 606 867 l 606 833 l 194 833 l 194 867 l 606 867 m 400 708 q 636 611 546 708 q 726 347 726 514 q 636 83 726 181 q 400 -14 546 -14 q 163 83 253 -14 q 72 347 72 181 q 163 611 72 514 q 400 708 253 708 m 608 587 q 569 631 608 587 q 400 675 529 675 q 191 587 271 675 q 111 347 111 499 q 191 108 111 196 q 400 19 271 19 q 608 108 529 19 q 688 347 688 196 q 608 587 688 499 z "},"Ŏ":{"ha":1000,"x_min":81,"x_max":919,"o":"m 675 1203 q 628 1075 675 1122 q 500 1028 581 1028 q 372 1075 419 1028 q 325 1203 325 1122 l 358 1203 q 396 1099 358 1138 q 500 1060 433 1060 q 606 1099 568 1060 q 643 1203 643 1138 l 675 1203 m 194 803 q 250 867 194 803 q 500 931 307 931 q 806 803 693 931 q 919 458 919 676 q 806 113 919 240 q 500 -14 693 -14 q 194 113 307 -14 q 81 458 81 240 q 194 803 81 676 m 777 778 q 726 837 777 778 q 500 896 675 896 q 223 778 325 896 q 121 458 121 660 q 223 139 121 257 q 500 21 325 21 q 777 139 675 21 q 879 458 879 257 q 777 778 879 660 z "},"ŏ":{"ha":799,"x_min":72,"x_max":726,"o":"m 575 976 q 528 848 575 894 q 400 801 481 801 q 272 848 319 801 q 225 976 225 894 l 257 976 q 295 872 258 911 q 400 833 332 833 q 504 872 467 833 q 542 976 542 911 l 575 976 m 400 708 q 636 611 546 708 q 726 347 726 514 q 636 83 726 181 q 400 -14 546 -14 q 163 83 253 -14 q 72 347 72 181 q 163 611 72 514 q 400 708 253 708 m 608 587 q 569 631 608 587 q 400 675 529 675 q 191 587 271 675 q 111 347 111 499 q 191 108 111 196 q 400 19 271 19 q 608 108 529 19 q 688 347 688 196 q 608 587 688 499 z "},"Ő":{"ha":1000,"x_min":81,"x_max":919,"o":"m 664 1240 l 706 1240 l 594 1032 l 561 1032 l 664 1240 m 483 1240 l 526 1240 l 415 1032 l 382 1032 l 483 1240 m 194 803 q 250 867 194 803 q 500 931 307 931 q 806 803 693 931 q 919 458 919 676 q 806 113 919 240 q 500 -14 693 -14 q 194 113 307 -14 q 81 458 81 240 q 194 803 81 676 m 777 778 q 726 837 777 778 q 500 896 675 896 q 223 778 325 896 q 121 458 121 660 q 223 139 121 257 q 500 21 325 21 q 777 139 675 21 q 879 458 879 257 q 777 778 879 660 z "},"ő":{"ha":799,"x_min":72,"x_max":726,"o":"m 463 806 l 579 1015 l 622 1015 l 497 806 l 463 806 m 269 806 l 385 1015 l 428 1015 l 303 806 l 269 806 m 400 708 q 636 611 546 708 q 726 347 726 514 q 636 83 726 181 q 400 -14 546 -14 q 163 83 253 -14 q 72 347 72 181 q 163 611 72 514 q 400 708 253 708 m 608 587 q 569 631 608 587 q 400 675 529 675 q 191 587 271 675 q 111 347 111 499 q 191 108 111 196 q 400 19 271 19 q 608 108 529 19 q 688 347 688 196 q 608 587 688 499 z "},"Œ":{"ha":1467,"x_min":81,"x_max":1419,"o":"m 858 35 l 1419 35 l 1419 0 l 821 0 l 821 238 q 478 -14 750 -14 q 188 114 296 -14 q 81 458 81 242 q 188 803 81 675 q 478 931 296 931 q 821 681 753 931 l 821 917 l 1396 917 l 1396 882 l 858 882 l 858 485 l 1292 485 l 1292 450 l 858 450 l 858 35 m 478 21 q 737 129 653 21 q 821 458 821 238 q 737 788 821 679 q 478 896 653 896 q 218 778 315 896 q 121 458 121 660 q 218 139 121 257 q 478 21 315 21 z "},"œ":{"ha":1365,"x_min":72,"x_max":1296,"o":"m 400 -14 q 163 83 253 -14 q 72 347 72 181 q 163 611 72 514 q 400 708 253 708 q 594 647 514 708 q 706 474 675 585 q 815 647 736 585 q 1001 708 894 708 q 1217 617 1139 708 q 1296 369 1296 525 l 1296 347 l 724 347 q 804 108 725 196 q 1011 21 883 21 q 1159 60 1093 21 q 1258 167 1225 99 l 1289 150 q 1178 30 1253 74 q 1011 -14 1104 -14 q 817 48 899 -14 q 706 221 735 110 q 594 48 675 110 q 400 -14 514 -14 m 191 108 q 231 64 191 108 q 400 19 271 19 q 608 108 529 19 q 688 347 688 196 q 608 587 688 499 q 400 675 529 675 q 191 587 271 675 q 111 347 111 499 q 191 108 111 196 m 1000 675 q 810 596 886 675 q 725 382 735 517 l 1260 382 q 1188 595 1257 515 q 1000 675 1119 675 z "},"Ŕ":{"ha":863,"x_min":140,"x_max":811,"o":"m 499 1240 l 540 1240 l 431 1032 l 397 1032 l 499 1240 m 475 917 q 690 849 611 917 q 768 664 768 782 q 707 496 768 561 q 538 415 646 431 l 811 0 l 767 0 l 493 411 l 475 411 l 469 410 l 179 410 l 179 0 l 140 0 l 140 917 l 475 917 m 475 446 q 663 503 596 446 q 729 664 729 560 q 663 824 729 767 q 475 882 596 882 l 179 882 l 179 446 l 475 446 z "},"ŕ":{"ha":493,"x_min":121,"x_max":479,"o":"m 385 1019 l 428 1019 l 303 810 l 269 810 l 385 1019 m 121 0 l 121 694 l 156 694 l 158 526 q 244 658 183 607 q 385 708 304 708 q 479 679 447 708 l 465 646 q 378 674 435 674 q 224 592 288 674 q 160 399 160 510 l 160 0 l 121 0 z "},"Ŗ":{"ha":863,"x_min":140,"x_max":811,"o":"m 475 917 q 690 849 611 917 q 768 664 768 782 q 707 496 768 561 q 538 415 646 431 l 811 0 l 767 0 l 493 411 l 475 411 l 469 410 l 179 410 l 179 0 l 140 0 l 140 917 l 475 917 m 475 446 q 663 503 596 446 q 729 664 729 560 q 663 824 729 767 q 475 882 596 882 l 179 882 l 179 446 l 475 446 m 511 -96 l 432 -319 l 401 -319 l 469 -96 l 511 -96 z "},"ŗ":{"ha":493,"x_min":56,"x_max":479,"o":"m 121 0 l 121 694 l 156 694 l 158 526 q 244 658 183 607 q 385 708 304 708 q 479 679 447 708 l 465 646 q 378 674 435 674 q 224 592 288 674 q 160 399 160 510 l 160 0 l 121 0 m 165 -96 l 86 -319 l 56 -319 l 122 -96 l 165 -96 z "},"Ř":{"ha":863,"x_min":140,"x_max":811,"o":"m 589 1233 l 438 1032 l 392 1032 l 240 1233 l 279 1233 l 414 1060 l 550 1233 l 589 1233 m 475 917 q 690 849 611 917 q 768 664 768 782 q 707 496 768 561 q 538 415 646 431 l 811 0 l 767 0 l 493 411 l 475 411 l 469 410 l 179 410 l 179 0 l 140 0 l 140 917 l 475 917 m 475 446 q 663 503 596 446 q 729 664 729 560 q 663 824 729 767 q 475 882 596 882 l 179 882 l 179 446 l 475 446 z "},"ř":{"ha":493,"x_min":117,"x_max":479,"o":"m 463 1014 l 311 810 l 268 810 l 117 1014 l 154 1014 l 289 838 l 425 1014 l 463 1014 m 121 0 l 121 694 l 156 694 l 158 526 q 244 658 183 607 q 385 708 304 708 q 479 679 447 708 l 465 646 q 378 674 435 674 q 224 592 288 674 q 160 399 160 510 l 160 0 l 121 0 z "},"Ś":{"ha":838,"x_min":58,"x_max":769,"o":"m 496 1240 l 539 1240 l 428 1032 l 394 1032 l 496 1240 m 417 931 q 754 721 683 931 l 722 697 q 414 896 660 896 q 207 835 285 896 q 129 682 129 774 q 181 560 129 606 q 354 488 232 514 l 521 453 q 712 373 654 424 q 769 236 769 322 q 676 55 769 124 q 433 -14 583 -14 q 185 47 285 -14 q 58 222 86 107 l 94 247 q 207 78 115 136 q 435 21 299 21 q 647 77 564 21 q 731 233 731 133 q 679 346 731 303 q 510 414 628 389 l 340 451 q 147 533 206 479 q 89 679 89 588 q 178 857 89 783 q 417 931 268 931 z "},"ś":{"ha":678,"x_min":53,"x_max":611,"o":"m 433 1019 l 476 1019 l 351 810 l 318 810 l 433 1019 m 342 -14 q 155 29 232 -14 q 53 154 78 72 l 88 175 q 176 60 108 100 q 347 21 244 21 q 511 63 450 21 q 572 175 572 104 q 539 259 572 226 q 425 308 506 292 l 265 343 q 85 515 85 382 q 158 653 85 597 q 344 708 232 708 q 606 539 561 708 l 572 518 q 344 675 536 675 q 186 631 249 675 q 124 521 124 588 q 269 381 124 414 l 433 344 q 570 283 529 324 q 611 178 611 242 q 538 38 611 89 q 342 -14 465 -14 z "},"Ŝ":{"ha":838,"x_min":58,"x_max":769,"o":"m 586 1032 l 549 1032 l 413 1206 l 276 1032 l 238 1032 l 389 1233 l 435 1233 l 586 1032 m 417 931 q 754 721 683 931 l 722 697 q 414 896 660 896 q 207 835 285 896 q 129 682 129 774 q 181 560 129 606 q 354 488 232 514 l 521 453 q 712 373 654 424 q 769 236 769 322 q 676 55 769 124 q 433 -14 583 -14 q 185 47 285 -14 q 58 222 86 107 l 94 247 q 207 78 115 136 q 435 21 299 21 q 647 77 564 21 q 731 233 731 133 q 679 346 731 303 q 510 414 628 389 l 340 451 q 147 533 206 479 q 89 679 89 588 q 178 857 89 783 q 417 931 268 931 z "},"ŝ":{"ha":678,"x_min":53,"x_max":611,"o":"m 513 808 l 474 808 l 339 983 l 203 808 l 165 808 l 317 1011 l 360 1011 l 513 808 m 342 -14 q 155 29 232 -14 q 53 154 78 72 l 88 175 q 176 60 108 100 q 347 21 244 21 q 511 63 450 21 q 572 175 572 104 q 539 259 572 226 q 425 308 506 292 l 265 343 q 85 515 85 382 q 158 653 85 597 q 344 708 232 708 q 606 539 561 708 l 572 518 q 344 675 536 675 q 186 631 249 675 q 124 521 124 588 q 269 381 124 414 l 433 344 q 570 283 529 324 q 611 178 611 242 q 538 38 611 89 q 342 -14 465 -14 z "},"Ş":{"ha":838,"x_min":58,"x_max":769,"o":"m 417 931 q 754 721 683 931 l 722 697 q 414 896 660 896 q 207 835 285 896 q 129 682 129 774 q 181 560 129 606 q 354 488 232 514 l 521 453 q 712 373 654 424 q 769 236 769 322 q 683 60 769 128 q 456 -14 597 -8 q 542 -154 542 -68 q 506 -248 542 -212 q 411 -283 469 -283 q 281 -229 331 -283 l 294 -200 q 410 -253 343 -253 q 481 -226 453 -253 q 508 -151 508 -199 q 485 -80 508 -111 q 406 -14 463 -49 q 176 53 268 -7 q 58 222 85 113 l 94 247 q 207 78 115 136 q 435 21 299 21 q 647 77 564 21 q 731 233 731 133 q 679 346 731 303 q 510 414 628 389 l 340 451 q 147 533 206 479 q 89 679 89 588 q 178 857 89 783 q 417 931 268 931 z "},"ş":{"ha":678,"x_min":53,"x_max":611,"o":"m 461 -154 q 425 -248 461 -212 q 331 -283 389 -283 q 199 -229 249 -283 l 213 -200 q 328 -253 261 -253 q 399 -226 372 -253 q 426 -151 426 -199 q 404 -80 426 -111 q 325 -14 382 -49 q 149 33 222 -11 q 53 154 76 76 l 88 175 q 176 60 108 100 q 347 21 244 21 q 511 63 450 21 q 572 175 572 104 q 539 259 572 226 q 425 308 506 292 l 265 343 q 85 515 85 382 q 158 653 85 597 q 344 708 232 708 q 606 539 561 708 l 572 518 q 344 675 536 675 q 186 631 249 675 q 124 521 124 588 q 269 381 124 414 l 433 344 q 570 283 529 324 q 611 178 611 242 q 547 44 611 94 q 374 -12 483 -6 q 461 -154 461 -69 z "},"Š":{"ha":838,"x_min":58,"x_max":769,"o":"m 586 1233 l 435 1032 l 389 1032 l 238 1233 l 276 1233 l 413 1060 l 549 1233 l 586 1233 m 417 931 q 754 721 683 931 l 722 697 q 414 896 660 896 q 207 835 285 896 q 129 682 129 774 q 181 560 129 606 q 354 488 232 514 l 521 453 q 712 373 654 424 q 769 236 769 322 q 676 55 769 124 q 433 -14 583 -14 q 185 47 285 -14 q 58 222 86 107 l 94 247 q 207 78 115 136 q 435 21 299 21 q 647 77 564 21 q 731 233 731 133 q 679 346 731 303 q 510 414 628 389 l 340 451 q 147 533 206 479 q 89 679 89 588 q 178 857 89 783 q 417 931 268 931 z "},"š":{"ha":678,"x_min":53,"x_max":611,"o":"m 513 1014 l 360 810 l 317 810 l 165 1014 l 203 1014 l 339 838 l 474 1014 l 513 1014 m 342 -14 q 155 29 232 -14 q 53 154 78 72 l 88 175 q 176 60 108 100 q 347 21 244 21 q 511 63 450 21 q 572 175 572 104 q 539 259 572 226 q 425 308 506 292 l 265 343 q 85 515 85 382 q 158 653 85 597 q 344 708 232 708 q 606 539 561 708 l 572 518 q 344 675 536 675 q 186 631 249 675 q 124 521 124 588 q 269 381 124 414 l 433 344 q 570 283 529 324 q 611 178 611 242 q 538 38 611 89 q 342 -14 465 -14 z "},"Ţ":{"ha":771,"x_min":21,"x_max":750,"o":"m 750 917 l 750 882 l 406 882 l 406 3 q 486 -65 464 -28 q 508 -154 508 -103 q 472 -248 508 -212 q 378 -283 436 -283 q 247 -229 297 -283 l 261 -200 q 375 -253 310 -253 q 447 -226 419 -253 q 475 -151 475 -199 q 453 -69 475 -104 q 367 0 431 -35 l 367 882 l 21 882 l 21 917 l 750 917 z "},"ţ":{"ha":481,"x_min":21,"x_max":474,"o":"m 464 694 l 464 661 l 199 661 l 199 178 q 335 21 199 21 q 457 72 410 21 l 474 40 q 340 -14 419 -14 q 426 -154 426 -68 q 390 -248 426 -212 q 296 -283 354 -283 q 165 -229 215 -283 l 179 -200 q 293 -253 228 -253 q 365 -226 338 -253 q 393 -151 393 -199 q 369 -78 393 -111 q 285 -10 344 -46 q 160 175 160 15 l 160 661 l 21 661 l 21 694 l 160 694 l 160 872 l 199 883 l 199 694 l 464 694 z "},"Ť":{"ha":771,"x_min":21,"x_max":750,"o":"m 560 1233 l 408 1032 l 363 1032 l 211 1233 l 250 1233 l 386 1060 l 522 1233 l 560 1233 m 750 917 l 750 882 l 406 882 l 406 0 l 367 0 l 367 882 l 21 882 l 21 917 l 750 917 z "},"ť":{"ha":481,"x_min":21,"x_max":474,"o":"m 394 1065 l 350 792 l 321 792 l 354 1065 l 394 1065 m 464 694 l 464 661 l 199 661 l 199 178 q 335 21 199 21 q 457 72 410 21 l 474 40 q 332 -14 419 -14 q 160 175 160 -14 l 160 661 l 21 661 l 21 694 l 160 694 l 160 872 l 199 883 l 199 694 l 464 694 z "},"Ŧ":{"ha":771,"x_min":21,"x_max":750,"o":"m 636 486 l 636 451 l 406 451 l 406 0 l 367 0 l 367 451 l 136 451 l 136 486 l 367 486 l 367 882 l 21 882 l 21 917 l 750 917 l 750 882 l 406 882 l 406 486 l 636 486 z "},"ŧ":{"ha":481,"x_min":21,"x_max":474,"o":"m 464 493 l 464 461 l 199 461 l 199 178 q 335 21 199 21 q 457 72 410 21 l 474 40 q 332 -14 419 -14 q 160 175 160 -14 l 160 461 l 21 461 l 21 493 l 160 493 l 160 661 l 21 661 l 21 694 l 160 694 l 160 872 l 199 883 l 199 694 l 464 694 l 464 661 l 199 661 l 199 493 l 464 493 z "},"Ũ":{"ha":933,"x_min":118,"x_max":815,"o":"m 693 1128 q 571 999 672 999 q 461 1047 519 999 q 368 1094 403 1094 q 275 997 297 1094 l 242 997 q 369 1126 264 1126 q 443 1102 408 1126 q 508 1054 478 1078 q 569 1031 539 1031 q 660 1128 640 1031 l 693 1128 m 815 917 l 815 329 q 724 75 815 164 q 467 -14 632 -14 q 210 75 301 -14 q 118 329 118 164 l 118 917 l 157 917 l 157 335 q 238 102 157 183 q 467 21 318 21 q 696 102 615 21 q 776 335 776 183 l 776 917 l 815 917 z "},"ũ":{"ha":797,"x_min":113,"x_max":676,"o":"m 622 932 q 499 803 601 803 q 390 851 447 803 q 297 899 332 899 q 204 801 226 899 l 171 801 q 299 931 192 931 q 358 915 329 931 q 406 883 388 900 q 449 850 424 865 q 499 835 474 835 q 557 859 536 835 q 589 932 578 883 l 622 932 m 358 -14 q 178 50 243 -14 q 113 233 113 114 l 113 694 l 151 694 l 151 242 q 207 77 151 133 q 367 21 263 21 q 565 102 493 21 q 638 281 638 183 l 638 694 l 676 694 l 676 0 l 640 0 l 639 169 q 538 36 613 86 q 358 -14 463 -14 z "},"Ū":{"ha":933,"x_min":118,"x_max":815,"o":"m 672 1042 l 672 1008 l 261 1008 l 261 1042 l 672 1042 m 815 917 l 815 329 q 724 75 815 164 q 467 -14 632 -14 q 210 75 301 -14 q 118 329 118 164 l 118 917 l 157 917 l 157 335 q 238 102 157 183 q 467 21 318 21 q 696 102 615 21 q 776 335 776 183 l 776 917 l 815 917 z "},"ū":{"ha":797,"x_min":113,"x_max":676,"o":"m 601 846 l 601 813 l 190 813 l 190 846 l 601 846 m 358 -14 q 178 50 243 -14 q 113 233 113 114 l 113 694 l 151 694 l 151 242 q 207 77 151 133 q 367 21 263 21 q 565 102 493 21 q 638 281 638 183 l 638 694 l 676 694 l 676 0 l 640 0 l 639 169 q 538 36 613 86 q 358 -14 463 -14 z "},"Ŭ":{"ha":933,"x_min":118,"x_max":815,"o":"m 642 1151 q 594 1023 642 1069 q 467 976 547 976 q 339 1023 386 976 q 292 1151 292 1069 l 325 1151 q 363 1047 325 1086 q 467 1008 400 1008 q 571 1047 533 1008 q 610 1151 608 1086 l 642 1151 m 815 917 l 815 329 q 724 75 815 164 q 467 -14 632 -14 q 210 75 301 -14 q 118 329 118 164 l 118 917 l 157 917 l 157 335 q 238 102 157 183 q 467 21 318 21 q 696 102 615 21 q 776 335 776 183 l 776 917 l 815 917 z "},"ŭ":{"ha":797,"x_min":113,"x_max":676,"o":"m 571 956 q 524 828 571 875 q 396 781 478 781 q 267 828 314 781 q 221 956 221 875 l 253 956 q 292 851 254 890 q 396 813 329 813 q 500 851 463 813 q 538 956 538 890 l 571 956 m 358 -14 q 178 50 243 -14 q 113 233 113 114 l 113 694 l 151 694 l 151 242 q 207 77 151 133 q 367 21 263 21 q 565 102 493 21 q 638 281 638 183 l 638 694 l 676 694 l 676 0 l 640 0 l 639 169 q 538 36 613 86 q 358 -14 463 -14 z "},"Ů":{"ha":933,"x_min":118,"x_max":815,"o":"m 374 1145 q 392 1162 374 1145 q 464 1179 410 1179 q 553 1145 518 1179 q 589 1058 589 1111 q 553 972 589 1006 q 464 938 518 938 q 374 972 410 938 q 339 1058 339 1006 q 374 1145 339 1111 m 530 1124 q 516 1138 530 1124 q 464 1151 503 1151 q 398 1124 425 1151 q 371 1058 371 1097 q 398 993 371 1019 q 464 967 425 967 q 530 993 503 967 q 557 1058 557 1019 q 530 1124 557 1097 m 815 917 l 815 329 q 724 75 815 164 q 467 -14 632 -14 q 210 75 301 -14 q 118 329 118 164 l 118 917 l 157 917 l 157 335 q 238 102 157 183 q 467 21 318 21 q 696 102 615 21 q 776 335 776 183 l 776 917 l 815 917 z "},"ů":{"ha":797,"x_min":113,"x_max":676,"o":"m 393 1015 q 483 981 447 1015 q 518 894 518 947 q 483 808 518 842 q 393 774 447 774 q 302 808 338 774 q 267 894 267 842 q 302 981 267 947 q 393 1015 338 1015 m 393 988 q 326 960 353 988 q 300 894 300 933 q 327 829 300 856 q 393 803 354 803 q 459 829 432 803 q 486 894 486 856 q 459 960 486 933 q 393 988 432 988 m 358 -14 q 178 50 243 -14 q 113 233 113 114 l 113 694 l 151 694 l 151 242 q 207 77 151 133 q 367 21 263 21 q 565 102 493 21 q 638 281 638 183 l 638 694 l 676 694 l 676 0 l 640 0 l 639 169 q 538 36 613 86 q 358 -14 463 -14 z "},"Ű":{"ha":933,"x_min":118,"x_max":815,"o":"m 629 1189 l 672 1189 l 561 981 l 528 981 l 629 1189 m 450 1189 l 493 1189 l 382 981 l 349 981 l 450 1189 m 815 917 l 815 329 q 724 75 815 164 q 467 -14 632 -14 q 210 75 301 -14 q 118 329 118 164 l 118 917 l 157 917 l 157 335 q 238 102 157 183 q 467 21 318 21 q 696 102 615 21 q 776 335 776 183 l 776 917 l 815 917 z "},"ű":{"ha":797,"x_min":113,"x_max":676,"o":"m 458 785 l 575 994 l 618 994 l 493 785 l 458 785 m 265 785 l 381 994 l 424 994 l 299 785 l 265 785 m 358 -14 q 178 50 243 -14 q 113 233 113 114 l 113 694 l 151 694 l 151 242 q 207 77 151 133 q 367 21 263 21 q 565 102 493 21 q 638 281 638 183 l 638 694 l 676 694 l 676 0 l 640 0 l 639 169 q 538 36 613 86 q 358 -14 463 -14 z "},"Ų":{"ha":933,"x_min":118,"x_max":815,"o":"m 513 -285 q 419 -255 456 -285 q 382 -171 382 -225 q 503 -12 382 -76 q 467 -14 490 -14 q 210 75 301 -14 q 118 329 118 164 l 118 917 l 157 917 l 157 335 q 238 102 157 183 q 467 21 318 21 q 696 102 615 21 q 776 335 776 183 l 776 917 l 815 917 l 815 329 q 753 108 815 193 q 574 -3 690 24 q 450 -81 485 -43 q 415 -168 415 -119 q 443 -232 415 -210 q 514 -254 471 -254 q 608 -229 574 -254 l 618 -257 q 513 -285 578 -285 z "},"ų":{"ha":797,"x_min":113,"x_max":710,"o":"m 358 -14 q 178 50 243 -14 q 113 233 113 114 l 113 694 l 151 694 l 151 242 q 207 77 151 133 q 367 21 263 21 q 565 102 493 21 q 638 281 638 183 l 638 694 l 676 694 l 676 0 q 547 -179 547 -100 q 572 -242 547 -218 q 633 -267 597 -267 q 700 -249 669 -267 l 710 -275 q 631 -297 674 -297 q 547 -266 581 -297 q 514 -182 514 -235 q 640 4 514 -92 l 639 169 q 538 36 613 86 q 358 -14 463 -14 z "},"Ŵ":{"ha":1276,"x_min":35,"x_max":1240,"o":"m 813 1032 l 775 1032 l 639 1206 l 503 1032 l 464 1032 l 617 1233 l 661 1233 l 813 1032 m 332 0 l 35 917 l 76 917 l 358 38 l 615 917 l 663 917 l 919 36 l 1201 917 l 1240 917 l 944 0 l 894 0 l 694 678 l 639 871 l 638 871 l 583 678 l 382 0 l 332 0 z "},"ŵ":{"ha":1097,"x_min":40,"x_max":1057,"o":"m 722 808 l 685 808 l 549 983 l 414 808 l 375 808 l 528 1011 l 571 1011 l 722 808 m 1015 694 l 1057 694 l 825 0 l 786 0 l 549 642 l 311 0 l 272 0 l 40 694 l 82 694 l 292 50 l 528 694 l 568 694 l 804 50 l 1015 694 z "},"Ŷ":{"ha":726,"x_min":21,"x_max":706,"o":"m 538 982 l 500 982 l 364 1156 l 228 982 l 189 982 l 340 1183 l 386 1183 l 538 982 m 706 917 l 383 356 l 383 0 l 344 0 l 344 356 l 21 917 l 67 917 l 246 603 l 364 397 l 481 603 l 660 917 l 706 917 z "},"ŷ":{"ha":678,"x_min":-4,"x_max":649,"o":"m 517 783 l 478 783 l 343 958 l 207 783 l 169 783 l 321 986 l 365 986 l 517 783 m 649 694 l 307 -136 q 226 -262 271 -226 q 114 -299 182 -299 q -4 -253 31 -299 l 11 -221 q 114 -264 43 -264 q 204 -234 167 -264 q 272 -128 242 -204 l 325 -1 l 249 176 l 29 694 l 74 694 l 315 113 l 343 43 l 372 117 l 607 694 l 649 694 z "},"Ÿ":{"ha":726,"x_min":21,"x_max":706,"o":"m 204 1067 q 210 1072 204 1067 q 233 1078 215 1078 q 262 1067 251 1078 q 272 1038 272 1056 q 233 999 272 999 q 204 1009 215 999 q 193 1038 193 1019 q 204 1067 193 1056 m 463 1067 q 468 1072 463 1067 q 492 1078 474 1078 q 520 1067 510 1078 q 531 1038 531 1056 q 492 999 531 999 q 463 1009 474 999 q 451 1038 451 1019 q 463 1067 451 1056 m 706 917 l 383 356 l 383 0 l 344 0 l 344 356 l 21 917 l 67 917 l 246 603 l 364 397 l 481 603 l 660 917 l 706 917 z "},"Ź":{"ha":788,"x_min":47,"x_max":746,"o":"m 476 1240 l 518 1240 l 408 1032 l 375 1032 l 476 1240 m 746 35 l 746 0 l 47 0 l 47 35 l 675 882 l 58 882 l 58 917 l 719 917 l 719 882 l 93 35 l 746 35 z "},"ź":{"ha":672,"x_min":50,"x_max":626,"o":"m 428 1019 l 471 1019 l 346 810 l 313 810 l 428 1019 m 58 0 l 58 32 l 500 589 l 563 661 l 50 661 l 50 694 l 607 694 l 607 663 l 186 128 l 106 33 l 626 33 l 626 0 l 58 0 z "},"Ż":{"ha":788,"x_min":47,"x_max":746,"o":"m 363 1122 q 368 1128 363 1122 q 392 1133 374 1133 q 422 1122 410 1133 q 433 1093 433 1111 q 392 1053 433 1053 q 363 1064 374 1053 q 351 1093 351 1075 q 363 1122 351 1111 m 746 35 l 746 0 l 47 0 l 47 35 l 675 882 l 58 882 l 58 917 l 719 917 l 719 882 l 93 35 l 746 35 z "},"ż":{"ha":672,"x_min":50,"x_max":626,"o":"m 304 900 q 310 906 304 900 q 333 911 315 911 q 363 900 351 911 q 374 871 374 889 q 363 842 374 853 q 333 831 351 831 q 304 842 315 831 q 293 871 293 853 q 304 900 293 889 m 58 0 l 58 32 l 500 589 l 563 661 l 50 661 l 50 694 l 607 694 l 607 663 l 186 128 l 106 33 l 626 33 l 626 0 l 58 0 z "},"Ž":{"ha":788,"x_min":47,"x_max":746,"o":"m 567 1233 l 415 1032 l 369 1032 l 218 1233 l 257 1233 l 392 1060 l 528 1233 l 567 1233 m 746 35 l 746 0 l 47 0 l 47 35 l 675 882 l 58 882 l 58 917 l 719 917 l 719 882 l 93 35 l 746 35 z "},"ž":{"ha":672,"x_min":50,"x_max":626,"o":"m 507 1014 l 356 810 l 311 810 l 160 1014 l 197 1014 l 333 838 l 468 1014 l 507 1014 m 58 0 l 58 32 l 500 589 l 563 661 l 50 661 l 50 694 l 607 694 l 607 663 l 186 128 l 106 33 l 626 33 l 626 0 l 58 0 z "},"ſ":{"ha":304,"x_min":115,"x_max":367,"o":"m 115 0 l 115 821 q 156 969 115 918 q 272 1021 196 1021 q 367 986 329 1021 l 356 956 q 276 986 325 986 q 154 818 154 986 l 154 0 l 115 0 z "},"Ǝ":{"ha":824,"x_min":47,"x_max":685,"o":"m 685 0 l 47 0 l 47 35 l 646 35 l 646 450 l 186 450 l 186 485 l 646 485 l 646 882 l 71 882 l 71 917 l 685 917 l 685 0 z "},"Ə":{"ha":946,"x_min":72,"x_max":864,"o":"m 465 -14 q 179 108 286 -14 q 72 438 72 229 l 72 468 l 824 468 q 726 781 822 667 q 465 896 629 896 q 252 833 340 896 q 121 651 164 769 l 83 665 q 229 862 131 793 q 465 931 328 931 q 756 803 649 931 q 864 458 864 675 q 756 114 864 242 q 465 -14 647 -14 m 113 432 q 210 131 113 242 q 468 21 308 21 q 723 130 628 21 q 824 432 818 239 l 113 432 z "},"ƒ":{"ha":578,"x_min":-62,"x_max":585,"o":"m 533 556 l 533 522 l 299 522 l 221 22 q 32 -178 189 -178 q -62 -153 -19 -178 l -53 -121 q 31 -143 -21 -143 q 182 24 156 -143 l 260 522 l 44 522 l 44 556 l 264 556 l 306 821 q 490 1021 336 1021 q 585 1000 547 1021 l 579 965 q 501 986 542 986 q 346 821 371 986 l 304 556 l 533 556 z "},"Ơ":{"ha":1000,"x_min":81,"x_max":919,"o":"m 500 931 q 617 917 565 931 q 767 957 717 918 q 818 1065 818 996 l 854 1065 q 810 949 854 994 q 689 892 767 904 q 859 728 799 840 q 919 458 919 615 q 806 113 919 240 q 500 -14 693 -14 q 194 113 307 -14 q 81 458 81 240 q 194 803 81 676 q 500 931 307 931 m 777 778 q 726 837 777 778 q 500 896 675 896 q 223 778 325 896 q 121 458 121 660 q 223 139 121 257 q 500 21 325 21 q 777 139 675 21 q 879 458 879 257 q 777 778 879 660 z "},"ơ":{"ha":799,"x_min":72,"x_max":726,"o":"m 400 708 q 500 694 457 708 q 607 734 571 694 q 643 846 643 774 l 676 846 q 560 671 676 700 q 683 544 639 628 q 726 347 726 461 q 636 83 726 181 q 400 -14 546 -14 q 163 83 253 -14 q 72 347 72 181 q 163 611 72 514 q 400 708 253 708 m 608 587 q 569 631 608 587 q 400 675 529 675 q 191 587 271 675 q 111 347 111 499 q 191 108 111 196 q 400 19 271 19 q 608 108 529 19 q 688 347 688 196 q 608 587 688 499 z "},"Ư":{"ha":933,"x_min":118,"x_max":961,"o":"m 961 1065 q 922 943 961 990 q 815 888 882 896 l 815 329 q 724 75 815 164 q 467 -14 632 -14 q 210 75 301 -14 q 118 329 118 164 l 118 917 l 157 917 l 157 335 q 238 102 157 183 q 467 21 318 21 q 696 102 615 21 q 776 335 776 183 l 776 917 l 782 917 q 887 956 849 917 q 925 1065 925 996 l 961 1065 z "},"ư":{"ha":800,"x_min":113,"x_max":819,"o":"m 358 -14 q 178 50 243 -14 q 113 233 113 114 l 113 694 l 151 694 l 151 242 q 207 77 151 133 q 367 21 263 21 q 565 102 493 21 q 638 281 638 183 l 638 694 l 643 694 l 643 701 q 749 741 713 701 q 786 853 786 781 l 819 853 q 676 672 819 689 l 676 0 l 640 0 l 639 169 q 538 36 613 86 q 358 -14 463 -14 z "},"Ǆ":{"ha":1721,"x_min":140,"x_max":1679,"o":"m 1500 1233 l 1349 1032 l 1303 1032 l 1151 1233 l 1190 1233 l 1326 1060 l 1463 1233 l 1500 1233 m 425 917 q 762 803 646 917 q 878 469 878 689 q 762 119 878 239 q 425 0 646 0 l 140 0 l 140 917 l 425 917 m 1679 35 l 1679 0 l 981 0 l 981 35 l 1608 882 l 992 882 l 992 917 l 1653 917 l 1653 882 l 1026 35 l 1679 35 m 426 35 q 733 146 628 35 q 838 469 838 257 q 733 776 838 671 q 426 882 628 882 l 179 882 l 179 35 l 426 35 z "},"ǅ":{"ha":1629,"x_min":140,"x_max":1583,"o":"m 1464 1014 l 1313 810 l 1268 810 l 1117 1014 l 1154 1014 l 1290 838 l 1425 1014 l 1464 1014 m 425 917 q 762 803 646 917 q 878 469 878 689 q 762 119 878 239 q 425 0 646 0 l 140 0 l 140 917 l 425 917 m 426 35 q 733 146 628 35 q 838 469 838 257 q 733 776 838 671 q 426 882 628 882 l 179 882 l 179 35 l 426 35 m 1015 0 l 1015 32 l 1457 589 l 1519 661 l 1007 661 l 1007 694 l 1564 694 l 1564 663 l 1143 128 l 1063 33 l 1583 33 l 1583 0 l 1015 0 z "},"ǆ":{"ha":1496,"x_min":74,"x_max":1450,"o":"m 392 -14 q 161 83 249 -14 q 74 347 74 179 q 162 612 74 515 q 393 708 250 708 q 565 655 493 708 q 664 506 638 601 l 664 1014 l 703 1014 l 703 0 l 667 0 l 665 194 q 566 41 640 96 q 392 -14 492 -14 m 1331 1014 l 1178 810 l 1135 810 l 983 1014 l 1021 1014 l 1157 838 l 1292 1014 l 1331 1014 m 882 0 l 882 32 l 1324 589 l 1386 661 l 874 661 l 874 694 l 1431 694 l 1431 663 l 1010 128 l 929 33 l 1450 33 l 1450 0 l 882 0 m 396 21 q 590 110 515 21 q 664 349 664 199 q 590 586 664 497 q 397 675 515 675 q 190 588 267 675 q 113 347 113 500 q 190 108 113 196 q 396 21 267 21 z "},"Ǉ":{"ha":1478,"x_min":140,"x_max":1347,"o":"m 179 35 l 747 35 l 747 0 l 140 0 l 140 917 l 179 917 l 179 35 m 1347 917 l 1347 294 q 1276 68 1347 150 q 1071 -14 1204 -14 q 865 67 932 -14 q 817 282 797 147 l 854 296 q 892 92 836 163 q 1069 21 949 21 q 1249 94 1189 21 q 1308 300 1308 168 l 1308 917 l 1347 917 z "},"ǈ":{"ha":1047,"x_min":140,"x_max":949,"o":"m 179 35 l 747 35 l 747 0 l 140 0 l 140 917 l 179 917 l 179 35 m 938 842 q 932 836 938 842 q 908 831 926 831 q 879 842 890 831 q 868 871 868 853 q 879 900 868 889 q 908 911 890 911 q 938 900 926 911 q 949 871 949 889 q 938 842 949 853 m 928 694 l 928 -86 q 875 -242 928 -186 q 739 -299 822 -299 q 633 -265 671 -299 l 643 -229 q 739 -262 676 -262 q 848 -215 807 -262 q 889 -83 889 -167 l 889 694 l 928 694 z "},"ǉ":{"ha":626,"x_min":115,"x_max":528,"o":"m 154 1014 l 154 154 q 178 52 154 83 q 251 21 201 21 q 335 38 300 21 l 331 3 q 246 -14 297 -14 q 115 153 115 -14 l 115 1014 l 154 1014 m 486 831 q 457 842 468 831 q 446 871 446 853 q 457 900 446 889 q 486 911 468 911 q 516 900 504 911 q 528 871 528 889 q 486 831 528 831 m 506 694 l 506 -86 q 453 -242 506 -186 q 318 -299 400 -299 q 211 -265 251 -299 l 222 -229 q 318 -262 256 -262 q 426 -215 386 -262 q 467 -83 467 -167 l 467 694 l 506 694 z "},"Ǌ":{"ha":1683,"x_min":140,"x_max":1554,"o":"m 835 917 l 835 0 l 783 0 l 224 797 l 176 874 l 175 874 l 178 783 l 178 0 l 140 0 l 140 917 l 190 917 l 751 119 l 799 42 l 797 133 l 797 917 l 835 917 m 1554 917 l 1554 294 q 1482 68 1554 150 q 1276 -14 1410 -14 q 1070 67 1138 -14 q 1022 282 1003 147 l 1060 296 q 1098 92 1042 163 q 1275 21 1154 21 q 1455 94 1394 21 q 1515 300 1515 168 l 1515 917 l 1554 917 z "},"ǋ":{"ha":1254,"x_min":140,"x_max":1154,"o":"m 835 917 l 835 0 l 783 0 l 224 797 l 176 874 l 175 874 l 178 783 l 178 0 l 140 0 l 140 917 l 190 917 l 751 119 l 799 42 l 797 133 l 797 917 l 835 917 m 1143 842 q 1138 836 1143 842 q 1114 831 1132 831 q 1085 842 1096 831 q 1074 871 1074 853 q 1085 900 1074 889 q 1114 911 1096 911 q 1143 900 1132 911 q 1154 871 1154 889 q 1143 842 1154 853 m 1133 694 l 1133 -86 q 1081 -242 1133 -186 q 944 -299 1028 -299 q 839 -265 876 -299 l 849 -229 q 944 -262 883 -262 q 1053 -215 1013 -262 q 1094 -83 1094 -167 l 1094 694 l 1133 694 z "},"ǌ":{"ha":1088,"x_min":121,"x_max":989,"o":"m 978 842 q 972 836 978 842 q 949 831 967 831 q 919 842 931 831 q 908 871 908 853 q 919 900 908 889 q 949 911 931 911 q 978 900 967 911 q 989 871 989 889 q 978 842 989 853 m 121 0 l 121 694 l 157 694 l 158 528 q 261 659 186 610 q 436 708 336 708 q 627 642 557 708 q 697 454 697 575 l 697 0 l 658 0 l 658 444 q 597 615 658 556 q 431 675 536 675 q 238 598 317 675 q 160 408 160 521 l 160 0 l 121 0 m 968 694 l 968 -86 q 915 -242 968 -186 q 779 -299 863 -299 q 674 -265 711 -299 l 683 -229 q 779 -262 719 -262 q 888 -215 847 -262 q 929 -83 929 -167 l 929 694 l 968 694 z "},"ǝ":{"ha":753,"x_min":69,"x_max":681,"o":"m 361 708 q 592 611 504 708 q 681 347 681 514 q 593 84 681 182 q 369 -14 506 -14 q 151 81 232 -14 q 69 325 69 175 q 71 347 69 342 l 642 347 q 565 588 642 500 q 361 675 488 675 q 211 633 279 675 q 110 521 143 590 l 78 539 q 192 662 117 615 q 361 708 268 708 m 369 21 q 556 99 482 21 q 640 313 631 176 l 107 313 q 181 103 110 186 q 369 21 253 21 z "},"Ǧ":{"ha":951,"x_min":81,"x_max":857,"o":"m 658 1233 l 507 1032 l 461 1032 l 310 1233 l 349 1233 l 485 1060 l 621 1233 l 658 1233 m 499 -14 q 193 113 306 -14 q 81 458 81 240 q 194 803 81 675 q 493 931 307 931 q 850 694 774 931 l 815 676 q 493 896 746 896 q 223 777 325 896 q 121 458 121 658 q 222 138 121 256 q 499 21 322 21 q 625 42 568 21 q 717 95 682 63 q 776 170 753 128 q 810 254 800 213 q 819 336 819 296 l 819 403 l 493 403 l 493 438 l 857 438 l 857 0 l 822 0 l 821 199 q 703 43 788 100 q 499 -14 619 -14 z "},"ǧ":{"ha":699,"x_min":47,"x_max":699,"o":"m 529 1014 l 376 810 l 333 810 l 182 1014 l 219 1014 l 356 838 l 490 1014 l 529 1014 m 463 58 q 628 16 567 58 q 689 -97 689 -26 q 599 -242 689 -186 q 368 -299 510 -299 q 133 -247 219 -299 q 47 -112 47 -196 q 89 -14 47 -56 q 201 42 131 28 q 103 160 103 74 q 138 245 103 211 q 231 286 174 279 q 83 488 83 342 q 160 648 83 588 q 360 708 236 708 q 526 669 456 708 q 574 781 532 739 q 683 822 617 822 l 688 822 l 699 788 l 693 788 q 593 751 629 788 q 553 651 557 715 q 635 488 635 589 q 559 327 635 388 q 360 267 483 267 q 283 272 315 267 q 181 242 221 269 q 140 165 140 214 q 181 86 140 114 q 285 58 221 58 l 463 58 m 360 675 q 188 624 253 675 q 122 488 122 572 q 188 351 122 403 q 360 299 253 299 q 530 351 465 299 q 594 488 594 403 q 530 624 594 572 q 360 675 465 675 m 371 -265 q 572 -219 493 -265 q 651 -101 651 -174 q 599 -9 651 -43 q 456 25 547 25 l 271 25 q 137 -12 189 25 q 85 -107 85 -49 q 162 -222 85 -178 q 371 -265 239 -265 z "},"Ǫ":{"ha":1000,"x_min":81,"x_max":919,"o":"m 518 -296 q 424 -265 461 -296 q 388 -181 388 -235 q 528 -12 388 -79 q 500 -14 519 -14 q 194 113 307 -14 q 81 458 81 240 q 194 803 81 676 q 500 931 307 931 q 806 803 693 931 q 919 458 919 676 q 835 150 919 272 q 600 -4 750 28 q 460 -87 499 -47 q 421 -178 421 -128 q 449 -242 421 -219 q 519 -265 476 -265 q 614 -239 576 -265 l 625 -268 q 518 -296 578 -296 m 777 778 q 726 837 777 778 q 500 896 675 896 q 223 778 325 896 q 121 458 121 660 q 223 139 121 257 q 500 21 325 21 q 777 139 675 21 q 879 458 879 257 q 777 778 879 660 z "},"ǫ":{"ha":799,"x_min":72,"x_max":726,"o":"m 442 -283 q 348 -253 385 -283 q 311 -169 311 -224 q 428 -12 311 -75 q 400 -14 419 -14 q 163 83 253 -14 q 72 347 72 181 q 163 611 72 514 q 400 708 253 708 q 636 611 546 708 q 726 347 726 514 q 671 129 726 218 q 518 6 615 40 q 383 -76 421 -36 q 344 -167 344 -117 q 372 -231 344 -208 q 443 -253 400 -253 q 538 -228 503 -253 l 547 -256 q 442 -283 507 -283 m 608 587 q 569 631 608 587 q 400 675 529 675 q 191 587 271 675 q 111 347 111 499 q 191 108 111 196 q 400 19 271 19 q 608 108 529 19 q 688 347 688 196 q 608 587 688 499 z "},"Ǳ":{"ha":1721,"x_min":140,"x_max":1679,"o":"m 425 917 q 762 803 646 917 q 878 469 878 689 q 762 119 878 239 q 425 0 646 0 l 140 0 l 140 917 l 425 917 m 1679 35 l 1679 0 l 981 0 l 981 35 l 1608 882 l 992 882 l 992 917 l 1653 917 l 1653 882 l 1026 35 l 1679 35 m 426 35 q 733 146 628 35 q 838 469 838 257 q 733 776 838 671 q 426 882 628 882 l 179 882 l 179 35 l 426 35 z "},"ǲ":{"ha":1629,"x_min":140,"x_max":1583,"o":"m 425 917 q 762 803 646 917 q 878 469 878 689 q 762 119 878 239 q 425 0 646 0 l 140 0 l 140 917 l 425 917 m 426 35 q 733 146 628 35 q 838 469 838 257 q 733 776 838 671 q 426 882 628 882 l 179 882 l 179 35 l 426 35 m 1015 0 l 1015 32 l 1457 589 l 1519 661 l 1007 661 l 1007 694 l 1564 694 l 1564 663 l 1143 128 l 1063 33 l 1583 33 l 1583 0 l 1015 0 z "},"ǳ":{"ha":1496,"x_min":74,"x_max":1450,"o":"m 392 -14 q 161 83 249 -14 q 74 347 74 179 q 162 612 74 515 q 393 708 250 708 q 565 655 493 708 q 664 506 638 601 l 664 1014 l 703 1014 l 703 0 l 667 0 l 665 194 q 566 41 640 96 q 392 -14 492 -14 m 882 0 l 882 32 l 1324 589 l 1386 661 l 874 661 l 874 694 l 1431 694 l 1431 663 l 1010 128 l 929 33 l 1450 33 l 1450 0 l 882 0 m 396 21 q 590 110 515 21 q 664 349 664 199 q 590 586 664 497 q 397 675 515 675 q 190 588 267 675 q 113 347 113 500 q 190 108 113 196 q 396 21 267 21 z "},"Ǻ":{"ha":833,"x_min":21,"x_max":813,"o":"m 501 1431 l 543 1431 l 432 1222 l 399 1222 l 501 1431 m 813 0 l 772 0 l 644 311 l 189 311 l 61 0 l 21 0 l 383 892 q 315 933 342 900 q 289 1010 289 965 q 324 1096 289 1061 q 414 1131 360 1131 q 503 1096 468 1131 q 539 1010 539 1061 q 514 935 539 967 q 449 892 489 903 l 813 0 m 480 1075 q 466 1088 480 1075 q 414 1101 453 1101 q 348 1075 375 1101 q 321 1010 321 1049 q 348 943 321 969 q 414 917 375 917 q 480 943 453 917 q 507 1010 507 969 q 480 1075 507 1049 m 203 347 l 629 347 l 417 876 l 203 347 z "},"ǻ":{"ha":731,"x_min":71,"x_max":724,"o":"m 328 1088 l 413 1276 l 451 1276 l 360 1088 l 328 1088 m 252 1006 q 270 1023 252 1006 q 342 1040 288 1040 q 431 1006 396 1040 q 467 919 467 972 q 431 833 467 867 q 342 799 396 799 q 252 833 288 799 q 217 919 217 867 q 252 1006 217 972 m 408 985 q 394 999 408 985 q 342 1013 381 1013 q 276 985 303 1013 q 249 919 249 958 q 276 854 249 881 q 342 828 303 828 q 408 854 381 828 q 435 919 435 881 q 408 985 435 958 m 560 464 q 505 619 560 563 q 350 675 450 675 q 111 517 168 675 l 81 538 q 351 708 143 708 q 533 646 468 708 q 599 468 599 583 l 599 114 q 675 22 599 22 q 724 33 706 22 l 721 1 q 667 -11 700 -11 q 560 119 560 -11 l 560 135 q 455 24 529 63 q 294 -14 381 -14 q 131 31 190 -14 q 71 160 71 76 q 271 346 71 307 l 560 403 l 560 464 m 111 163 q 160 58 111 94 q 300 21 208 21 q 417 42 360 21 q 517 113 474 63 q 560 235 560 164 l 560 369 l 293 317 q 111 163 111 282 z "},"Ǽ":{"ha":1247,"x_min":-7,"x_max":1200,"o":"m 715 1240 l 757 1240 l 647 1032 l 614 1032 l 715 1240 m 650 35 l 1200 35 l 1200 0 l 611 0 l 611 342 l 253 342 l 40 0 l -7 0 l 567 917 l 1178 917 l 1178 882 l 650 882 l 650 483 l 1069 483 l 1069 447 l 650 447 l 650 35 m 274 378 l 611 378 l 611 882 l 586 882 l 274 378 z "},"ǽ":{"ha":1218,"x_min":71,"x_max":1147,"o":"m 693 1019 l 736 1019 l 611 810 l 578 810 l 693 1019 m 296 -14 q 131 31 190 -14 q 71 160 71 76 q 269 346 71 308 l 560 400 l 560 464 q 504 618 560 561 q 350 675 449 675 q 111 517 171 675 l 81 538 q 350 708 144 708 q 515 657 451 708 q 590 507 578 606 q 697 654 621 600 q 867 708 772 708 q 1072 620 997 708 q 1147 388 1147 532 l 1147 365 l 597 365 l 597 342 q 672 106 600 190 q 876 21 744 21 q 1017 60 953 21 q 1115 167 1082 99 l 1146 150 q 1037 30 1110 74 q 876 -14 964 -14 q 690 42 768 -14 q 585 197 613 99 q 484 38 568 90 q 296 -14 400 -14 m 600 400 l 1111 400 q 1043 599 1108 522 q 865 675 978 675 q 685 601 757 675 q 600 400 614 528 m 300 21 q 481 77 403 21 q 560 246 560 133 l 560 367 l 293 317 q 111 163 111 283 q 160 58 111 94 q 300 21 208 21 z "},"Ǿ":{"ha":1000,"x_min":81,"x_max":919,"o":"m 585 1240 l 626 1240 l 515 1032 l 482 1032 l 585 1240 m 119 -43 l 217 90 q 81 458 81 218 q 194 803 81 676 q 500 931 307 931 q 761 847 657 931 l 840 957 l 881 957 l 786 825 q 919 458 919 696 q 806 113 919 240 q 500 -14 693 -14 q 242 69 346 -14 l 161 -43 l 119 -43 m 500 896 q 223 778 325 896 q 121 458 121 660 q 239 122 121 240 l 739 815 q 500 896 640 896 m 879 458 q 763 793 879 676 l 264 100 q 500 21 358 21 q 777 139 675 21 q 879 458 879 257 z "},"ǿ":{"ha":799,"x_min":72,"x_max":726,"o":"m 494 1015 l 538 1015 l 413 806 l 379 806 l 494 1015 m 74 -42 l 168 78 q 72 347 72 178 q 163 611 72 514 q 400 708 253 708 q 608 638 525 708 l 686 736 l 725 736 l 631 617 q 726 347 726 517 q 636 83 726 181 q 400 -14 546 -14 q 190 57 276 -14 l 113 -42 l 74 -42 m 400 675 q 191 587 271 675 q 111 347 111 499 q 192 108 111 196 l 586 608 q 400 675 511 675 m 608 108 q 648 152 608 108 q 688 347 688 196 q 607 588 688 499 l 213 86 q 400 19 288 19 q 608 108 529 19 z "},"Ȁ":{"ha":833,"x_min":21,"x_max":813,"o":"m 254 1240 l 356 1032 l 322 1032 l 211 1240 l 254 1240 m 433 1240 l 535 1032 l 501 1032 l 390 1240 l 433 1240 m 813 0 l 772 0 l 644 311 l 189 311 l 61 0 l 21 0 l 394 917 l 439 917 l 813 0 m 203 347 l 629 347 l 417 876 l 203 347 z "},"ȁ":{"ha":731,"x_min":71,"x_max":724,"o":"m 279 810 l 246 810 l 121 1019 l 164 1019 l 279 810 m 472 810 l 439 810 l 314 1019 l 357 1019 l 472 810 m 560 464 q 505 619 560 563 q 350 675 450 675 q 111 517 168 675 l 81 538 q 351 708 143 708 q 533 646 468 708 q 599 468 599 583 l 599 114 q 675 22 599 22 q 724 33 706 22 l 721 1 q 667 -11 700 -11 q 560 119 560 -11 l 560 135 q 455 24 529 63 q 294 -14 381 -14 q 131 31 190 -14 q 71 160 71 76 q 271 346 71 307 l 560 403 l 560 464 m 111 163 q 160 58 111 94 q 300 21 208 21 q 417 42 360 21 q 517 113 474 63 q 560 235 560 164 l 560 369 l 293 317 q 111 163 111 282 z "},"Ȃ":{"ha":833,"x_min":21,"x_max":813,"o":"m 592 1018 l 558 1018 q 521 1122 558 1083 q 417 1161 483 1161 q 313 1122 350 1161 q 274 1018 275 1083 l 242 1018 q 289 1147 242 1100 q 417 1193 336 1193 q 544 1147 497 1193 q 592 1018 592 1100 m 813 0 l 772 0 l 644 311 l 189 311 l 61 0 l 21 0 l 394 917 l 439 917 l 813 0 m 203 347 l 629 347 l 417 876 l 203 347 z "},"ȃ":{"ha":731,"x_min":71,"x_max":724,"o":"m 519 796 l 488 796 q 450 900 488 861 q 344 939 413 939 q 240 900 278 939 q 203 796 203 861 l 169 796 q 217 924 169 878 q 344 971 264 971 q 473 924 426 971 q 519 796 519 878 m 560 464 q 505 619 560 563 q 350 675 450 675 q 111 517 168 675 l 81 538 q 351 708 143 708 q 533 646 468 708 q 599 468 599 583 l 599 114 q 675 22 599 22 q 724 33 706 22 l 721 1 q 667 -11 700 -11 q 560 119 560 -11 l 560 135 q 455 24 529 63 q 294 -14 381 -14 q 131 31 190 -14 q 71 160 71 76 q 271 346 71 307 l 560 403 l 560 464 m 111 163 q 160 58 111 94 q 300 21 208 21 q 417 42 360 21 q 517 113 474 63 q 560 235 560 164 l 560 369 l 293 317 q 111 163 111 282 z "},"Ȅ":{"ha":824,"x_min":140,"x_max":776,"o":"m 285 1240 l 386 1032 l 353 1032 l 242 1240 l 285 1240 m 464 1240 l 565 1032 l 532 1032 l 422 1240 l 464 1240 m 140 0 l 140 917 l 754 917 l 754 882 l 179 882 l 179 485 l 638 485 l 638 450 l 179 450 l 179 35 l 776 35 l 776 0 l 140 0 z "},"ȅ":{"ha":753,"x_min":72,"x_max":683,"o":"m 315 810 l 282 810 l 157 1019 l 200 1019 l 315 810 m 510 810 l 475 810 l 351 1019 l 393 1019 l 510 810 m 399 -14 q 164 83 256 -14 q 72 347 72 181 q 161 610 72 513 q 388 708 250 708 q 605 617 526 708 q 683 369 683 526 q 682 347 683 353 l 111 347 q 191 108 111 196 q 397 21 271 21 q 546 59 481 21 q 646 167 611 97 l 676 150 q 565 30 639 74 q 399 -14 492 -14 m 388 675 q 198 596 274 675 q 113 382 122 517 l 647 382 q 575 596 643 517 q 388 675 507 675 z "},"Ȇ":{"ha":824,"x_min":140,"x_max":776,"o":"m 622 1018 l 590 1018 q 552 1122 589 1083 q 447 1161 515 1161 q 343 1122 381 1161 q 306 1018 306 1083 l 272 1018 q 319 1147 272 1100 q 447 1193 367 1193 q 575 1147 528 1193 q 622 1018 622 1100 m 140 0 l 140 917 l 754 917 l 754 882 l 179 882 l 179 485 l 638 485 l 638 450 l 179 450 l 179 35 l 776 35 l 776 0 l 140 0 z "},"ȇ":{"ha":753,"x_min":72,"x_max":683,"o":"m 557 796 l 524 796 q 486 900 524 861 q 382 939 449 939 q 276 900 314 939 q 239 796 239 861 l 207 796 q 253 924 207 878 q 382 971 300 971 q 510 924 464 971 q 557 796 557 878 m 399 -14 q 164 83 256 -14 q 72 347 72 181 q 161 610 72 513 q 388 708 250 708 q 605 617 526 708 q 683 369 683 526 q 682 347 683 353 l 111 347 q 191 108 111 196 q 397 21 271 21 q 546 59 481 21 q 646 167 611 97 l 676 150 q 565 30 639 74 q 399 -14 492 -14 m 388 675 q 198 596 274 675 q 113 382 122 517 l 647 382 q 575 596 643 517 q 388 675 507 675 z "},"Ȉ":{"ha":318,"x_min":-46,"x_max":278,"o":"m -4 1240 l 99 1032 l 65 1032 l -46 1240 l -4 1240 m 175 1240 l 278 1032 l 244 1032 l 133 1240 l 175 1240 m 179 917 l 179 0 l 140 0 l 140 917 l 179 917 z "},"ȉ":{"ha":279,"x_min":-85,"x_max":268,"o":"m 74 810 l 40 810 l -85 1019 l -42 1019 l 74 810 m 268 810 l 233 810 l 108 1019 l 151 1019 l 268 810 m 160 694 l 160 0 l 121 0 l 121 694 l 160 694 z "},"Ȋ":{"ha":318,"x_min":-15,"x_max":335,"o":"m 335 1018 l 301 1018 q 264 1122 301 1083 q 160 1161 226 1161 q 54 1122 92 1161 q 17 1018 17 1083 l -15 1018 q 31 1147 -15 1100 q 160 1193 78 1193 q 288 1147 242 1193 q 335 1018 335 1100 m 179 917 l 179 0 l 140 0 l 140 917 l 179 917 z "},"ȋ":{"ha":279,"x_min":-36,"x_max":315,"o":"m 315 796 l 282 796 q 244 900 282 861 q 140 939 207 939 q 35 900 72 939 q -3 796 -3 861 l -36 796 q 11 924 -36 878 q 140 971 58 971 q 269 924 222 971 q 315 796 315 878 m 160 694 l 160 0 l 121 0 l 121 694 l 160 694 z "},"Ȍ":{"ha":1000,"x_min":81,"x_max":919,"o":"m 338 1240 l 439 1032 l 406 1032 l 296 1240 l 338 1240 m 517 1240 l 618 1032 l 585 1032 l 475 1240 l 517 1240 m 194 803 q 250 867 194 803 q 500 931 307 931 q 806 803 693 931 q 919 458 919 676 q 806 113 919 240 q 500 -14 693 -14 q 194 113 307 -14 q 81 458 81 240 q 194 803 81 676 m 777 778 q 726 837 777 778 q 500 896 675 896 q 223 778 325 896 q 121 458 121 660 q 223 139 121 257 q 500 21 325 21 q 777 139 675 21 q 879 458 879 257 q 777 778 879 660 z "},"ȍ":{"ha":799,"x_min":72,"x_max":726,"o":"m 333 806 l 300 806 l 175 1015 l 218 1015 l 333 806 m 528 806 l 493 806 l 369 1015 l 413 1015 l 528 806 m 400 708 q 636 611 546 708 q 726 347 726 514 q 636 83 726 181 q 400 -14 546 -14 q 163 83 253 -14 q 72 347 72 181 q 163 611 72 514 q 400 708 253 708 m 608 587 q 569 631 608 587 q 400 675 529 675 q 191 587 271 675 q 111 347 111 499 q 191 108 111 196 q 400 19 271 19 q 608 108 529 19 q 688 347 688 196 q 608 587 688 499 z "},"Ȏ":{"ha":1000,"x_min":81,"x_max":919,"o":"m 675 1018 l 643 1018 q 606 1122 643 1083 q 500 1161 568 1161 q 396 1122 433 1161 q 358 1018 358 1083 l 325 1018 q 372 1147 325 1100 q 500 1193 419 1193 q 628 1147 581 1193 q 675 1018 675 1100 m 194 803 q 250 867 194 803 q 500 931 307 931 q 806 803 693 931 q 919 458 919 676 q 806 113 919 240 q 500 -14 693 -14 q 194 113 307 -14 q 81 458 81 240 q 194 803 81 676 m 777 778 q 726 837 777 778 q 500 896 675 896 q 223 778 325 896 q 121 458 121 660 q 223 139 121 257 q 500 21 325 21 q 777 139 675 21 q 879 458 879 257 q 777 778 879 660 z "},"ȏ":{"ha":799,"x_min":72,"x_max":726,"o":"m 575 792 l 542 792 q 504 896 542 857 q 400 935 467 935 q 296 896 333 935 q 257 792 258 857 l 225 792 q 272 919 225 872 q 400 967 319 967 q 528 919 481 967 q 575 792 575 872 m 400 708 q 636 611 546 708 q 726 347 726 514 q 636 83 726 181 q 400 -14 546 -14 q 163 83 253 -14 q 72 347 72 181 q 163 611 72 514 q 400 708 253 708 m 608 587 q 569 631 608 587 q 400 675 529 675 q 191 587 271 675 q 111 347 111 499 q 191 108 111 196 q 400 19 271 19 q 608 108 529 19 q 688 347 688 196 q 608 587 688 499 z "},"Ȑ":{"ha":863,"x_min":140,"x_max":811,"o":"m 251 1240 l 353 1032 l 319 1032 l 210 1240 l 251 1240 m 431 1240 l 533 1032 l 499 1032 l 389 1240 l 431 1240 m 475 917 q 690 849 611 917 q 768 664 768 782 q 707 496 768 561 q 538 415 646 431 l 811 0 l 767 0 l 493 411 l 475 411 l 469 410 l 179 410 l 179 0 l 140 0 l 140 917 l 475 917 m 475 446 q 663 503 596 446 q 729 664 729 560 q 663 824 729 767 q 475 882 596 882 l 179 882 l 179 446 l 475 446 z "},"ȑ":{"ha":493,"x_min":65,"x_max":479,"o":"m 224 810 l 190 810 l 65 1019 l 108 1019 l 224 810 m 417 810 l 383 810 l 258 1019 l 301 1019 l 417 810 m 121 0 l 121 694 l 156 694 l 158 526 q 244 658 183 607 q 385 708 304 708 q 479 679 447 708 l 465 646 q 378 674 435 674 q 224 592 288 674 q 160 399 160 510 l 160 0 l 121 0 z "},"Ȓ":{"ha":863,"x_min":140,"x_max":811,"o":"m 590 1018 l 557 1018 q 519 1122 557 1083 q 414 1161 482 1161 q 310 1122 347 1161 q 272 1018 272 1083 l 239 1018 q 286 1147 239 1100 q 414 1193 333 1193 q 543 1147 496 1193 q 590 1018 590 1100 m 475 917 q 690 849 611 917 q 768 664 768 782 q 707 496 768 561 q 538 415 646 431 l 811 0 l 767 0 l 493 411 l 475 411 l 469 410 l 179 410 l 179 0 l 140 0 l 140 917 l 475 917 m 475 446 q 663 503 596 446 q 729 664 729 560 q 663 824 729 767 q 475 882 596 882 l 179 882 l 179 446 l 475 446 z "},"ȓ":{"ha":493,"x_min":114,"x_max":479,"o":"m 464 796 l 432 796 q 394 900 432 861 q 289 939 357 939 q 185 900 222 939 q 147 796 147 861 l 114 796 q 161 924 114 878 q 289 971 208 971 q 417 924 371 971 q 464 796 464 878 m 121 0 l 121 694 l 156 694 l 158 526 q 244 658 183 607 q 385 708 304 708 q 479 679 447 708 l 465 646 q 378 674 435 674 q 224 592 288 674 q 160 399 160 510 l 160 0 l 121 0 z "},"Ȕ":{"ha":933,"x_min":118,"x_max":815,"o":"m 304 1189 l 406 981 l 372 981 l 261 1189 l 304 1189 m 483 1189 l 585 981 l 551 981 l 442 1189 l 483 1189 m 815 917 l 815 329 q 724 75 815 164 q 467 -14 632 -14 q 210 75 301 -14 q 118 329 118 164 l 118 917 l 157 917 l 157 335 q 238 102 157 183 q 467 21 318 21 q 696 102 615 21 q 776 335 776 183 l 776 917 l 815 917 z "},"ȕ":{"ha":797,"x_min":113,"x_max":676,"o":"m 329 785 l 296 785 l 171 994 l 214 994 l 329 785 m 524 785 l 490 785 l 365 994 l 408 994 l 524 785 m 358 -14 q 178 50 243 -14 q 113 233 113 114 l 113 694 l 151 694 l 151 242 q 207 77 151 133 q 367 21 263 21 q 565 102 493 21 q 638 281 638 183 l 638 694 l 676 694 l 676 0 l 640 0 l 639 169 q 538 36 613 86 q 358 -14 463 -14 z "},"Ȗ":{"ha":933,"x_min":118,"x_max":815,"o":"m 642 967 l 610 967 q 571 1071 608 1032 q 467 1110 533 1110 q 363 1071 400 1110 q 325 967 325 1032 l 292 967 q 339 1094 292 1047 q 467 1142 386 1142 q 594 1094 547 1142 q 642 967 642 1047 m 815 917 l 815 329 q 724 75 815 164 q 467 -14 632 -14 q 210 75 301 -14 q 118 329 118 164 l 118 917 l 157 917 l 157 335 q 238 102 157 183 q 467 21 318 21 q 696 102 615 21 q 776 335 776 183 l 776 917 l 815 917 z "},"ȗ":{"ha":797,"x_min":113,"x_max":676,"o":"m 571 771 l 538 771 q 500 875 538 836 q 396 914 463 914 q 292 875 329 914 q 253 771 254 836 l 221 771 q 267 899 221 853 q 396 946 314 946 q 524 899 478 946 q 571 771 571 853 m 358 -14 q 178 50 243 -14 q 113 233 113 114 l 113 694 l 151 694 l 151 242 q 207 77 151 133 q 367 21 263 21 q 565 102 493 21 q 638 281 638 183 l 638 694 l 676 694 l 676 0 l 640 0 l 639 169 q 538 36 613 86 q 358 -14 463 -14 z "},"Ș":{"ha":838,"x_min":58,"x_max":769,"o":"m 417 931 q 754 721 683 931 l 722 697 q 414 896 660 896 q 207 835 285 896 q 129 682 129 774 q 181 560 129 606 q 354 488 232 514 l 521 453 q 712 373 654 424 q 769 236 769 322 q 676 55 769 124 q 433 -14 583 -14 q 185 47 285 -14 q 58 222 86 107 l 94 247 q 207 78 115 136 q 435 21 299 21 q 647 77 564 21 q 731 233 731 133 q 679 346 731 303 q 510 414 628 389 l 340 451 q 147 533 206 479 q 89 679 89 588 q 178 857 89 783 q 417 931 268 931 m 456 -96 l 376 -319 l 346 -319 l 414 -96 l 456 -96 z "},"ș":{"ha":678,"x_min":53,"x_max":611,"o":"m 342 -14 q 155 29 232 -14 q 53 154 78 72 l 88 175 q 176 60 108 100 q 347 21 244 21 q 511 63 450 21 q 572 175 572 104 q 539 259 572 226 q 425 308 506 292 l 265 343 q 85 515 85 382 q 158 653 85 597 q 344 708 232 708 q 606 539 561 708 l 572 518 q 344 675 536 675 q 186 631 249 675 q 124 521 124 588 q 269 381 124 414 l 433 344 q 570 283 529 324 q 611 178 611 242 q 538 38 611 89 q 342 -14 465 -14 m 374 -96 l 296 -319 l 264 -319 l 332 -96 l 374 -96 z "},"Ț":{"ha":771,"x_min":21,"x_max":750,"o":"m 750 917 l 750 882 l 406 882 l 406 0 l 367 0 l 367 882 l 21 882 l 21 917 l 750 917 m 419 -96 l 340 -319 l 310 -319 l 378 -96 l 419 -96 z "},"ț":{"ha":481,"x_min":21,"x_max":474,"o":"m 464 694 l 464 661 l 199 661 l 199 178 q 335 21 199 21 q 457 72 410 21 l 474 40 q 332 -14 419 -14 q 160 175 160 -14 l 160 661 l 21 661 l 21 694 l 160 694 l 160 872 l 199 883 l 199 694 l 464 694 m 340 -96 l 261 -319 l 231 -319 l 299 -96 l 340 -96 z "},"Ȫ":{"ha":1000,"x_min":81,"x_max":919,"o":"m 706 1293 l 706 1260 l 294 1260 l 294 1293 l 706 1293 m 369 1128 q 399 1117 388 1128 q 410 1089 410 1107 q 399 1060 410 1071 q 369 1049 388 1049 q 342 1060 353 1049 q 331 1089 331 1071 q 342 1117 331 1107 q 369 1128 353 1128 m 628 1128 q 657 1117 646 1128 q 668 1089 668 1107 q 657 1060 668 1071 q 628 1049 646 1049 q 599 1060 610 1049 q 589 1089 589 1071 q 628 1128 589 1128 m 194 803 q 250 867 194 803 q 500 931 307 931 q 806 803 693 931 q 919 458 919 676 q 806 113 919 240 q 500 -14 693 -14 q 194 113 307 -14 q 81 458 81 240 q 194 803 81 676 m 777 778 q 726 837 777 778 q 500 896 675 896 q 223 778 325 896 q 121 458 121 660 q 223 139 121 257 q 500 21 325 21 q 777 139 675 21 q 879 458 879 257 q 777 778 879 660 z "},"ȫ":{"ha":799,"x_min":72,"x_max":726,"o":"m 606 1067 l 606 1033 l 194 1033 l 194 1067 l 606 1067 m 241 890 q 246 896 241 890 q 269 901 251 901 q 299 890 288 901 q 310 861 310 879 q 299 833 310 843 q 269 822 288 822 q 231 861 231 822 q 241 890 231 879 m 499 890 q 504 896 499 890 q 528 901 510 901 q 557 890 546 901 q 568 861 568 879 q 557 833 568 843 q 528 822 546 822 q 499 833 510 822 q 488 861 488 843 q 499 890 488 879 m 400 708 q 636 611 546 708 q 726 347 726 514 q 636 83 726 181 q 400 -14 546 -14 q 163 83 253 -14 q 72 347 72 181 q 163 611 72 514 q 400 708 253 708 m 608 587 q 569 631 608 587 q 400 675 529 675 q 191 587 271 675 q 111 347 111 499 q 191 108 111 196 q 400 19 271 19 q 608 108 529 19 q 688 347 688 196 q 608 587 688 499 z "},"Ȭ":{"ha":1000,"x_min":81,"x_max":919,"o":"m 706 1325 l 706 1292 l 294 1292 l 294 1325 l 706 1325 m 726 1179 q 604 1050 706 1050 q 494 1098 553 1050 q 401 1146 436 1146 q 310 1049 329 1146 l 276 1049 q 403 1178 297 1178 q 510 1131 451 1178 q 604 1083 568 1083 q 693 1179 674 1083 l 726 1179 m 194 803 q 250 867 194 803 q 500 931 307 931 q 806 803 693 931 q 919 458 919 676 q 806 113 919 240 q 500 -14 693 -14 q 194 113 307 -14 q 81 458 81 240 q 194 803 81 676 m 777 778 q 726 837 777 778 q 500 896 675 896 q 223 778 325 896 q 121 458 121 660 q 223 139 121 257 q 500 21 325 21 q 777 139 675 21 q 879 458 879 257 q 777 778 879 660 z "},"ȭ":{"ha":799,"x_min":72,"x_max":726,"o":"m 604 1097 l 604 1064 l 194 1064 l 194 1097 l 604 1097 m 626 953 q 503 824 606 824 q 394 872 451 824 q 301 919 336 919 q 208 822 231 919 l 175 822 q 303 951 196 951 q 376 927 342 951 q 442 879 411 903 q 503 856 472 856 q 561 880 540 856 q 593 953 582 904 l 626 953 m 400 708 q 636 611 546 708 q 726 347 726 514 q 636 83 726 181 q 400 -14 546 -14 q 163 83 253 -14 q 72 347 72 181 q 163 611 72 514 q 400 708 253 708 m 608 587 q 569 631 608 587 q 400 675 529 675 q 191 587 271 675 q 111 347 111 499 q 191 108 111 196 q 400 19 271 19 q 608 108 529 19 q 688 347 688 196 q 608 587 688 499 z "},"Ȱ":{"ha":1000,"x_min":81,"x_max":919,"o":"m 706 1299 l 706 1265 l 294 1265 l 294 1299 l 706 1299 m 471 1122 q 476 1128 471 1122 q 500 1133 482 1133 q 529 1122 518 1133 q 540 1093 540 1111 q 500 1053 540 1053 q 471 1064 482 1053 q 460 1093 460 1075 q 471 1122 460 1111 m 194 803 q 250 867 194 803 q 500 931 307 931 q 806 803 693 931 q 919 458 919 676 q 806 113 919 240 q 500 -14 693 -14 q 194 113 307 -14 q 81 458 81 240 q 194 803 81 676 m 777 778 q 726 837 777 778 q 500 896 675 896 q 223 778 325 896 q 121 458 121 660 q 223 139 121 257 q 500 21 325 21 q 777 139 675 21 q 879 458 879 257 q 777 778 879 660 z "},"ȱ":{"ha":799,"x_min":72,"x_max":726,"o":"m 606 1072 l 606 1039 l 194 1039 l 194 1072 l 606 1072 m 371 896 q 376 901 371 896 q 400 907 382 907 q 429 896 418 907 q 440 867 440 885 q 429 837 440 849 q 400 825 418 825 q 371 837 382 825 q 360 867 360 849 q 371 896 360 885 m 400 708 q 636 611 546 708 q 726 347 726 514 q 636 83 726 181 q 400 -14 546 -14 q 163 83 253 -14 q 72 347 72 181 q 163 611 72 514 q 400 708 253 708 m 608 587 q 569 631 608 587 q 400 675 529 675 q 191 587 271 675 q 111 347 111 499 q 191 108 111 196 q 400 19 271 19 q 608 108 529 19 q 688 347 688 196 q 608 587 688 499 z "},"Ȳ":{"ha":726,"x_min":21,"x_max":706,"o":"m 568 1043 l 568 1010 l 158 1010 l 158 1043 l 568 1043 m 706 917 l 383 356 l 383 0 l 344 0 l 344 356 l 21 917 l 67 917 l 246 603 l 364 397 l 481 603 l 660 917 l 706 917 z "},"ȳ":{"ha":678,"x_min":-4,"x_max":649,"o":"m 549 846 l 549 813 l 138 813 l 138 846 l 549 846 m 649 694 l 307 -136 q 226 -262 271 -226 q 114 -299 182 -299 q -4 -253 31 -299 l 11 -221 q 114 -264 43 -264 q 204 -234 167 -264 q 272 -128 242 -204 l 325 -1 l 249 176 l 29 694 l 74 694 l 315 113 l 343 43 l 372 117 l 607 694 l 649 694 z "},"ȷ":{"ha":279,"x_min":-136,"x_max":160,"o":"m 160 694 l 160 -86 q 107 -242 160 -186 q -29 -299 54 -299 q -136 -265 -96 -299 l -125 -229 q -29 -262 -92 -262 q 80 -215 39 -262 q 121 -83 121 -167 l 121 694 l 160 694 z "},"Ɂ":{"ha":699,"x_min":42,"x_max":644,"o":"m 351 931 q 564 855 483 931 q 644 665 644 779 q 574 467 644 539 q 357 367 504 394 l 357 0 l 318 0 l 318 390 q 542 485 479 422 q 604 664 604 547 q 534 829 604 763 q 350 896 464 896 q 160 838 229 896 q 76 675 92 781 l 42 693 q 140 868 63 806 q 351 931 218 931 z "},"ɂ":{"ha":661,"x_min":38,"x_max":608,"o":"m 331 710 q 533 643 458 710 q 608 467 608 576 q 541 288 608 351 q 336 197 474 224 l 336 0 l 297 0 l 297 222 q 509 306 449 253 q 569 464 569 360 q 505 617 569 558 q 329 675 440 675 q 72 460 106 675 l 38 475 q 131 648 57 586 q 331 710 206 710 z "},"ə":{"ha":753,"x_min":75,"x_max":679,"o":"m 369 -14 q 152 74 229 -14 q 75 307 75 163 q 79 368 75 338 l 640 368 q 566 593 635 511 q 383 675 497 675 q 221 633 288 675 q 122 514 154 590 l 90 531 q 383 708 167 708 q 599 612 519 708 q 679 347 679 515 q 598 81 679 176 q 369 -14 517 -14 m 114 307 q 183 97 114 174 q 369 21 253 21 q 567 103 496 21 q 642 332 639 185 l 114 332 l 114 307 z "},"ʹ":{"ha":833,"x_min":65,"x_max":164,"o":"m 164 947 l 100 703 l 65 703 l 121 947 l 164 947 z "},"ʺ":{"ha":372,"x_min":65,"x_max":324,"o":"m 324 947 l 260 703 l 224 703 l 279 947 l 324 947 m 164 947 l 100 703 l 65 703 l 121 947 l 164 947 z "},"ʻ":{"ha":833,"x_min":19,"x_max":136,"o":"m 136 1081 l 63 815 l 19 815 l 106 1081 l 136 1081 z "},"ʼ":{"ha":833,"x_min":74,"x_max":193,"o":"m 138 958 q 178 938 164 958 q 193 883 193 917 q 169 792 193 835 q 99 725 144 749 l 74 744 q 146 808 119 763 q 161 890 172 853 l 158 890 q 132 875 151 875 q 106 887 117 875 q 94 917 94 899 q 106 946 94 933 q 138 958 118 958 z "},"ʾ":{"ha":364,"x_min":79,"x_max":282,"o":"m 118 1014 q 236 972 190 1014 q 282 861 282 929 q 237 751 282 793 q 118 708 192 708 l 79 708 l 79 739 l 118 739 q 212 773 176 739 q 247 861 247 807 q 212 949 247 915 q 118 983 176 983 l 79 983 l 79 1014 l 118 1014 z "},"ʿ":{"ha":364,"x_min":82,"x_max":283,"o":"m 246 708 q 127 750 172 708 q 82 861 82 792 q 127 972 82 929 q 246 1014 172 1014 l 283 1014 l 283 983 l 246 983 q 152 949 188 983 q 117 861 117 915 q 152 773 117 807 q 246 739 188 739 l 283 739 l 283 708 l 246 708 z "},"ˆ":{"ha":751,"x_min":201,"x_max":549,"o":"m 549 808 l 511 808 l 375 983 l 240 808 l 201 808 l 354 1011 l 397 1011 l 549 808 z "},"ˇ":{"ha":751,"x_min":201,"x_max":549,"o":"m 549 1014 l 397 810 l 354 810 l 201 1014 l 240 1014 l 375 838 l 511 1014 l 549 1014 z "},"ˈ":{"ha":263,"x_min":113,"x_max":150,"o":"m 113 1014 l 150 1014 l 150 642 l 113 642 l 113 1014 z "},"ˉ":{"ha":751,"x_min":171,"x_max":581,"o":"m 581 871 l 581 838 l 171 838 l 171 871 l 581 871 z "},"ˊ":{"ha":833,"x_min":338,"x_max":497,"o":"m 454 1019 l 497 1019 l 372 810 l 338 810 l 454 1019 z "},"ˋ":{"ha":751,"x_min":297,"x_max":456,"o":"m 340 1019 l 456 810 l 422 810 l 297 1019 l 340 1019 z "},"ˌ":{"ha":263,"x_min":113,"x_max":150,"o":"m 113 83 l 150 83 l 150 -289 l 113 -289 l 113 83 z "},"˘":{"ha":751,"x_min":200,"x_max":550,"o":"m 550 981 q 503 852 550 899 q 375 806 457 806 q 247 853 294 806 q 200 981 200 900 l 233 981 q 271 876 233 915 q 375 838 308 838 q 481 876 443 838 q 518 981 518 915 l 550 981 z "},"˙":{"ha":751,"x_min":335,"x_max":415,"o":"m 346 900 q 351 906 346 900 q 375 911 357 911 q 404 900 393 911 q 415 871 415 889 q 375 831 415 831 q 346 842 357 831 q 335 871 335 853 q 346 900 335 889 z "},"˚":{"ha":807,"x_min":279,"x_max":529,"o":"m 315 1006 q 332 1023 315 1006 q 404 1040 350 1040 q 494 1006 458 1040 q 529 919 529 972 q 494 833 529 867 q 404 799 458 799 q 315 833 350 799 q 279 919 279 867 q 315 1006 279 972 m 471 985 q 458 999 471 985 q 404 1013 444 1013 q 338 985 364 1013 q 311 919 311 958 q 338 854 311 881 q 404 828 365 828 q 470 854 443 828 q 497 919 497 881 q 471 985 497 958 z "},"˛":{"ha":807,"x_min":286,"x_max":522,"o":"m 417 -283 q 322 -253 358 -283 q 286 -169 286 -224 q 331 -63 286 -108 q 482 22 376 -18 l 511 14 q 361 -72 403 -31 q 319 -167 319 -114 q 347 -231 319 -208 q 418 -253 374 -253 q 513 -228 478 -253 l 522 -256 q 417 -283 482 -283 z "},"˜":{"ha":751,"x_min":150,"x_max":601,"o":"m 601 957 q 478 828 578 828 q 401 851 436 828 q 337 899 367 875 q 276 924 307 924 q 183 826 203 924 l 150 826 q 278 956 171 956 q 383 908 325 956 q 478 861 442 861 q 536 885 515 861 q 568 957 557 908 l 601 957 z "},"˝":{"ha":807,"x_min":228,"x_max":581,"o":"m 421 810 l 538 1019 l 581 1019 l 456 810 l 421 810 m 228 810 l 343 1019 l 386 1019 l 261 810 l 228 810 z "},"̀":{"ha":0,"x_min":-135,"x_max":24,"o":"m -92 1019 l 24 810 l -11 810 l -135 1019 l -92 1019 z "},"́":{"ha":0,"x_min":-21,"x_max":138,"o":"m 94 1019 l 138 1019 l 14 810 l -21 810 l 94 1019 z "},"̂":{"ha":0,"x_min":-174,"x_max":174,"o":"m 174 808 l 135 808 l 0 983 l -135 808 l -174 808 l -22 1011 l 22 1011 l 174 808 z "},"̃":{"ha":0,"x_min":-225,"x_max":226,"o":"m 226 957 q 104 828 206 828 q -6 876 51 828 q -99 924 -64 924 q -192 826 -169 924 l -225 826 q -97 956 -203 956 q 10 908 -49 956 q 103 861 68 861 q 193 957 174 861 l 226 957 z "},"̄":{"ha":0,"x_min":-206,"x_max":206,"o":"m 206 871 l 206 838 l -206 838 l -206 871 l 206 871 z "},"̆":{"ha":0,"x_min":-175,"x_max":175,"o":"m 175 981 q 128 853 175 900 q 0 806 81 806 q -128 853 -81 806 q -175 981 -175 900 l -142 981 q -104 876 -142 915 q 0 838 -67 838 q 104 876 67 838 q 143 981 142 915 l 175 981 z "},"̇":{"ha":0,"x_min":-40,"x_max":40,"o":"m -29 900 q -24 906 -29 900 q 0 911 -18 911 q 29 900 18 911 q 40 871 40 889 q 29 842 40 853 q 0 831 18 831 q -29 842 -18 831 q -40 871 -40 853 q -29 900 -40 889 z "},"̈":{"ha":0,"x_min":-169,"x_max":168,"o":"m -131 906 q -101 895 -112 906 q -90 867 -90 885 q -101 838 -90 849 q -131 826 -112 826 q -159 838 -149 826 q -169 867 -169 849 q -131 906 -169 906 m 128 906 q 157 895 146 906 q 168 867 168 885 q 157 838 168 849 q 128 826 146 826 q 99 838 110 826 q 89 867 89 849 q 128 906 89 906 z "},"̉":{"ha":0,"x_min":278,"x_max":482,"o":"m 379 789 l 364 810 q 446 921 446 861 q 428 966 446 949 q 381 983 411 983 q 306 931 332 983 l 278 950 q 315 997 288 976 q 383 1018 342 1018 q 455 992 428 1018 q 482 926 482 967 q 457 851 482 882 q 379 789 432 821 z "},"̊":{"ha":0,"x_min":-128,"x_max":122,"o":"m -92 1006 q -75 1023 -92 1006 q -3 1040 -57 1040 q 87 1006 51 1040 q 122 919 122 972 q 87 833 122 867 q -3 799 51 799 q -92 833 -57 799 q -128 919 -128 867 q -92 1006 -128 972 m 63 985 q 50 999 63 985 q -3 1013 36 1013 q -69 985 -42 1013 q -96 919 -96 958 q -69 854 -96 881 q -3 828 -42 828 q 63 854 36 828 q 90 919 90 881 q 63 985 90 958 z "},"̋":{"ha":0,"x_min":-131,"x_max":222,"o":"m 64 810 l 179 1019 l 222 1019 l 97 810 l 64 810 m -131 810 l -15 1019 l 28 1019 l -96 810 l -131 810 z "},"̌":{"ha":0,"x_min":-174,"x_max":174,"o":"m 174 1014 l 22 810 l -22 810 l -174 1014 l -135 1014 l 0 838 l 135 1014 l 174 1014 z "},"̏":{"ha":0,"x_min":-225,"x_max":128,"o":"m -65 810 l -100 810 l -225 1019 l -182 1019 l -65 810 m 128 810 l 94 810 l -31 1019 l 13 1019 l 128 810 z "},"̑":{"ha":0,"x_min":-175,"x_max":175,"o":"m 175 796 l 143 796 q 104 900 142 861 q 0 939 67 939 q -104 900 -67 939 q -142 796 -142 861 l -175 796 q -128 924 -175 878 q 0 971 -81 971 q 128 924 81 971 q 175 796 175 878 z "},"̒":{"ha":0,"x_min":346,"x_max":463,"o":"m 463 1081 l 389 815 l 346 815 l 432 1081 l 463 1081 z "},"̛":{"ha":0,"x_min":353,"x_max":529,"o":"m 353 664 l 353 694 q 459 734 422 694 q 496 846 496 774 l 529 846 q 485 711 529 758 q 353 664 440 664 z "},"̣":{"ha":0,"x_min":-10,"x_max":10,"o":"m -10 -176 q 0 -167 -10 -167 q 10 -176 10 -167 q 0 -185 10 -185 q -10 -176 -10 -185 z "},"̤":{"ha":0,"x_min":-169,"x_max":168,"o":"m -159 -143 q -154 -137 -159 -143 q -131 -132 -149 -132 q -101 -143 -112 -132 q -90 -172 -90 -154 q -101 -200 -90 -189 q -131 -211 -112 -211 q -159 -200 -149 -211 q -169 -172 -169 -189 q -159 -143 -169 -154 m 99 -143 q 105 -137 99 -143 q 128 -132 110 -132 q 157 -143 146 -132 q 168 -172 168 -154 q 157 -200 168 -189 q 128 -211 146 -211 q 99 -200 110 -211 q 89 -172 89 -189 q 99 -143 89 -154 z "},"̦":{"ha":0,"x_min":-85,"x_max":25,"o":"m 25 -96 l -54 -319 l -85 -319 l -17 -96 l 25 -96 z "},"̧":{"ha":0,"x_min":-139,"x_max":122,"o":"m -44 4 l -10 11 q 122 -154 122 -49 q 86 -248 122 -212 q -8 -283 50 -283 q -139 -229 -90 -283 l -125 -200 q -11 -253 -78 -253 q 60 -226 33 -253 q 88 -151 88 -199 q 58 -72 88 -107 q -44 4 29 -36 z "},"̨":{"ha":0,"x_min":-225,"x_max":11,"o":"m -96 -283 q -189 -253 -153 -283 q -225 -169 -225 -224 q -180 -63 -225 -108 q -29 22 -135 -18 l 0 14 q -150 -72 -108 -31 q -192 -167 -192 -114 q -165 -231 -192 -208 q -93 -253 -137 -253 q 1 -228 -36 -253 l 11 -256 q -96 -283 -29 -283 z "},"̮":{"ha":0,"x_min":-175,"x_max":175,"o":"m 175 -101 q 128 -230 175 -183 q 0 -276 81 -276 q -128 -230 -81 -276 q -175 -101 -175 -183 l -142 -101 q -104 -206 -142 -167 q 0 -244 -67 -244 q 104 -206 67 -244 q 143 -101 142 -167 l 175 -101 z "},"̱":{"ha":0,"x_min":-206,"x_max":206,"o":"m 206 -143 l 206 -176 l -206 -176 l -206 -143 l 206 -143 z "},"̵":{"ha":0,"x_min":-250,"x_max":249,"o":"m 249 474 l 249 444 l -250 444 l -250 474 l 249 474 z "},"̸":{"ha":0,"x_min":74,"x_max":726,"o":"m 74 -42 l 688 736 l 726 736 l 113 -42 l 74 -42 z "},"Ω":{"ha":1013,"x_min":83,"x_max":929,"o":"m 83 0 l 83 33 l 347 33 q 156 203 225 92 q 88 472 88 314 q 201 806 88 681 q 507 931 315 931 q 811 806 697 931 q 925 472 925 681 q 856 203 925 314 q 664 33 788 92 l 929 33 l 929 0 l 599 0 l 599 35 q 809 191 732 81 q 886 472 886 301 q 783 781 886 665 q 507 896 679 896 q 230 781 333 896 q 126 472 126 665 q 203 191 126 301 q 414 35 281 81 l 414 0 l 83 0 z "},"μ":{"ha":806,"x_min":121,"x_max":685,"o":"m 121 -292 l 121 694 l 160 694 l 160 242 q 218 78 160 136 q 375 21 276 21 q 568 97 490 21 q 646 286 646 172 l 646 694 l 685 694 l 685 0 l 650 0 l 649 171 q 547 38 622 89 q 371 -14 471 -14 q 242 20 297 -14 q 160 117 186 54 l 160 -292 l 121 -292 z "},"π":{"ha":957,"x_min":17,"x_max":932,"o":"m 238 0 l 238 661 l 17 661 l 17 694 l 932 694 l 932 661 l 704 661 l 704 143 q 858 35 704 35 l 851 0 q 665 139 665 0 l 665 661 l 276 661 l 276 0 l 238 0 z "},"Ḉ":{"ha":911,"x_min":81,"x_max":856,"o":"m 564 1240 l 606 1240 l 494 1032 l 461 1032 l 564 1240 m 856 231 q 729 53 821 117 q 506 -14 638 -11 q 592 -154 592 -68 q 556 -248 592 -212 q 461 -283 519 -283 q 329 -229 379 -283 l 343 -200 q 458 -253 392 -253 q 530 -226 503 -253 q 557 -151 557 -199 q 534 -79 557 -111 q 454 -12 511 -47 q 182 128 283 1 q 81 458 81 254 q 192 803 81 675 q 490 931 304 931 q 846 694 775 931 l 808 676 q 492 896 742 896 q 222 778 324 896 q 121 458 121 660 q 222 139 121 257 q 492 21 324 21 q 701 79 615 21 q 817 244 786 138 l 856 231 z "},"ḉ":{"ha":738,"x_min":72,"x_max":678,"o":"m 482 1019 l 525 1019 l 400 810 l 365 810 l 482 1019 m 396 708 q 572 659 500 708 q 671 519 644 610 l 636 501 q 550 630 613 585 q 394 675 488 675 q 190 586 269 675 q 111 347 111 497 q 189 108 111 196 q 392 21 267 21 q 558 70 488 21 q 642 203 628 119 l 678 190 q 586 48 658 103 q 415 -12 514 -7 q 503 -154 503 -69 q 467 -248 503 -212 q 372 -283 431 -283 q 240 -229 290 -283 l 254 -200 q 369 -253 303 -253 q 441 -226 414 -253 q 468 -151 468 -199 q 445 -79 468 -111 q 365 -12 422 -47 q 153 92 233 -4 q 72 347 72 189 q 163 610 72 513 q 396 708 253 708 z "},"Ḍ":{"ha":958,"x_min":140,"x_max":878,"o":"m 425 917 q 762 803 646 917 q 878 469 878 689 q 762 119 878 239 q 425 0 646 0 l 140 0 l 140 917 l 425 917 m 426 35 q 733 146 628 35 q 838 469 838 257 q 733 776 838 671 q 426 882 628 882 l 179 882 l 179 35 l 426 35 m 429 -176 q 439 -167 429 -167 q 449 -176 449 -167 q 439 -185 449 -185 q 429 -176 429 -185 z "},"ḍ":{"ha":824,"x_min":74,"x_max":703,"o":"m 392 -14 q 161 83 249 -14 q 74 347 74 179 q 162 612 74 515 q 393 708 250 708 q 565 655 493 708 q 664 506 638 601 l 664 1014 l 703 1014 l 703 0 l 667 0 l 665 194 q 566 41 640 96 q 392 -14 492 -14 m 396 21 q 590 110 515 21 q 664 349 664 199 q 590 586 664 497 q 397 675 515 675 q 190 588 267 675 q 113 347 113 500 q 190 108 113 196 q 396 21 267 21 m 399 -167 q 408 -176 408 -167 q 399 -185 408 -185 q 390 -176 390 -185 q 399 -167 390 -167 z "},"Ḏ":{"ha":958,"x_min":140,"x_max":878,"o":"m 425 917 q 762 803 646 917 q 878 469 878 689 q 762 119 878 239 q 425 0 646 0 l 140 0 l 140 917 l 425 917 m 426 35 q 733 146 628 35 q 838 469 838 257 q 733 776 838 671 q 426 882 628 882 l 179 882 l 179 35 l 426 35 m 644 -143 l 644 -176 l 233 -176 l 233 -143 l 644 -143 z "},"ḏ":{"ha":824,"x_min":74,"x_max":703,"o":"m 392 -14 q 161 83 249 -14 q 74 347 74 179 q 162 612 74 515 q 393 708 250 708 q 565 655 493 708 q 664 506 638 601 l 664 1014 l 703 1014 l 703 0 l 667 0 l 665 194 q 566 41 640 96 q 392 -14 492 -14 m 396 21 q 590 110 515 21 q 664 349 664 199 q 590 586 664 497 q 397 675 515 675 q 190 588 267 675 q 113 347 113 500 q 190 108 113 196 q 396 21 267 21 m 604 -143 l 604 -176 l 193 -176 l 193 -143 l 604 -143 z "},"Ḕ":{"ha":824,"x_min":140,"x_max":776,"o":"m 365 1414 l 467 1206 l 433 1206 l 322 1414 l 365 1414 m 653 1093 l 653 1060 l 242 1060 l 242 1093 l 653 1093 m 140 0 l 140 917 l 754 917 l 754 882 l 179 882 l 179 485 l 638 485 l 638 450 l 179 450 l 179 35 l 776 35 l 776 0 l 140 0 z "},"ḕ":{"ha":753,"x_min":72,"x_max":683,"o":"m 299 1192 l 401 983 l 367 983 l 257 1192 l 299 1192 m 588 871 l 588 838 l 176 838 l 176 871 l 588 871 m 399 -14 q 164 83 256 -14 q 72 347 72 181 q 161 610 72 513 q 388 708 250 708 q 605 617 526 708 q 683 369 683 526 q 682 347 683 353 l 111 347 q 191 108 111 196 q 397 21 271 21 q 546 59 481 21 q 646 167 611 97 l 676 150 q 565 30 639 74 q 399 -14 492 -14 m 388 675 q 198 596 274 675 q 113 382 122 517 l 647 382 q 575 596 643 517 q 388 675 507 675 z "},"Ḗ":{"ha":824,"x_min":140,"x_max":776,"o":"m 532 1414 l 574 1414 l 463 1206 l 429 1206 l 532 1414 m 653 1093 l 653 1060 l 242 1060 l 242 1093 l 653 1093 m 140 0 l 140 917 l 754 917 l 754 882 l 179 882 l 179 485 l 638 485 l 638 450 l 179 450 l 179 35 l 776 35 l 776 0 l 140 0 z "},"ḗ":{"ha":753,"x_min":72,"x_max":683,"o":"m 465 1192 l 508 1192 l 397 983 l 364 983 l 465 1192 m 588 871 l 588 838 l 176 838 l 176 871 l 588 871 m 399 -14 q 164 83 256 -14 q 72 347 72 181 q 161 610 72 513 q 388 708 250 708 q 605 617 526 708 q 683 369 683 526 q 682 347 683 353 l 111 347 q 191 108 111 196 q 397 21 271 21 q 546 59 481 21 q 646 167 611 97 l 676 150 q 565 30 639 74 q 399 -14 492 -14 m 388 675 q 198 596 274 675 q 113 382 122 517 l 647 382 q 575 596 643 517 q 388 675 507 675 z "},"Ḝ":{"ha":824,"x_min":140,"x_max":776,"o":"m 622 1203 q 575 1075 622 1122 q 447 1028 528 1028 q 319 1075 367 1028 q 272 1203 272 1122 l 306 1203 q 343 1099 306 1138 q 447 1060 381 1060 q 551 1099 514 1060 q 590 1203 589 1138 l 622 1203 m 140 0 l 140 917 l 754 917 l 754 882 l 179 882 l 179 485 l 638 485 l 638 450 l 179 450 l 179 35 l 776 35 l 776 0 l 468 0 q 579 -154 579 -60 q 543 -248 579 -212 q 449 -283 507 -283 q 317 -229 367 -283 l 331 -200 q 446 -253 379 -253 q 517 -226 490 -253 q 544 -151 544 -199 q 517 -72 544 -107 q 419 0 489 -37 l 140 0 z "},"ḝ":{"ha":753,"x_min":72,"x_max":683,"o":"m 557 981 q 510 853 557 900 q 382 806 464 806 q 253 853 300 806 q 207 981 207 900 l 239 981 q 276 876 239 915 q 382 838 314 838 q 486 876 449 838 q 524 981 524 915 l 557 981 m 511 -154 q 474 -248 511 -212 q 379 -283 438 -283 q 249 -229 299 -283 l 263 -200 q 378 -253 311 -253 q 449 -226 422 -253 q 476 -151 476 -199 q 453 -81 476 -112 q 374 -12 431 -49 q 156 91 239 -6 q 72 347 72 188 q 161 610 72 513 q 388 708 250 708 q 605 617 526 708 q 683 369 683 526 q 682 347 683 353 l 111 347 q 191 108 111 196 q 397 21 271 21 q 546 59 481 21 q 646 167 611 97 l 676 150 q 575 36 642 79 q 424 -12 508 -7 q 511 -154 511 -69 m 388 675 q 198 596 274 675 q 113 382 122 517 l 647 382 q 575 596 643 517 q 388 675 507 675 z "},"Ḡ":{"ha":951,"x_min":81,"x_max":857,"o":"m 689 1093 l 689 1060 l 279 1060 l 279 1093 l 689 1093 m 499 -14 q 193 113 306 -14 q 81 458 81 240 q 194 803 81 675 q 493 931 307 931 q 850 694 774 931 l 815 676 q 493 896 746 896 q 223 777 325 896 q 121 458 121 658 q 222 138 121 256 q 499 21 322 21 q 625 42 568 21 q 717 95 682 63 q 776 170 753 128 q 810 254 800 213 q 819 336 819 296 l 819 403 l 493 403 l 493 438 l 857 438 l 857 0 l 822 0 l 821 199 q 703 43 788 100 q 499 -14 619 -14 z "},"ḡ":{"ha":699,"x_min":47,"x_max":699,"o":"m 488 871 l 488 838 l 222 838 l 222 871 l 488 871 m 463 58 q 628 16 567 58 q 689 -97 689 -26 q 599 -242 689 -186 q 368 -299 510 -299 q 133 -247 219 -299 q 47 -112 47 -196 q 89 -14 47 -56 q 201 42 131 28 q 103 160 103 74 q 138 245 103 211 q 231 286 174 279 q 83 488 83 342 q 160 648 83 588 q 360 708 236 708 q 526 669 456 708 q 574 781 532 739 q 683 822 617 822 l 688 822 l 699 788 l 693 788 q 593 751 629 788 q 553 651 557 715 q 635 488 635 589 q 559 327 635 388 q 360 267 483 267 q 283 272 315 267 q 181 242 221 269 q 140 165 140 214 q 181 86 140 114 q 285 58 221 58 l 463 58 m 360 675 q 188 624 253 675 q 122 488 122 572 q 188 351 122 403 q 360 299 253 299 q 530 351 465 299 q 594 488 594 403 q 530 624 594 572 q 360 675 465 675 m 371 -265 q 572 -219 493 -265 q 651 -101 651 -174 q 599 -9 651 -43 q 456 25 547 25 l 271 25 q 137 -12 189 25 q 85 -107 85 -49 q 162 -222 85 -178 q 371 -265 239 -265 z "},"Ḥ":{"ha":976,"x_min":140,"x_max":836,"o":"m 179 917 l 179 485 l 797 485 l 797 917 l 836 917 l 836 0 l 797 0 l 797 450 l 179 450 l 179 0 l 140 0 l 140 917 l 179 917 m 489 -167 q 497 -176 497 -167 q 489 -185 497 -185 q 479 -176 479 -185 q 489 -167 479 -167 z "},"ḥ":{"ha":808,"x_min":121,"x_max":697,"o":"m 121 0 l 121 1014 l 160 1014 l 160 526 q 260 659 186 608 q 436 710 335 710 q 627 643 557 710 q 697 456 697 576 l 697 1 l 658 1 l 658 446 q 597 615 658 556 q 431 675 536 675 q 238 599 317 675 q 160 410 160 522 l 160 0 l 121 0 m 454 -167 q 463 -176 463 -167 q 454 -185 463 -185 q 444 -176 444 -185 q 454 -167 444 -167 z "},"Ḫ":{"ha":976,"x_min":140,"x_max":836,"o":"m 179 917 l 179 485 l 797 485 l 797 917 l 836 917 l 836 0 l 797 0 l 797 450 l 179 450 l 179 0 l 140 0 l 140 917 l 179 917 m 664 -101 q 617 -230 664 -183 q 489 -276 569 -276 q 360 -230 407 -276 q 314 -101 314 -183 l 346 -101 q 383 -206 346 -167 q 489 -244 421 -244 q 593 -206 556 -244 q 631 -101 631 -167 l 664 -101 z "},"ḫ":{"ha":808,"x_min":121,"x_max":697,"o":"m 121 0 l 121 1014 l 160 1014 l 160 526 q 260 659 186 608 q 436 710 335 710 q 627 643 557 710 q 697 456 697 576 l 697 1 l 658 1 l 658 446 q 597 615 658 556 q 431 675 536 675 q 238 599 317 675 q 160 410 160 522 l 160 0 l 121 0 m 629 -101 q 583 -230 629 -183 q 454 -276 536 -276 q 326 -230 372 -276 q 279 -101 279 -183 l 311 -101 q 349 -206 311 -167 q 454 -244 386 -244 q 558 -206 521 -244 q 596 -101 596 -167 l 629 -101 z "},"Ḯ":{"ha":318,"x_min":-11,"x_max":326,"o":"m 243 1440 l 285 1440 l 175 1232 l 142 1232 l 243 1440 m 0 1117 q 6 1123 0 1117 q 29 1128 11 1128 q 58 1117 47 1128 q 69 1089 69 1107 q 58 1060 69 1071 q 29 1049 47 1049 q 0 1060 11 1049 q -11 1089 -11 1071 q 0 1117 -11 1107 m 288 1128 q 326 1089 326 1128 q 316 1060 326 1071 q 288 1049 306 1049 q 258 1060 269 1049 q 247 1089 247 1071 q 258 1117 247 1107 q 288 1128 269 1128 m 179 917 l 179 0 l 140 0 l 140 917 l 179 917 z "},"ḯ":{"ha":279,"x_min":-31,"x_max":307,"o":"m 224 1218 l 265 1218 l 156 1010 l 122 1010 l 224 1218 m 10 906 q 49 867 49 906 q 38 838 49 849 q 10 826 28 826 q -19 838 -8 826 q -31 867 -31 849 q -19 895 -31 885 q 10 906 -8 906 m 268 906 q 307 867 307 906 q 297 838 307 849 q 268 826 286 826 q 239 838 250 826 q 228 867 228 849 q 239 895 228 885 q 268 906 250 906 m 160 694 l 160 0 l 121 0 l 121 694 l 160 694 z "},"Ḷ":{"ha":768,"x_min":140,"x_max":747,"o":"m 179 35 l 747 35 l 747 0 l 140 0 l 140 917 l 179 917 l 179 35 m 468 -167 q 476 -176 476 -167 q 468 -185 476 -185 q 458 -176 458 -185 q 468 -167 458 -167 z "},"ḷ":{"ha":347,"x_min":115,"x_max":335,"o":"m 154 1014 l 154 154 q 178 52 154 83 q 251 21 201 21 q 335 38 300 21 l 331 3 q 246 -14 297 -14 q 115 153 115 -14 l 115 1014 l 154 1014 m 232 -167 q 240 -176 240 -167 q 232 -185 240 -185 q 222 -176 222 -185 q 232 -167 222 -167 z "},"Ḻ":{"ha":768,"x_min":140,"x_max":747,"o":"m 179 35 l 747 35 l 747 0 l 140 0 l 140 917 l 179 917 l 179 35 m 674 -143 l 674 -176 l 263 -176 l 263 -143 l 674 -143 z "},"ḻ":{"ha":347,"x_min":101,"x_max":361,"o":"m 154 1014 l 154 154 q 178 52 154 83 q 251 21 201 21 q 335 38 300 21 l 331 3 q 246 -14 297 -14 q 115 153 115 -14 l 115 1014 l 154 1014 m 361 -143 l 361 -176 l 101 -176 l 101 -143 l 361 -143 z "},"Ṃ":{"ha":1110,"x_min":140,"x_max":969,"o":"m 969 917 l 969 0 l 932 0 l 932 763 l 935 872 l 575 0 l 535 0 l 175 872 l 174 872 l 178 763 l 178 0 l 140 0 l 140 917 l 196 917 l 528 122 l 554 46 l 556 46 l 582 121 l 914 917 l 969 917 m 554 -167 q 564 -176 564 -167 q 554 -185 564 -185 q 546 -176 546 -185 q 554 -167 546 -167 z "},"ṃ":{"ha":1340,"x_min":121,"x_max":1229,"o":"m 121 0 l 121 694 l 157 694 l 158 524 q 260 657 185 606 q 435 708 335 708 q 603 658 536 708 q 686 515 669 607 q 788 656 710 601 q 969 711 867 711 q 1158 644 1088 711 q 1229 457 1229 578 l 1229 3 l 1190 3 l 1190 453 q 1129 618 1190 560 q 964 676 1068 676 q 772 600 850 676 q 694 414 694 524 l 694 0 l 656 0 l 656 450 q 594 616 656 557 q 429 675 533 675 q 238 598 317 675 q 160 410 160 521 l 160 0 l 121 0 m 675 -167 q 683 -176 683 -167 q 675 -185 683 -185 q 665 -176 665 -185 q 675 -167 665 -167 z "},"Ṅ":{"ha":975,"x_min":140,"x_max":835,"o":"m 465 1122 q 471 1128 465 1122 q 494 1133 476 1133 q 524 1122 513 1133 q 536 1093 536 1111 q 494 1053 536 1053 q 465 1064 476 1053 q 454 1093 454 1075 q 465 1122 454 1111 m 835 917 l 835 0 l 783 0 l 224 797 l 176 874 l 175 874 l 178 783 l 178 0 l 140 0 l 140 917 l 190 917 l 751 119 l 799 42 l 797 133 l 797 917 l 835 917 z "},"ṅ":{"ha":808,"x_min":121,"x_max":697,"o":"m 385 900 q 390 906 385 900 q 414 911 396 911 q 443 900 432 911 q 454 871 454 889 q 443 842 454 853 q 414 831 432 831 q 374 871 374 831 q 385 900 374 889 m 121 0 l 121 694 l 157 694 l 158 528 q 261 659 186 610 q 436 708 336 708 q 627 642 557 708 q 697 454 697 575 l 697 0 l 658 0 l 658 444 q 597 615 658 556 q 431 675 536 675 q 238 598 317 675 q 160 408 160 521 l 160 0 l 121 0 z "},"Ṇ":{"ha":975,"x_min":140,"x_max":835,"o":"m 835 917 l 835 0 l 783 0 l 224 797 l 176 874 l 175 874 l 178 783 l 178 0 l 140 0 l 140 917 l 190 917 l 751 119 l 799 42 l 797 133 l 797 917 l 835 917 m 494 -167 q 504 -176 504 -167 q 494 -185 504 -185 q 486 -176 486 -185 q 494 -167 486 -167 z "},"ṇ":{"ha":808,"x_min":121,"x_max":697,"o":"m 121 0 l 121 694 l 157 694 l 158 528 q 261 659 186 610 q 436 708 336 708 q 627 642 557 708 q 697 454 697 575 l 697 0 l 658 0 l 658 444 q 597 615 658 556 q 431 675 536 675 q 238 598 317 675 q 160 408 160 521 l 160 0 l 121 0 m 454 -167 q 463 -176 463 -167 q 454 -185 463 -185 q 444 -176 444 -185 q 454 -167 444 -167 z "},"Ṉ":{"ha":975,"x_min":140,"x_max":835,"o":"m 835 917 l 835 0 l 783 0 l 224 797 l 176 874 l 175 874 l 178 783 l 178 0 l 140 0 l 140 917 l 190 917 l 751 119 l 799 42 l 797 133 l 797 917 l 835 917 m 700 -143 l 700 -176 l 290 -176 l 290 -143 l 700 -143 z "},"ṉ":{"ha":808,"x_min":121,"x_max":697,"o":"m 121 0 l 121 694 l 157 694 l 158 528 q 261 659 186 610 q 436 708 336 708 q 627 642 557 708 q 697 454 697 575 l 697 0 l 658 0 l 658 444 q 597 615 658 556 q 431 675 536 675 q 238 598 317 675 q 160 408 160 521 l 160 0 l 121 0 m 658 -143 l 658 -176 l 249 -176 l 249 -143 l 658 -143 z "},"Ṍ":{"ha":1000,"x_min":81,"x_max":919,"o":"m 583 1471 l 626 1471 l 515 1263 l 482 1263 l 583 1471 m 726 1179 q 604 1050 706 1050 q 494 1098 553 1050 q 401 1146 436 1146 q 310 1049 329 1146 l 276 1049 q 403 1178 297 1178 q 510 1131 451 1178 q 604 1083 568 1083 q 693 1179 674 1083 l 726 1179 m 194 803 q 250 867 194 803 q 500 931 307 931 q 806 803 693 931 q 919 458 919 676 q 806 113 919 240 q 500 -14 693 -14 q 194 113 307 -14 q 81 458 81 240 q 194 803 81 676 m 777 778 q 726 837 777 778 q 500 896 675 896 q 223 778 325 896 q 121 458 121 660 q 223 139 121 257 q 500 21 325 21 q 777 139 675 21 q 879 458 879 257 q 777 778 879 660 z "},"ṍ":{"ha":799,"x_min":72,"x_max":726,"o":"m 483 1244 l 525 1244 l 415 1036 l 382 1036 l 483 1244 m 626 953 q 503 824 606 824 q 394 872 451 824 q 301 919 336 919 q 208 822 231 919 l 175 822 q 303 951 196 951 q 376 927 342 951 q 442 879 411 903 q 503 856 472 856 q 561 880 540 856 q 593 953 582 904 l 626 953 m 400 708 q 636 611 546 708 q 726 347 726 514 q 636 83 726 181 q 400 -14 546 -14 q 163 83 253 -14 q 72 347 72 181 q 163 611 72 514 q 400 708 253 708 m 608 587 q 569 631 608 587 q 400 675 529 675 q 191 587 271 675 q 111 347 111 499 q 191 108 111 196 q 400 19 271 19 q 608 108 529 19 q 688 347 688 196 q 608 587 688 499 z "},"Ṏ":{"ha":1000,"x_min":81,"x_max":919,"o":"m 369 1358 q 399 1348 388 1358 q 410 1319 410 1338 q 399 1290 410 1301 q 369 1279 388 1279 q 341 1290 351 1279 q 331 1319 331 1301 q 369 1358 331 1358 m 628 1358 q 657 1348 646 1358 q 668 1319 668 1338 q 657 1290 668 1301 q 628 1279 646 1279 q 599 1290 610 1279 q 589 1319 589 1301 q 628 1358 589 1358 m 726 1179 q 604 1050 706 1050 q 494 1098 553 1050 q 401 1146 436 1146 q 310 1049 329 1146 l 276 1049 q 403 1178 297 1178 q 510 1131 451 1178 q 604 1083 568 1083 q 693 1179 674 1083 l 726 1179 m 194 803 q 250 867 194 803 q 500 931 307 931 q 806 803 693 931 q 919 458 919 676 q 806 113 919 240 q 500 -14 693 -14 q 194 113 307 -14 q 81 458 81 240 q 194 803 81 676 m 777 778 q 726 837 777 778 q 500 896 675 896 q 223 778 325 896 q 121 458 121 660 q 223 139 121 257 q 500 21 325 21 q 777 139 675 21 q 879 458 879 257 q 777 778 879 660 z "},"ṏ":{"ha":799,"x_min":72,"x_max":726,"o":"m 269 1132 q 308 1093 308 1132 q 298 1064 308 1075 q 269 1053 288 1053 q 240 1064 251 1053 q 229 1093 229 1075 q 240 1122 229 1111 q 269 1132 251 1132 m 528 1132 q 567 1093 567 1132 q 556 1064 567 1075 q 528 1053 546 1053 q 499 1064 510 1053 q 488 1093 488 1075 q 499 1122 488 1111 q 528 1132 510 1132 m 626 953 q 503 824 606 824 q 394 872 451 824 q 301 919 336 919 q 208 822 231 919 l 175 822 q 303 951 196 951 q 376 927 342 951 q 442 879 411 903 q 503 856 472 856 q 561 880 540 856 q 593 953 582 904 l 626 953 m 400 708 q 636 611 546 708 q 726 347 726 514 q 636 83 726 181 q 400 -14 546 -14 q 163 83 253 -14 q 72 347 72 181 q 163 611 72 514 q 400 708 253 708 m 608 587 q 569 631 608 587 q 400 675 529 675 q 191 587 271 675 q 111 347 111 499 q 191 108 111 196 q 400 19 271 19 q 608 108 529 19 q 688 347 688 196 q 608 587 688 499 z "},"Ṑ":{"ha":1000,"x_min":81,"x_max":919,"o":"m 418 1414 l 519 1206 l 486 1206 l 375 1414 l 418 1414 m 706 1093 l 706 1060 l 294 1060 l 294 1093 l 706 1093 m 194 803 q 250 867 194 803 q 500 931 307 931 q 806 803 693 931 q 919 458 919 676 q 806 113 919 240 q 500 -14 693 -14 q 194 113 307 -14 q 81 458 81 240 q 194 803 81 676 m 777 778 q 726 837 777 778 q 500 896 675 896 q 223 778 325 896 q 121 458 121 660 q 223 139 121 257 q 500 21 325 21 q 777 139 675 21 q 879 458 879 257 q 777 778 879 660 z "},"ṑ":{"ha":799,"x_min":72,"x_max":726,"o":"m 317 1188 l 419 979 l 385 979 l 275 1188 l 317 1188 m 606 867 l 606 833 l 194 833 l 194 867 l 606 867 m 400 708 q 636 611 546 708 q 726 347 726 514 q 636 83 726 181 q 400 -14 546 -14 q 163 83 253 -14 q 72 347 72 181 q 163 611 72 514 q 400 708 253 708 m 608 587 q 569 631 608 587 q 400 675 529 675 q 191 587 271 675 q 111 347 111 499 q 191 108 111 196 q 400 19 271 19 q 608 108 529 19 q 688 347 688 196 q 608 587 688 499 z "},"Ṓ":{"ha":1000,"x_min":81,"x_max":919,"o":"m 585 1414 l 626 1414 l 515 1206 l 482 1206 l 585 1414 m 706 1093 l 706 1060 l 294 1060 l 294 1093 l 706 1093 m 194 803 q 250 867 194 803 q 500 931 307 931 q 806 803 693 931 q 919 458 919 676 q 806 113 919 240 q 500 -14 693 -14 q 194 113 307 -14 q 81 458 81 240 q 194 803 81 676 m 777 778 q 726 837 777 778 q 500 896 675 896 q 223 778 325 896 q 121 458 121 660 q 223 139 121 257 q 500 21 325 21 q 777 139 675 21 q 879 458 879 257 q 777 778 879 660 z "},"ṓ":{"ha":799,"x_min":72,"x_max":726,"o":"m 483 1188 l 526 1188 l 415 979 l 382 979 l 483 1188 m 606 867 l 606 833 l 194 833 l 194 867 l 606 867 m 400 708 q 636 611 546 708 q 726 347 726 514 q 636 83 726 181 q 400 -14 546 -14 q 163 83 253 -14 q 72 347 72 181 q 163 611 72 514 q 400 708 253 708 m 608 587 q 569 631 608 587 q 400 675 529 675 q 191 587 271 675 q 111 347 111 499 q 191 108 111 196 q 400 19 271 19 q 608 108 529 19 q 688 347 688 196 q 608 587 688 499 z "},"Ṛ":{"ha":863,"x_min":140,"x_max":811,"o":"m 475 917 q 690 849 611 917 q 768 664 768 782 q 707 496 768 561 q 538 415 646 431 l 811 0 l 767 0 l 493 411 l 475 411 l 469 410 l 179 410 l 179 0 l 140 0 l 140 917 l 475 917 m 475 446 q 663 503 596 446 q 729 664 729 560 q 663 824 729 767 q 475 882 596 882 l 179 882 l 179 446 l 475 446 m 486 -167 q 494 -176 494 -167 q 486 -185 494 -185 q 476 -176 476 -185 q 486 -167 476 -167 z "},"ṛ":{"ha":493,"x_min":121,"x_max":479,"o":"m 121 0 l 121 694 l 156 694 l 158 526 q 244 658 183 607 q 385 708 304 708 q 479 679 447 708 l 465 646 q 378 674 435 674 q 224 592 288 674 q 160 399 160 510 l 160 0 l 121 0 m 140 -167 q 149 -176 149 -167 q 140 -185 149 -185 q 131 -176 131 -185 q 140 -167 131 -167 z "},"Ṟ":{"ha":863,"x_min":140,"x_max":811,"o":"m 475 917 q 690 849 611 917 q 768 664 768 782 q 707 496 768 561 q 538 415 646 431 l 811 0 l 767 0 l 493 411 l 475 411 l 469 410 l 179 410 l 179 0 l 140 0 l 140 917 l 475 917 m 475 446 q 663 503 596 446 q 729 664 729 560 q 663 824 729 767 q 475 882 596 882 l 179 882 l 179 446 l 475 446 m 690 -143 l 690 -176 l 281 -176 l 281 -143 l 690 -143 z "},"ṟ":{"ha":493,"x_min":15,"x_max":479,"o":"m 121 0 l 121 694 l 156 694 l 158 526 q 244 658 183 607 q 385 708 304 708 q 479 679 447 708 l 465 646 q 378 674 435 674 q 224 592 288 674 q 160 399 160 510 l 160 0 l 121 0 m 264 -143 l 264 -176 l 15 -176 l 15 -143 l 264 -143 z "},"Ṡ":{"ha":838,"x_min":58,"x_max":769,"o":"m 383 1122 q 389 1128 383 1122 q 413 1133 394 1133 q 442 1122 431 1133 q 453 1093 453 1111 q 442 1064 453 1075 q 413 1053 431 1053 q 372 1093 372 1053 q 383 1122 372 1111 m 417 931 q 754 721 683 931 l 722 697 q 414 896 660 896 q 207 835 285 896 q 129 682 129 774 q 181 560 129 606 q 354 488 232 514 l 521 453 q 712 373 654 424 q 769 236 769 322 q 676 55 769 124 q 433 -14 583 -14 q 185 47 285 -14 q 58 222 86 107 l 94 247 q 207 78 115 136 q 435 21 299 21 q 647 77 564 21 q 731 233 731 133 q 679 346 731 303 q 510 414 628 389 l 340 451 q 147 533 206 479 q 89 679 89 588 q 178 857 89 783 q 417 931 268 931 z "},"ṡ":{"ha":678,"x_min":53,"x_max":611,"o":"m 310 900 q 315 906 310 900 q 339 911 321 911 q 368 900 357 911 q 379 871 379 889 q 368 842 379 853 q 339 831 357 831 q 299 871 299 831 q 310 900 299 889 m 342 -14 q 155 29 232 -14 q 53 154 78 72 l 88 175 q 176 60 108 100 q 347 21 244 21 q 511 63 450 21 q 572 175 572 104 q 539 259 572 226 q 425 308 506 292 l 265 343 q 85 515 85 382 q 158 653 85 597 q 344 708 232 708 q 606 539 561 708 l 572 518 q 344 675 536 675 q 186 631 249 675 q 124 521 124 588 q 269 381 124 414 l 433 344 q 570 283 529 324 q 611 178 611 242 q 538 38 611 89 q 342 -14 465 -14 z "},"Ṣ":{"ha":838,"x_min":58,"x_max":769,"o":"m 417 931 q 754 721 683 931 l 722 697 q 414 896 660 896 q 207 835 285 896 q 129 682 129 774 q 181 560 129 606 q 354 488 232 514 l 521 453 q 712 373 654 424 q 769 236 769 322 q 676 55 769 124 q 433 -14 583 -14 q 185 47 285 -14 q 58 222 86 107 l 94 247 q 207 78 115 136 q 435 21 299 21 q 647 77 564 21 q 731 233 731 133 q 679 346 731 303 q 510 414 628 389 l 340 451 q 147 533 206 479 q 89 679 89 588 q 178 857 89 783 q 417 931 268 931 m 421 -176 q 431 -167 421 -167 q 440 -176 440 -167 q 431 -185 440 -185 q 421 -176 421 -185 z "},"ṣ":{"ha":678,"x_min":53,"x_max":611,"o":"m 342 -14 q 155 29 232 -14 q 53 154 78 72 l 88 175 q 176 60 108 100 q 347 21 244 21 q 511 63 450 21 q 572 175 572 104 q 539 259 572 226 q 425 308 506 292 l 265 343 q 85 515 85 382 q 158 653 85 597 q 344 708 232 708 q 606 539 561 708 l 572 518 q 344 675 536 675 q 186 631 249 675 q 124 521 124 588 q 269 381 124 414 l 433 344 q 570 283 529 324 q 611 178 611 242 q 538 38 611 89 q 342 -14 465 -14 m 349 -167 q 358 -176 358 -167 q 349 -185 358 -185 q 340 -176 340 -185 q 349 -167 340 -167 z "},"Ṥ":{"ha":838,"x_min":58,"x_max":769,"o":"m 383 1371 q 389 1376 383 1371 q 413 1382 394 1382 q 442 1371 431 1382 q 453 1342 453 1360 q 442 1313 453 1324 q 413 1301 431 1301 q 383 1313 394 1301 q 372 1342 372 1324 q 383 1371 372 1360 m 496 1240 l 539 1240 l 428 1032 l 394 1032 l 496 1240 m 417 931 q 754 721 683 931 l 722 697 q 414 896 660 896 q 207 835 285 896 q 129 682 129 774 q 181 560 129 606 q 354 488 232 514 l 521 453 q 712 373 654 424 q 769 236 769 322 q 676 55 769 124 q 433 -14 583 -14 q 185 47 285 -14 q 58 222 86 107 l 94 247 q 207 78 115 136 q 435 21 299 21 q 647 77 564 21 q 731 233 731 133 q 679 346 731 303 q 510 414 628 389 l 340 451 q 147 533 206 479 q 89 679 89 588 q 178 857 89 783 q 417 931 268 931 z "},"ṥ":{"ha":678,"x_min":53,"x_max":611,"o":"m 310 1136 q 315 1142 310 1136 q 339 1147 321 1147 q 368 1136 357 1147 q 379 1107 379 1125 q 368 1077 379 1089 q 339 1065 357 1065 q 299 1107 299 1065 q 310 1136 299 1125 m 433 1019 l 476 1019 l 351 810 l 318 810 l 433 1019 m 342 -14 q 155 29 232 -14 q 53 154 78 72 l 88 175 q 176 60 108 100 q 347 21 244 21 q 511 63 450 21 q 572 175 572 104 q 539 259 572 226 q 425 308 506 292 l 265 343 q 85 515 85 382 q 158 653 85 597 q 344 708 232 708 q 606 539 561 708 l 572 518 q 344 675 536 675 q 186 631 249 675 q 124 521 124 588 q 269 381 124 414 l 433 344 q 570 283 529 324 q 611 178 611 242 q 538 38 611 89 q 342 -14 465 -14 z "},"Ṧ":{"ha":838,"x_min":58,"x_max":769,"o":"m 383 1361 q 389 1367 383 1361 q 413 1372 394 1372 q 442 1361 431 1372 q 453 1332 453 1350 q 442 1303 453 1314 q 413 1292 431 1292 q 383 1303 394 1292 q 372 1332 372 1314 q 383 1361 372 1350 m 586 1233 l 435 1032 l 389 1032 l 238 1233 l 276 1233 l 413 1060 l 549 1233 l 586 1233 m 417 931 q 754 721 683 931 l 722 697 q 414 896 660 896 q 207 835 285 896 q 129 682 129 774 q 181 560 129 606 q 354 488 232 514 l 521 453 q 712 373 654 424 q 769 236 769 322 q 676 55 769 124 q 433 -14 583 -14 q 185 47 285 -14 q 58 222 86 107 l 94 247 q 207 78 115 136 q 435 21 299 21 q 647 77 564 21 q 731 233 731 133 q 679 346 731 303 q 510 414 628 389 l 340 451 q 147 533 206 479 q 89 679 89 588 q 178 857 89 783 q 417 931 268 931 z "},"ṧ":{"ha":678,"x_min":53,"x_max":611,"o":"m 310 1144 q 315 1150 310 1144 q 339 1156 321 1156 q 368 1144 357 1156 q 379 1115 379 1133 q 368 1085 379 1097 q 339 1074 357 1074 q 299 1115 299 1074 q 310 1144 299 1133 m 513 1014 l 360 810 l 317 810 l 165 1014 l 203 1014 l 339 838 l 474 1014 l 513 1014 m 342 -14 q 155 29 232 -14 q 53 154 78 72 l 88 175 q 176 60 108 100 q 347 21 244 21 q 511 63 450 21 q 572 175 572 104 q 539 259 572 226 q 425 308 506 292 l 265 343 q 85 515 85 382 q 158 653 85 597 q 344 708 232 708 q 606 539 561 708 l 572 518 q 344 675 536 675 q 186 631 249 675 q 124 521 124 588 q 269 381 124 414 l 433 344 q 570 283 529 324 q 611 178 611 242 q 538 38 611 89 q 342 -14 465 -14 z "},"Ṩ":{"ha":838,"x_min":58,"x_max":769,"o":"m 383 1122 q 389 1128 383 1122 q 413 1133 394 1133 q 442 1122 431 1133 q 453 1093 453 1111 q 442 1064 453 1075 q 413 1053 431 1053 q 372 1093 372 1053 q 383 1122 372 1111 m 417 931 q 754 721 683 931 l 722 697 q 414 896 660 896 q 207 835 285 896 q 129 682 129 774 q 181 560 129 606 q 354 488 232 514 l 521 453 q 712 373 654 424 q 769 236 769 322 q 676 55 769 124 q 433 -14 583 -14 q 185 47 285 -14 q 58 222 86 107 l 94 247 q 207 78 115 136 q 435 21 299 21 q 647 77 564 21 q 731 233 731 133 q 679 346 731 303 q 510 414 628 389 l 340 451 q 147 533 206 479 q 89 679 89 588 q 178 857 89 783 q 417 931 268 931 m 421 -176 q 431 -167 421 -167 q 440 -176 440 -167 q 431 -185 440 -185 q 421 -176 421 -185 z "},"ṩ":{"ha":678,"x_min":53,"x_max":611,"o":"m 310 900 q 315 906 310 900 q 339 911 321 911 q 368 900 357 911 q 379 871 379 889 q 368 842 379 853 q 339 831 357 831 q 299 871 299 831 q 310 900 299 889 m 342 -14 q 155 29 232 -14 q 53 154 78 72 l 88 175 q 176 60 108 100 q 347 21 244 21 q 511 63 450 21 q 572 175 572 104 q 539 259 572 226 q 425 308 506 292 l 265 343 q 85 515 85 382 q 158 653 85 597 q 344 708 232 708 q 606 539 561 708 l 572 518 q 344 675 536 675 q 186 631 249 675 q 124 521 124 588 q 269 381 124 414 l 433 344 q 570 283 529 324 q 611 178 611 242 q 538 38 611 89 q 342 -14 465 -14 m 349 -167 q 358 -176 358 -167 q 349 -185 358 -185 q 340 -176 340 -185 q 349 -167 340 -167 z "},"Ṭ":{"ha":771,"x_min":21,"x_max":750,"o":"m 750 917 l 750 882 l 406 882 l 406 0 l 367 0 l 367 882 l 21 882 l 21 917 l 750 917 m 386 -167 q 394 -176 394 -167 q 386 -185 394 -185 q 376 -176 376 -185 q 386 -167 376 -167 z "},"ṭ":{"ha":481,"x_min":21,"x_max":474,"o":"m 464 694 l 464 661 l 199 661 l 199 178 q 335 21 199 21 q 457 72 410 21 l 474 40 q 332 -14 419 -14 q 160 175 160 -14 l 160 661 l 21 661 l 21 694 l 160 694 l 160 872 l 199 883 l 199 694 l 464 694 m 315 -167 q 324 -176 324 -167 q 315 -185 324 -185 q 306 -176 306 -185 q 315 -167 306 -167 z "},"Ṯ":{"ha":771,"x_min":21,"x_max":750,"o":"m 750 917 l 750 882 l 406 882 l 406 0 l 367 0 l 367 882 l 21 882 l 21 917 l 750 917 m 590 -143 l 590 -176 l 181 -176 l 181 -143 l 590 -143 z "},"ṯ":{"ha":481,"x_min":21,"x_max":521,"o":"m 464 694 l 464 661 l 199 661 l 199 178 q 335 21 199 21 q 457 72 410 21 l 474 40 q 332 -14 419 -14 q 160 175 160 -14 l 160 661 l 21 661 l 21 694 l 160 694 l 160 872 l 199 883 l 199 694 l 464 694 m 521 -143 l 521 -176 l 110 -176 l 110 -143 l 521 -143 z "},"Ṹ":{"ha":933,"x_min":118,"x_max":815,"o":"m 550 1419 l 593 1419 l 482 1211 l 449 1211 l 550 1419 m 693 1128 q 571 999 672 999 q 461 1047 519 999 q 368 1094 403 1094 q 275 997 297 1094 l 242 997 q 369 1126 264 1126 q 443 1102 408 1126 q 508 1054 478 1078 q 569 1031 539 1031 q 660 1128 640 1031 l 693 1128 m 815 917 l 815 329 q 724 75 815 164 q 467 -14 632 -14 q 210 75 301 -14 q 118 329 118 164 l 118 917 l 157 917 l 157 335 q 238 102 157 183 q 467 21 318 21 q 696 102 615 21 q 776 335 776 183 l 776 917 l 815 917 z "},"ṹ":{"ha":797,"x_min":113,"x_max":676,"o":"m 479 1224 l 521 1224 l 411 1015 l 378 1015 l 479 1224 m 622 932 q 499 803 601 803 q 390 851 447 803 q 297 899 332 899 q 204 801 226 899 l 171 801 q 299 931 192 931 q 358 915 329 931 q 406 883 388 900 q 449 850 424 865 q 499 835 474 835 q 557 859 536 835 q 589 932 578 883 l 622 932 m 358 -14 q 178 50 243 -14 q 113 233 113 114 l 113 694 l 151 694 l 151 242 q 207 77 151 133 q 367 21 263 21 q 565 102 493 21 q 638 281 638 183 l 638 694 l 676 694 l 676 0 l 640 0 l 639 169 q 538 36 613 86 q 358 -14 463 -14 z "},"Ṻ":{"ha":933,"x_min":118,"x_max":815,"o":"m 336 1250 q 365 1240 354 1250 q 376 1211 376 1229 q 365 1182 376 1193 q 336 1171 354 1171 q 308 1182 318 1171 q 297 1211 297 1193 q 336 1250 297 1250 m 594 1250 q 624 1240 613 1250 q 635 1211 635 1229 q 624 1182 635 1193 q 594 1171 613 1171 q 566 1182 576 1171 q 556 1211 556 1193 q 594 1250 556 1250 m 672 1042 l 672 1008 l 261 1008 l 261 1042 l 672 1042 m 815 917 l 815 329 q 724 75 815 164 q 467 -14 632 -14 q 210 75 301 -14 q 118 329 118 164 l 118 917 l 157 917 l 157 335 q 238 102 157 183 q 467 21 318 21 q 696 102 615 21 q 776 335 776 183 l 776 917 l 815 917 z "},"ṻ":{"ha":797,"x_min":113,"x_max":676,"o":"m 265 1054 q 294 1044 283 1054 q 306 1015 306 1033 q 294 986 306 997 q 265 975 283 975 q 237 986 247 975 q 226 1015 226 997 q 265 1054 226 1054 m 494 1044 q 500 1049 494 1044 q 524 1054 506 1054 q 553 1044 542 1054 q 564 1015 564 1033 q 553 986 564 997 q 524 975 542 975 q 494 986 506 975 q 483 1015 483 997 q 494 1044 483 1033 m 601 846 l 601 813 l 190 813 l 190 846 l 601 846 m 358 -14 q 178 50 243 -14 q 113 233 113 114 l 113 694 l 151 694 l 151 242 q 207 77 151 133 q 367 21 263 21 q 565 102 493 21 q 638 281 638 183 l 638 694 l 676 694 l 676 0 l 640 0 l 639 169 q 538 36 613 86 q 358 -14 463 -14 z "},"Ẁ":{"ha":1276,"x_min":35,"x_max":1240,"o":"m 556 1240 l 658 1032 l 624 1032 l 514 1240 l 556 1240 m 332 0 l 35 917 l 76 917 l 358 38 l 615 917 l 663 917 l 919 36 l 1201 917 l 1240 917 l 944 0 l 894 0 l 694 678 l 639 871 l 638 871 l 583 678 l 382 0 l 332 0 z "},"ẁ":{"ha":1097,"x_min":40,"x_max":1057,"o":"m 457 1019 l 572 810 l 539 810 l 414 1019 l 457 1019 m 1015 694 l 1057 694 l 825 0 l 786 0 l 549 642 l 311 0 l 272 0 l 40 694 l 82 694 l 292 50 l 528 694 l 568 694 l 804 50 l 1015 694 z "},"Ẃ":{"ha":1276,"x_min":35,"x_max":1240,"o":"m 722 1240 l 765 1240 l 654 1032 l 621 1032 l 722 1240 m 332 0 l 35 917 l 76 917 l 358 38 l 615 917 l 663 917 l 919 36 l 1201 917 l 1240 917 l 944 0 l 894 0 l 694 678 l 639 871 l 638 871 l 583 678 l 382 0 l 332 0 z "},"ẃ":{"ha":1097,"x_min":40,"x_max":1057,"o":"m 644 1019 l 688 1019 l 563 810 l 528 810 l 644 1019 m 1015 694 l 1057 694 l 825 0 l 786 0 l 549 642 l 311 0 l 272 0 l 40 694 l 82 694 l 292 50 l 528 694 l 568 694 l 804 50 l 1015 694 z "},"Ẅ":{"ha":1276,"x_min":35,"x_max":1240,"o":"m 508 1128 q 538 1117 526 1128 q 549 1089 549 1107 q 538 1060 549 1071 q 508 1049 526 1049 q 480 1060 490 1049 q 469 1089 469 1071 q 508 1128 469 1128 m 738 1117 q 743 1123 738 1117 q 767 1128 749 1128 q 796 1117 785 1128 q 807 1089 807 1107 q 796 1060 807 1071 q 767 1049 785 1049 q 738 1060 749 1049 q 726 1089 726 1071 q 738 1117 726 1107 m 332 0 l 35 917 l 76 917 l 358 38 l 615 917 l 663 917 l 919 36 l 1201 917 l 1240 917 l 944 0 l 894 0 l 694 678 l 639 871 l 638 871 l 583 678 l 382 0 l 332 0 z "},"ẅ":{"ha":1097,"x_min":40,"x_max":1057,"o":"m 419 906 q 447 895 436 906 q 458 867 458 885 q 447 838 458 849 q 419 826 436 826 q 390 838 401 826 q 379 867 379 849 q 390 895 379 885 q 419 906 401 906 m 676 906 q 706 895 694 906 q 717 867 717 885 q 706 838 717 849 q 676 826 694 826 q 648 838 658 826 q 638 867 638 849 q 676 906 638 906 m 1015 694 l 1057 694 l 825 0 l 786 0 l 549 642 l 311 0 l 272 0 l 40 694 l 82 694 l 292 50 l 528 694 l 568 694 l 804 50 l 1015 694 z "},"Ẏ":{"ha":726,"x_min":21,"x_max":706,"o":"m 335 1072 q 340 1078 335 1072 q 364 1083 346 1083 q 393 1072 382 1083 q 404 1043 404 1061 q 393 1013 404 1025 q 364 1001 382 1001 q 324 1043 324 1001 q 335 1072 324 1061 m 706 917 l 383 356 l 383 0 l 344 0 l 344 356 l 21 917 l 67 917 l 246 603 l 364 397 l 481 603 l 660 917 l 706 917 z "},"ẏ":{"ha":678,"x_min":-4,"x_max":649,"o":"m 314 875 q 319 881 314 875 q 343 886 325 886 q 372 875 361 886 q 383 846 383 864 q 372 817 383 828 q 343 806 361 806 q 314 817 325 806 q 303 846 303 828 q 314 875 303 864 m 649 694 l 307 -136 q 226 -262 271 -226 q 114 -299 182 -299 q -4 -253 31 -299 l 11 -221 q 114 -264 43 -264 q 204 -234 167 -264 q 272 -128 242 -204 l 325 -1 l 249 176 l 29 694 l 74 694 l 315 113 l 343 43 l 372 117 l 607 694 l 649 694 z "},"Ẓ":{"ha":788,"x_min":47,"x_max":746,"o":"m 746 35 l 746 0 l 47 0 l 47 35 l 675 882 l 58 882 l 58 917 l 719 917 l 719 882 l 93 35 l 746 35 m 392 -167 q 401 -176 401 -167 q 392 -185 401 -185 q 383 -176 383 -185 q 392 -167 383 -167 z "},"ẓ":{"ha":672,"x_min":50,"x_max":626,"o":"m 58 0 l 58 32 l 500 589 l 563 661 l 50 661 l 50 694 l 607 694 l 607 663 l 186 128 l 106 33 l 626 33 l 626 0 l 58 0 m 333 -167 q 342 -176 342 -167 q 333 -185 342 -185 q 324 -176 324 -185 q 333 -167 324 -167 z "},"ẗ":{"ha":481,"x_min":8,"x_max":474,"o":"m 19 1047 q 25 1052 19 1047 q 49 1057 31 1057 q 78 1047 67 1057 q 89 1018 89 1036 q 78 989 89 1000 q 49 978 67 978 q 19 989 31 978 q 8 1018 8 1000 q 19 1047 8 1036 m 307 1057 q 346 1018 346 1057 q 335 989 346 1000 q 307 978 325 978 q 278 989 289 978 q 267 1018 267 1000 q 278 1047 267 1036 q 307 1057 289 1057 m 464 694 l 464 661 l 199 661 l 199 178 q 335 21 199 21 q 457 72 410 21 l 474 40 q 332 -14 419 -14 q 160 175 160 -14 l 160 661 l 21 661 l 21 694 l 160 694 l 160 872 l 199 883 l 199 694 l 464 694 z "},"ẞ":{"ha":869,"x_min":124,"x_max":824,"o":"m 564 -7 q 344 75 415 -7 l 367 107 q 563 28 432 28 q 724 91 663 28 q 785 249 785 154 q 553 451 785 451 l 408 451 l 408 485 l 728 882 l 419 882 q 233 808 303 882 q 163 614 163 733 l 163 0 l 124 0 l 124 615 q 203 834 124 751 q 419 917 283 917 l 774 917 l 774 881 l 451 485 l 558 485 q 824 249 824 485 q 753 65 824 138 q 564 -7 682 -7 z "},"Ạ":{"ha":833,"x_min":21,"x_max":813,"o":"m 813 0 l 772 0 l 644 311 l 189 311 l 61 0 l 21 0 l 394 917 l 439 917 l 813 0 m 203 347 l 629 347 l 417 876 l 203 347 m 407 -176 q 417 -167 407 -167 q 426 -176 426 -167 q 417 -185 426 -185 q 407 -176 407 -185 z "},"ạ":{"ha":731,"x_min":71,"x_max":724,"o":"m 560 464 q 505 619 560 563 q 350 675 450 675 q 111 517 168 675 l 81 538 q 351 708 143 708 q 533 646 468 708 q 599 468 599 583 l 599 114 q 675 22 599 22 q 724 33 706 22 l 721 1 q 667 -11 700 -11 q 560 119 560 -11 l 560 135 q 455 24 529 63 q 294 -14 381 -14 q 131 31 190 -14 q 71 160 71 76 q 271 346 71 307 l 560 403 l 560 464 m 111 163 q 160 58 111 94 q 300 21 208 21 q 417 42 360 21 q 517 113 474 63 q 560 235 560 164 l 560 369 l 293 317 q 111 163 111 282 m 344 -167 q 354 -176 354 -167 q 344 -185 354 -185 q 336 -176 336 -185 q 344 -167 336 -167 z "},"Ả":{"ha":833,"x_min":21,"x_max":813,"o":"m 419 994 l 403 1015 q 479 1115 479 1057 q 462 1157 479 1142 q 417 1172 444 1172 q 344 1124 363 1172 l 317 1139 q 419 1207 346 1207 q 487 1183 460 1207 q 514 1119 514 1158 q 419 994 514 1043 m 813 0 l 772 0 l 644 311 l 189 311 l 61 0 l 21 0 l 394 917 l 439 917 l 813 0 m 203 347 l 629 347 l 417 876 l 203 347 z "},"ả":{"ha":731,"x_min":71,"x_max":724,"o":"m 342 789 l 326 810 q 408 921 408 861 q 391 966 408 949 q 343 983 374 983 q 268 931 294 983 l 240 950 q 277 997 250 976 q 346 1018 304 1018 q 417 992 390 1018 q 444 926 444 967 q 419 851 444 882 q 342 789 394 821 m 560 464 q 505 619 560 563 q 350 675 450 675 q 111 517 168 675 l 81 538 q 351 708 143 708 q 533 646 468 708 q 599 468 599 583 l 599 114 q 675 22 599 22 q 724 33 706 22 l 721 1 q 667 -11 700 -11 q 560 119 560 -11 l 560 135 q 455 24 529 63 q 294 -14 381 -14 q 131 31 190 -14 q 71 160 71 76 q 271 346 71 307 l 560 403 l 560 464 m 111 163 q 160 58 111 94 q 300 21 208 21 q 417 42 360 21 q 517 113 474 63 q 560 235 560 164 l 560 369 l 293 317 q 111 163 111 282 z "},"Ấ":{"ha":833,"x_min":21,"x_max":813,"o":"m 643 1374 l 682 1374 l 582 1186 l 551 1186 l 643 1374 m 590 1031 l 551 1031 l 417 1206 l 282 1031 l 243 1031 l 394 1233 l 439 1233 l 590 1031 m 813 0 l 772 0 l 644 311 l 189 311 l 61 0 l 21 0 l 394 917 l 439 917 l 813 0 m 203 347 l 629 347 l 417 876 l 203 347 z "},"ấ":{"ha":731,"x_min":71,"x_max":724,"o":"m 572 1151 l 610 1151 l 511 964 l 481 964 l 572 1151 m 518 808 l 481 808 l 344 983 l 210 808 l 172 808 l 324 1011 l 367 1011 l 518 808 m 560 464 q 505 619 560 563 q 350 675 450 675 q 111 517 168 675 l 81 538 q 351 708 143 708 q 533 646 468 708 q 599 468 599 583 l 599 114 q 675 22 599 22 q 724 33 706 22 l 721 1 q 667 -11 700 -11 q 560 119 560 -11 l 560 135 q 455 24 529 63 q 294 -14 381 -14 q 131 31 190 -14 q 71 160 71 76 q 271 346 71 307 l 560 403 l 560 464 m 111 163 q 160 58 111 94 q 300 21 208 21 q 417 42 360 21 q 517 113 474 63 q 560 235 560 164 l 560 369 l 293 317 q 111 163 111 282 z "},"Ầ":{"ha":833,"x_min":21,"x_max":813,"o":"m 513 1374 l 604 1186 l 574 1186 l 475 1374 l 513 1374 m 590 1031 l 551 1031 l 417 1206 l 282 1031 l 243 1031 l 394 1233 l 439 1233 l 590 1031 m 813 0 l 772 0 l 644 311 l 189 311 l 61 0 l 21 0 l 394 917 l 439 917 l 813 0 m 203 347 l 629 347 l 417 876 l 203 347 z "},"ầ":{"ha":731,"x_min":71,"x_max":724,"o":"m 442 1151 l 533 964 l 503 964 l 403 1151 l 442 1151 m 518 808 l 481 808 l 344 983 l 210 808 l 172 808 l 324 1011 l 367 1011 l 518 808 m 560 464 q 505 619 560 563 q 350 675 450 675 q 111 517 168 675 l 81 538 q 351 708 143 708 q 533 646 468 708 q 599 468 599 583 l 599 114 q 675 22 599 22 q 724 33 706 22 l 721 1 q 667 -11 700 -11 q 560 119 560 -11 l 560 135 q 455 24 529 63 q 294 -14 381 -14 q 131 31 190 -14 q 71 160 71 76 q 271 346 71 307 l 560 403 l 560 464 m 111 163 q 160 58 111 94 q 300 21 208 21 q 417 42 360 21 q 517 113 474 63 q 560 235 560 164 l 560 369 l 293 317 q 111 163 111 282 z "},"Ẩ":{"ha":833,"x_min":21,"x_max":813,"o":"m 569 1160 l 553 1181 q 629 1281 629 1224 q 612 1323 629 1307 q 567 1339 594 1339 q 494 1289 513 1339 l 467 1306 q 569 1372 496 1372 q 638 1348 611 1372 q 665 1286 665 1324 q 569 1160 665 1211 m 590 1031 l 551 1031 l 417 1206 l 282 1031 l 243 1031 l 394 1233 l 439 1233 l 590 1031 m 813 0 l 772 0 l 644 311 l 189 311 l 61 0 l 21 0 l 394 917 l 439 917 l 813 0 m 203 347 l 629 347 l 417 876 l 203 347 z "},"ẩ":{"ha":731,"x_min":71,"x_max":724,"o":"m 497 938 l 482 958 q 558 1058 558 1001 q 541 1101 558 1085 q 494 1117 524 1117 q 424 1067 442 1117 l 396 1083 q 499 1150 422 1150 q 567 1126 540 1150 q 593 1064 593 1101 q 497 938 593 988 m 518 808 l 481 808 l 344 983 l 210 808 l 172 808 l 324 1011 l 367 1011 l 518 808 m 560 464 q 505 619 560 563 q 350 675 450 675 q 111 517 168 675 l 81 538 q 351 708 143 708 q 533 646 468 708 q 599 468 599 583 l 599 114 q 675 22 599 22 q 724 33 706 22 l 721 1 q 667 -11 700 -11 q 560 119 560 -11 l 560 135 q 455 24 529 63 q 294 -14 381 -14 q 131 31 190 -14 q 71 160 71 76 q 271 346 71 307 l 560 403 l 560 464 m 111 163 q 160 58 111 94 q 300 21 208 21 q 417 42 360 21 q 517 113 474 63 q 560 235 560 164 l 560 369 l 293 317 q 111 163 111 282 z "},"Ẫ":{"ha":833,"x_min":21,"x_max":813,"o":"m 631 1396 q 513 1271 611 1271 q 451 1285 478 1271 q 409 1317 424 1300 q 372 1349 394 1335 q 321 1364 349 1364 q 266 1342 285 1364 q 238 1272 247 1319 l 204 1272 q 322 1397 225 1397 q 424 1350 375 1397 q 513 1303 474 1303 q 568 1326 549 1303 q 597 1396 588 1349 l 631 1396 m 590 1031 l 551 1031 l 417 1206 l 282 1031 l 243 1031 l 394 1233 l 439 1233 l 590 1031 m 813 0 l 772 0 l 644 311 l 189 311 l 61 0 l 21 0 l 394 917 l 439 917 l 813 0 m 203 347 l 629 347 l 417 876 l 203 347 z "},"ẫ":{"ha":731,"x_min":71,"x_max":724,"o":"m 560 1174 q 440 1049 540 1049 q 379 1063 406 1049 q 338 1095 353 1078 q 301 1127 324 1113 q 250 1142 278 1142 q 195 1120 214 1142 q 165 1050 176 1099 l 132 1050 q 251 1175 153 1175 q 324 1151 294 1175 q 381 1104 354 1128 q 440 1081 407 1081 q 496 1103 476 1081 q 526 1174 515 1125 l 560 1174 m 518 808 l 481 808 l 344 983 l 210 808 l 172 808 l 324 1011 l 367 1011 l 518 808 m 560 464 q 505 619 560 563 q 350 675 450 675 q 111 517 168 675 l 81 538 q 351 708 143 708 q 533 646 468 708 q 599 468 599 583 l 599 114 q 675 22 599 22 q 724 33 706 22 l 721 1 q 667 -11 700 -11 q 560 119 560 -11 l 560 135 q 455 24 529 63 q 294 -14 381 -14 q 131 31 190 -14 q 71 160 71 76 q 271 346 71 307 l 560 403 l 560 464 m 111 163 q 160 58 111 94 q 300 21 208 21 q 417 42 360 21 q 517 113 474 63 q 560 235 560 164 l 560 369 l 293 317 q 111 163 111 282 z "},"Ậ":{"ha":833,"x_min":21,"x_max":813,"o":"m 592 1032 l 553 1032 l 417 1206 l 281 1032 l 242 1032 l 394 1233 l 439 1233 l 592 1032 m 813 0 l 772 0 l 644 311 l 189 311 l 61 0 l 21 0 l 394 917 l 439 917 l 813 0 m 203 347 l 629 347 l 417 876 l 203 347 m 407 -176 q 417 -167 407 -167 q 426 -176 426 -167 q 417 -185 426 -185 q 407 -176 407 -185 z "},"ậ":{"ha":731,"x_min":71,"x_max":724,"o":"m 518 808 l 481 808 l 344 983 l 210 808 l 172 808 l 324 1011 l 367 1011 l 518 808 m 560 464 q 505 619 560 563 q 350 675 450 675 q 111 517 168 675 l 81 538 q 351 708 143 708 q 533 646 468 708 q 599 468 599 583 l 599 114 q 675 22 599 22 q 724 33 706 22 l 721 1 q 667 -11 700 -11 q 560 119 560 -11 l 560 135 q 455 24 529 63 q 294 -14 381 -14 q 131 31 190 -14 q 71 160 71 76 q 271 346 71 307 l 560 403 l 560 464 m 111 163 q 160 58 111 94 q 300 21 208 21 q 417 42 360 21 q 517 113 474 63 q 560 235 560 164 l 560 369 l 293 317 q 111 163 111 282 m 344 -167 q 354 -176 354 -167 q 344 -185 354 -185 q 336 -176 336 -185 q 344 -167 336 -167 z "},"Ắ":{"ha":833,"x_min":21,"x_max":813,"o":"m 397 1210 l 482 1397 l 521 1397 l 429 1210 l 397 1210 m 592 1203 q 544 1075 592 1122 q 417 1028 497 1028 q 289 1075 336 1028 q 242 1203 242 1122 l 274 1203 q 313 1099 275 1138 q 417 1060 350 1060 q 521 1099 483 1060 q 558 1203 558 1138 l 592 1203 m 813 0 l 772 0 l 644 311 l 189 311 l 61 0 l 21 0 l 394 917 l 439 917 l 813 0 m 203 347 l 629 347 l 417 876 l 203 347 z "},"ắ":{"ha":731,"x_min":71,"x_max":724,"o":"m 325 988 l 410 1175 l 450 1175 l 357 988 l 325 988 m 519 981 q 473 852 519 899 q 344 806 426 806 q 217 853 264 806 q 169 981 169 900 l 203 981 q 240 876 203 915 q 344 838 278 838 q 450 876 413 838 q 488 981 488 915 l 519 981 m 560 464 q 505 619 560 563 q 350 675 450 675 q 111 517 168 675 l 81 538 q 351 708 143 708 q 533 646 468 708 q 599 468 599 583 l 599 114 q 675 22 599 22 q 724 33 706 22 l 721 1 q 667 -11 700 -11 q 560 119 560 -11 l 560 135 q 455 24 529 63 q 294 -14 381 -14 q 131 31 190 -14 q 71 160 71 76 q 271 346 71 307 l 560 403 l 560 464 m 111 163 q 160 58 111 94 q 300 21 208 21 q 417 42 360 21 q 517 113 474 63 q 560 235 560 164 l 560 369 l 293 317 q 111 163 111 282 z "}}}
